<?xml version="1.0" encoding="utf-8"?>
<!-- Generator: Adobe Illustrator 23.0.0, SVG Export Plug-In . SVG Version: 6.00 Build 0)  -->
<svg version="1.1" id="Layer_1" opacity="0.5" xmlns="http://www.w3.org/2000/svg" xmlns:xlink="http://www.w3.org/1999/xlink"
	 x="0px" y="0px" viewBox="0 0 847.5 1080" style="enable-background:new 0 0 847.5 1080;" xml:space="preserve">
<g>
	<path d="M642.1,729.5c-9.3,2.4-18.1,3.9-27.4-1.4c-5.1-2.9-11.9-2.9-17.9-3.9c-5.1-0.8-10.3-0.9-15.4-3.3c4.1-0.3,8.2-0.5,12.3-0.8
		c0-0.3,0-0.6-0.1-1c-6.3,0-12.7,0-19,0c-0.3,1-0.6,2-0.8,2.9c5.9,1.6,11.8,3.2,17.9,4.9c-0.8,5.7-2.3,7-9.3,3.3
		c-3.9-2-11.3,2.8-17.2,4.5c0.1,0.8,0.2,1.6,0.3,2.5c9.9-0.9,19.9-1.8,31-2.8c-2.9,2.5-5.1,4.5-8.7,7.6c14.2,0,26.9-0.2,39.5,0
		c16.7,0.3,33.4,0.8,50.1,1.6c4.1,0.2,8.1,1.9,12.1,2.8v-0.1c-12.9-0.8-25.7-1.7-38.6-2.5c-0.1,0.7-0.1,1.4-0.2,2.2
		c7.9,2.3,15.7,4.7,25.2,7.5c-20.3,0-38.6,0-57,0c0,0.2-0.1,0.4-0.1,0.6c6.4,0.9,12.8,1.9,19.1,2.8c-11.2,5.2-24-5.7-35.4,2.8
		c10.5,0.5,20.4,1,30.3,1.5c0,0.7,0,1.4,0,2.1c-7,0-14,0-21,0c0,0.8,0.1,1.6,0.1,2.3c9-0.6,18.1-1,27.1-1.9c5.5-0.6,6.7,0.7,4.9,6.3
		c4.8,0,9.7,0,14.6,0c0,0.5,0.1,1.1,0.1,1.6c-5.9,0-11.9,0.2-17.8-0.1c-2.7-0.1-6-2.4-8-1.4c-7.4,3.6-14.7,4.9-22.6,2.3
		c-1.6-0.5-3.5-0.1-5.3,1.7c13.1,1,26.1,2,39.2,3.1c0.1-0.3,0.1-0.6,0.2-0.8c-1.3-0.3-2.7-0.6-4.3-0.9c19.4,0,38.5,0,57.6,0
		c0.2,0.4,0.3,0.7,0.5,1.1c-6.7,1.4-13.5,2.7-20.4,4.1c1.5,0.4,3,0.8,4.5,1.2c-0.1,0.6-0.3,1.3-0.4,1.9c-3.8-0.8-7.7-2.7-11.3-2.1
		c-2.2,0.4-3.7,4.4-5.9,7.3c6.1,0.8,11,1.4,15.9,2.1c-0.1,0.8-0.2,1.6-0.3,2.3c-8.5,0.4-17,0.1-25.4,1.4c-9.5,1.5-18.6,5-28.1,6.5
		c-10.4,1.7-20.9,4-31.4-1.6c-3.2-1.7-8.7,0.8-13.2,2c21.2,8.3,43.3,2.4,65,5.3c-11.9,1.2-23.8,2.5-35.7,3.7
		c0.1,0.8,0.1,1.6,0.2,2.4c4.2,0,8.4,0,12.6,0c0-0.4,0.2-0.8,0.1-1s-0.6-0.1-0.8-0.3c-0.5-0.4-0.9-0.8-1.8-1.6c6.8,0,12.7,0,18.8,0
		c-1.7,1.6-3.2,3-4.6,4.4l-0.1-0.1c-4.3,0.7-8.5,1.7-12.8,1.9c-7.4,0.3-14.8,0.1-22.2,1.7c4.2,0.9,8.5,1.7,13.5,2.8
		c-3.8,1.7-6.9,3.1-9.9,4.5c0.2,0.7,0.4,1.4,0.7,2c4,0.3,7.9,0.6,11.9,0.8c-0.1,0.7-0.1,1.3-0.2,2c-11.9-1.3-23.7-2.6-35.6-4
		c-0.1,0.3-0.2,0.7-0.4,1c2.2,1.1,4.4,2.2,6.6,3.2c-0.8,0.6-1.7,1.4-2.7,2.1c5.7,0.8,11.2,1.6,16.6,2.4c0.1-0.3,0.2-0.6,0.4-0.9
		c-0.9-0.4-1.7-0.9-3.3-1.7c6.4,0,12.1,0,17.8,0c0,0.6,0,1.2,0.1,1.8c-2.3,0.1-4.6,0.3-6.9,0.4c0,0.6,0,1.2,0,1.8c7.3,0,14.7,0,22,0
		c0,0.7,0,1.3,0,2c-18.8,0-37.6,0-56.5,0c18.7,3.4,37.9-0.2,56.5,3.8c0,0.8-0.1,1.6-0.1,2.4c-10.6,0.5-21.2,1.1-31.8,1.6
		c0,0.5-0.1,0.9-0.1,1.4c3.2,0.4,6.4,1.2,9.6,1.3c16.4,0.6,32.9,1.8,49.3,1.1c6.3-0.2,12.4-4.9,18.5-7.5l-0.3-0.3
		c-1,1.9-2.1,3.8-2.4,4.3c12.9,2.3,26.7,4.7,40.4,7.2l-0.2-0.2c6.5-0.4,13.1-0.7,21.7-1.2c-3.8,2.5-6.9,3.4-7.2,4.8
		c-1.1,5.8-4,5.2-8.2,3.6c-5-2-5.4,0.6-4.8,5c0.3,2.5-0.8,5.9-2.5,7.9c-1.4,1.6-4.6,2.4-7,2.3c-10.6-0.3-21.1-1-31.8-0.7
		c4.7,1.1,9.4,2.2,14,3.3c0.2,0.7,0.4,1.4,0.6,2.1c-5.7,1.4-11.3,3.4-17.1,4.2c-5.1,0.7-10.3-0.3-15.4,0.3c-2.5,0.3-4.7,3.1-7.3,3.6
		c-5.6,1.1-11.4,1.5-17.4,3.6c14.8,1.5,29.6,2.9,44.1,4.3c-9.3,9.9-19.5-2-29.8,0.3c-8.1,1.8-17.1-0.3-25.7-0.7
		c-0.2,1.1-0.3,2.1-0.5,3.2c6.9,1.2,13.9,2.3,20.8,3.5c-0.2,0.9-0.5,1.8-0.7,2.8c-9.7-1.1-19.4-2.2-29.2-3.3
		c-0.1,0.6-0.2,1.2-0.3,1.8c11.9,2.1,23.7,4.2,37.4,6.6c-4.1,0.6-6.5,1-8.9,1.3c0,0.6,0,1.2,0,1.8c11.2,0.4,22.3,1.1,33.4,1
		c2.2,0,4.4-2.6,7.3-4.4c-2.4-0.6-4-1-5.5-1.3c0-0.3,0-0.6,0-0.8c3.7,0,7.3,0,11,0c0-0.6,0.1-1.1,0.1-1.7c-5.2,0-10.4,0-15.5,0
		c0-0.9,0.1-1.7,0.1-2.6c11.5,0.8,22.9,1.6,34.4,2.4c0,0.6,0.1,1.3,0.1,1.9c-2.9,0.8-5.7,1.5-8.6,2.3c0.1,0.5,0.2,0.9,0.3,1.4
		c6.6-0.9,13.2-1.7,19.8-2.6c0-0.3,0-0.6,0-1c-2.5-0.3-4.9-0.6-7.4-0.9c0-0.4,0-0.8,0.1-1.2c3.6,0,7.2,0,10.8,0l-0.2-0.3
		c4.7,0.9,9.5,1.8,16.9,3.2c-6.3,1.3-10.4,2.1-15,3.1c2,0.6,3.7,1.1,7.5,2.2c-5.5,0.3-9.1,0.5-10.6,0.6c-1.5,2.3-2.1,4.5-3.1,4.8
		c-9,2.1-18.1,4.4-27.3,5.7c-10.8,1.4-21.7,1.8-32.9,0.6c6-1.5,12.1-3,18.1-4.6c0.2-0.7,0.3-1.5,0.5-2.2c-7.1-1.2-14.2-2.4-21.3-3.6
		c-0.2,0.6-0.3,1.2-0.5,1.8c1.2,0.6,2.4,1.1,3.6,1.7c-25.1-0.3-50.2-3.7-75.3,0.4c17,0,34,0,52.4,0c-2.3,2-3.3,2.8-5,4.2
		c5.2,0,9.2,0,13.3,0c0.1,0.6,0.1,1.2,0.2,1.8c-14.3,2-28.6,4-43.5,6.1c3.1,0.3,6.3,0.9,9.5,1c3.6,0.2,7.1,0,11.5,0
		c-1.8,1.6-3,2.6-5.1,4.4c8.9,0.5,16.7,1,24.4,1.4c0.1-0.5,0.2-1.1,0.2-1.6c-1.5-0.4-3-0.7-3.8-0.9c0.5-1.6,1.2-4.8,1.5-4.7
		c3.4,0.4,5.7-8.2,10.4-1.2c1,1.4,7-0.8,10.7-1c5.6-0.2,11.2-0.1,16.9,0.8c-13.5-0.2-17.7,21.2-34.8,11.9c0.2,0.9,0.4,1.9,0.7,2.8
		c3.2,0.3,6.3,0.6,9.5,0.9c0.1,0.4,0.3,0.8,0.4,1.3c-4,1.4-8.1,2.8-12.7,4.5c1.2,0.7,2.3,1.2,4,2.2c-3.9,2.2-7.4,4.2-11,6.2
		c0.2,0.6,0.3,1.1,0.5,1.7c4.8,0,9.6,0,14.4,0c0.1,0.7,0.1,1.4,0.2,2.1c-10.1,1.5-20.2,3-30.4,4.4c0,0.3-0.1,0.7-0.1,1
		c5.5,0.5,11,1,16.4,1.4c0,1,0,1.9,0,2.9c-2.1,0.4-4.1,0.7-6.2,1.1c0,0.6-0.1,1.2-0.1,1.8c10.7,1.9,21.4,3.8,32.2,5.7
		c0,0.3,0.1,0.7,0.1,1c-5.8,0-11.5,0-17.3,0c-0.1,1.2-0.2,2.4-0.4,3.6c8.9,1.6,17.7,3.2,25.7,4.6c-6.3,0.8-13.6,1.7-21.4,2.7
		c2,2.8,3.7,5.2,5.8,8.3c-3.1,0.2-5.8,0.5-10.3,0.8c9.3,2,16.6,3.6,23.7,5.1c-0.5,3.1-1,6.3-1.7,10.4c-3.8,0-9.2,0-14.6,0
		c0,0.7,0,1.4,0,2.2c8.5,0,17,0,25.5,0c0.1,0.4,0.2,0.7,0.3,1.1c-2.8,1-5.7,2.1-11,4c2.7,1,4.7,1.7,6.8,2.4c-0.4,0.7-0.7,1.3-1.1,2
		c-4.3-0.2-8.5-0.4-15-0.7c2.9,2.4,4.1,3.5,5.5,4.7c-1.1,0.4-2.5,0.9-4,1.4c0.1,0.4,0.1,0.8,0.2,1.3c6.5-0.7,12.9-1.4,19.4-2.1
		c0.1,0.4,0.1,0.7,0.2,1.1c-5.7,1.8-11.5,3.6-17.6,5.6c10,0,19.9,0,29.7,0c0.1,0.6,0.1,1.3,0.2,1.9c-5,0.3-10,0.6-15,0.9
		c0,0.7-0.1,1.4-0.1,2.1c7.5,0,15,0,22.5,0c0,0.8,0.1,1.6,0.1,2.4c-5.9,1-11.9,2-17.8,3c0,0.2,0,0.5,0,0.7c7.8,0,15.6,0,23.3,0
		c0,0.6,0,1.2,0,1.7c-3.1,0.2-6.3,0.5-10.8,0.8c5.2,1.5,9,2.6,12.8,3.7c-0.1,0.7-0.1,1.5-0.2,2.2c-11.3,0-22.7,0-34,0
		c0,0.8,0,1.6,0,2.3c7.6,0,15.1,0,22.7,0c0,0.6,0.1,1.1,0.1,1.7c-3.5,0.2-6.9,0.5-11.1,0.8c5.8,3.9,14.6-3.1,17.4,6.4
		c-1.6,0.3-3.1,0.7-6.9,1.5c6,0.6,9.6,0.9,13.1,1.3c0,0.4-0.1,0.7-0.1,1.1c-6.3,0.8-12.6,1.5-20.7,2.5c6.9,1.2,12.2,2.1,17.4,2.9
		c-54.2,0-108.5,0-162.7,0c-1.8-0.9-3.6-1.9-5.2-2.7c11.2-1.3,22.4-2.5,35.2-4c-3.5-2.3-5.4-3.6-8.1-5.5c4.1-0.4,7.1-0.7,10.1-1
		c-0.1-1.1-0.2-2.1-0.3-3.2c-14.1,1.4-28.2,2.8-42.3,4.2c-0.1-0.6-0.1-1.2-0.2-1.8c11.2-1.7,22.3-3.5,33.5-5.2
		c-6.8-0.7-16.1,2.1-19.9-1.3c-7.5-6.8-15.4-1.9-19.2,0c-9.5,4.6-19.3,5.6-29,7.9c-3.9,0.9-7.8,2-12.8,3.2c4.4,1.1,7.4,1.8,10.4,2.6
		c-10.4,3.1-20.6,4-30.9,5.1c-0.7,0.1-1.2,1-1.8,1.6c-19.7,0-39.3,0-59,0c1.3-1.8,2.6-3.5,3.1-4.2c6.4,0.3,12.2,0.6,17.9,1
		c0.1-1.3,0.2-2.6,0.2-3.9c-19.2-4.5-39-1.3-58.3-3.8c-0.2,0.7-0.3,1.5-0.5,2.2c1.3,0.9,2.7,1.7,2.3,1.5c-0.9,2.9-1.6,5.1-2.3,7.3
		c-23.2,0-46.5,0-69.7,0c-2-2.4-4-4.9-5.6-6.7c21-1.7,43.6,7.9,66.9,0.1c-1.3-1.3-1.8-2.1-2.1-2c-18.1,5.5-36-1.4-54.1-0.4
		c-13.2,0.7-26.6,0.1-39.8,0.1c0,0.8,0,1.6,0,2.4c6.9,0,13.7,0,20,0c-3.3,2.1-6.8,4.3-10.4,6.5c-47.1,0-94.2,0-141.3,0
		c1.4-15.9,2.8-31.8,4.3-47.7c0.4-3.8,0.6-7.7,1.5-11.5c0.6-2.3,2.3-4.4,2.8-5.3c-3-10.3-6-20.6-9.3-32c6.9,0,12.4,0,18.9,0
		c-1.2-1.1-1.4-1.6-1.8-1.7c-5.8-0.5-14.7,1.1-16.8-1.9c-4.3-6.3-5-15.1-7.2-22.9c-1.1-4.1-3.4-8.3-3.1-12.3
		c1.2-15,3.8-29.9,4.9-44.9c0.6-8.8-0.1-17.7-1-26.5c-1.7-16.2-4.2-32.4-6-48.6c-0.7-6-0.9-12.3-0.1-18.3c0.8-6.3,3.5-12.4,4.4-18.7
		c2-13.2,3.3-26.4,5-39.6c1.7-13.2,3.1-26.4,5.6-39.4c1.6-8.2-0.4-13.4-7.6-17.3c-5.6-3.1-7.1-7.8-2.8-13.3c1.2-1.6,2.2-3.5,3.6-5
		c4.9-5.3,5.9-9.2-2.4-12.4c-1.9-0.7-3.4-6.3-2.7-9.1c1.6-6.8,4.3-13.5,7-20c1.1-2.7,3.8-4.7,5-7.4c1.3-3,1.8-6.5,2.9-10.9
		c-0.3,0.1,1.2-0.4,1.4-0.4c-3.8-4.4-8.1-9-11.8-14c-0.7-1,0.2-4.2,1.4-5.3c8.7-8.1,17.5-16,26.6-23.6c2-1.6,5.3-1.6,8.3-2.4
		c-1-0.7-1.9-1.3-2.7-2c13.6-7.5,11.9-25.2,26.8-35.2c-28.4-11-38.6-36.1-57.5-54c2.8-0.8,4.4-1.2,6.4-1.7c-0.8-0.5-1.1-0.9-1.5-0.9
		c-10.9-0.7-22.6-10.8-25.5-21.4c-0.4-1.6-3.7-2.3-4.8-4c-8.7-12.9-18.1-25.4-25.3-39c-3.7-7-3.8-16.2-4.4-24.5
		c-0.2-2.4,3.4-5.1,4.5-6.7c-2.2-1.2-6.5-2.1-8-4.7c-1.8-3-1.1-7.5-1.6-12.9c0.9,0.4-0.6-0.3-4.7-2.2c6.2-0.7,9.7-1.1,13.2-1.4
		c0-0.3,0-0.6,0.1-0.8c-3.5-0.2-7-0.5-12.8-0.8c-0.2-6.5-0.5-13.1-0.7-19.8c1.5,0.6,3,1.6,4.5,1.6c6,0,12-0.4,18-0.5
		c0.5,0,1,1.2,1.8,2.3c-2,0.5-3.6,0.9-6,1.5c2.2,0.7,3.7,1.1,5.4,1.6c-1.8,1.1-3.5,2.2-5.9,3.7c5.7,1,10.2,1.8,14.8,2.7
		c-0.1,0.5-0.1,1.1-0.2,1.6c-5.9,0-11.8,0-17.7,0c-0.1,0.7-0.2,1.4-0.3,2c9.5,3.2,18.9,6.5,29.1,9.9c-4.6,1-8.3,1.8-14.3,3
		c4,1.2,5.6,1.6,7.9,2.3c-2.5,0.7-4.1,1.2-6.5,1.9c4.3,1.3,7.6,2.3,11.4,3.4c-1.3,0.8-2.2,1.4-3,1.9c10.7,3.5,16.2-1.7,18.8-11.1
		c-0.9-0.4-2.2-0.9-4.4-1.7c2.8-0.6,4.7-0.9,7.7-1.5c-3-1.7-5-2.8-6.4-3.5c4-6,7.7-11.6,11.2-16.9c-4.4-1.5-4.9-2.6-2.2-8.1
		c-11.2-17.7-24.1,1.3-33.9-1.9c-2.5,2.4-3.8,4.8-5.2,4.9c-8.2,0.7-16.4,0.8-24.7,1.1c-3-8.1-6.1-16.3-9.1-24.4
		c-1.4-3.8-2.8-7.6-4-11.5c-2.1-6.6-3.9-13.3-6.2-19.9c-4.4-12.7-9.3-25.2-13.4-37.9c-4.7-14.3-8-28.8-10.4-43.8
		c-1.5-9.5,0.2-18.3-0.2-27.4c-0.4-7.2,1.3-14.8,3.4-21.7c6.6-21.2,14-42.3,27.1-60.5c13.7-19,30.7-35.7,50.8-47.2
		c23-13.2,47.7-23.8,72.5-33.5c10.8-4.2,23.7-4.4,35.5-3.9c18.3,0.9,36.7,3,54.6,6.4c11.4,2.2,22.6,7,33.3,11.8
		c10.2,4.6,20.6,9.8,29.2,16.7c9.6,7.8,18.6,17.1,25.7,27.2c8.1,11.6,13.9,24.8,21.3,38.3c-4.3,0.5-6.6,0.7-8.9,1
		c-0.4,0.6-0.7,1.2-1.1,1.8c2.4,1.6,4.7,4.5,7.2,4.7c6.4,0.5,6.4,3.8,4.9,9c-3.9,0.2-7.9,0.4-11.9,0.6c0,0.3,0,0.7,0,1
		c2.3,0.1,4.5,0.3,6.8,0.4c10,0.5,12.6,4,10.9,14.5c-0.1,0.5,0.1,1.1,0.4,1.6c1.8,3.8,3.7,7.6,5.6,11.4c1.2,2.4,2.4,4.7,3.9,7.7
		c-2.9,0.3-6.2,0.7-9.5,1.1c6.9,0.2,11.6,3,11.7,10.5c0,7.5,10,13.4,4,22.8c1.3,0.1,3.4,0.4,3.3,0.4c-1.6,6.1-3.2,12-5,18.5
		c6-0.4,9.4-0.6,12.8-0.8c0.1,0.4,0.1,0.7,0.2,1.1c-1.6,0.4-3.1,0.9-5.1,1.4c1,1.9,1.9,3.7,3.7,7.1c-13.7-3.4-21.1,4.4-28.6,12
		c-2.5,2.5-6.2,5.7,0.9,7.3c-0.2,0.5-0.2,1.1-0.5,1.5c-0.4,0.4-1,0.4-1.9,1.2c10.2,0.3,17.6,5.4,23,13.3c-1.8,3.1-3.9,6.7-6.3,10.7
		c-4.9-2.9-10-5.9-15.8-9.3c1.3-0.6,3.1-1.5,5.9-2.8c-11.1-2.6-21.3-5-31.5-7.4c-0.2,0.9-0.4,1.9-0.7,2.8c5.9,1.2,11.8,2.3,17.8,3.5
		c0.2,1,0.4,1.9,0.5,2.9c-9.2,2.7-18.5,5.4-27.7,8c-0.2-0.9-0.4-1.7-0.7-2.6c2.4-0.4,4.9-0.7,9.8-1.4c-4.9-0.7-7.5-1.1-11.8-1.7
		c3.3-0.8,5-1.2,7.5-1.8c-2-1.8-3.5-3.3-5.2-4.5c-2.4-1.6-4.2-10-4.8-13c-1-4.6-3.6-9-6.2-13c-1.7-2.6-4.7-4.3-6.9-6.5
		c-0.1-0.1,1.3-1.8,2.3-3c-2.2-0.2-4.4-0.4-4.8-0.5c-8-12.3-15.3-23.6-23-35.6c3.2,0,6.3,0,9.3,0c0-0.4,0.1-0.9,0.1-1.3
		c-4.3-1-8.6-2.1-12.2-2.9c3.9-3.5,8.2-7.5,11.5-10.5c-6-5.7-11.4-10.8-16.8-16c4.8-1.7,8.3-2.9,11.8-4.2c-0.2-0.9-0.4-1.8-0.5-2.7
		c-10.3,0.1-20.8,0.9-29.1-8.3c2-0.4,3.7-0.7,5.5-1.1c0.3-0.6,0.6-1.2,1-1.8c-3.2-1.7-6.4-3.3-9.6-5c-1.5-0.8-4-1.7-4.1-2.8
		c-0.9-8.5-5.7-5.2-10-3.5c-0.8-1.5-1.5-4.1-2.4-4.1c-8.4-0.7-16.8-1.1-25.3-1.2c-1.3,0-2.6,2-3.9,3.1c0.3,0.6,0.7,1.3,1,1.9
		c2.8-1.1,5.5-3.1,8.3-3.1c3.1,0,6.2,1.9,9.9,3.2c3.7-3.3,6-3.4,12.5,0c0.4,1.2,0.8,2.4,1.5,4.3c-11.2,7.6-24.3-1.7-37.5,0.7
		c-1.8-12.9-9.5-5.4-15.6-5c4.3,1.2,8.2,2.4,12.2,3.6c-0.1,1.1-0.2,2.2-0.3,3.3c-6.7,0.7-13.3,1.3-20,2c0,0.4,0,0.7-0.1,1.1
		c7.6,0,15.2,0,22.7,0c0,0.7,0,1.4,0,2.1c-4.4,0-8.9,0-13.8,0c1.3,2.4,2.2,4.1,3.5,6.7c-3.2-1.3-5.6-1.9-7.5-3.2
		c-6-4-5.8-3.9-11.8-0.5c-1.9,1.1-4.6,0.7-6.9,2.5c2.7,0,5.5,0,8.3,0c1,7,1,7-9.9,7.1c-5.6,0-11.2,0-16.8,1.4c8.9,0,17.9,0,26.8,0
		c0.1,0.6,0.1,1.2,0.2,1.8c-13.3,1.8-26.6,3.7-39.9,5.5c0,0.5,0,1.1,0,1.6c7.6,0.9,15.3,1.8,23,2.8c-6.7,1.2-13.3,2.4-20,3.5
		c0.1,1,0.3,2,0.4,3.1c3.2,0,6.3,0,9.7,0c-4.9,9.4-10.5,7.9-17.4,2.8c-1.5-1.1-5.9,1.9-9.3,3.1c3.3,1.2,5.9,2.1,7.4,2.7
		c-4.4,3-9.1,6.3-13.8,9.4c-1.3,0.9-3.1,1.7-4.6,1.5c-13-0.9-26-2.2-39-2.9c-4.2-0.2-8.6,1.2-12.9,1.8c0,1,0,1.9,0,2.9
		c5.1,2.3,10.1,4.6,15.2,6.9c-0.4,0.7-0.7,1.5-1.1,2.2c4.7,0,9.4,0,15.2,0c-8.5,2.4-15.8,4.4-23.2,6.4c0.1,0.7,0.3,1.4,0.4,2
		c3.7,0,7.4,0,10.1,0c0.6,2.8,1,4.8,1.4,6.9c0.7-0.9,1.3-2.2,2.3-2.7c0.9-0.4,2.8-0.4,3.3,0.2c5.9,6.3,9.6,2.3,15.1-1.4
		c4.5-3,11.4-2.4,17.2-3.4c0.1,1,0.1,1.9,0.2,2.9c-1.7-0.1-3.3,0-5-0.4c-5.2-1-7.9,2.4-11.8,5.1c-5.3,3.8-12.2,5.5-18.7,7.2
		c-8.3,2.2-16.8,3.5-25.5,5.2c9.1,7.5,19.7-3.1,29.7,3.5c-6.5,2.3-12.9,4.7-19.4,7c-0.1,0.3-0.1,0.7-0.2,1c6.9,0,13.8,0,20.7,0
		c0,0.3,0.1,0.7,0.1,1c-3.5,0.3-7.1,0.5-10.6,0.8c0,0.3-0.1,0.6-0.1,0.9c2.4,0.3,4.9,0.6,7.3,1c0,0.5-0.1,1-0.1,1.6
		c-7.1-0.6-14.2-1.2-21.3-1.8c0,0.7-0.1,1.4-0.1,2.1c7.2,0.6,14.4,1.3,20.6,1.8c-2.7,2.3-5.9,5-9,7.6c-10.3-0.7-20.6-1.5-30.9-2.2
		c0,0.7-0.1,1.5-0.1,2.2c10.3,0,20.6,0,31,0c1.7,0.3,3.6,0.3,5.2,0.9c3.5,1.4,6.7,3.5,10.3,4.5c20.4,5.5,41.2,2.4,61.8,2.1
		c1.9,0,3.8-2.9,6.3-5c-3.6,0.5-6.9,1-11.5,1.6c2.1-1.9,4-4.3,4.7-4c13.3,5.4,22-5.7,32.7-9.3c15.2-5.1,30-7.5,45.5-1.5
		c4.3,1.6,8.9,2.1,14,2c-1.2-0.9-2.4-1.9-5.2-4c11.9,0,21.8,0,33.1,0c-3.3,1.2-5.7,2.1-8.1,2.9c0,0.4,0,0.9,0.1,1.3
		c4.2,0.3,8.3,0.5,12.5,0.8c0,0.5,0,0.9,0,1.4c-9.5,0-19,0-28.5,0c0,0.1,0,0.2,0,0.4c1.3,0,2.6,0,5.1,0c-1.7,1.9-2.9,3.3-4.2,4.7
		c4.1-0.2,8-0.4,12-0.6c0.1,0.7,0.2,1.5,0.3,2.2c-3.3,0.4-6.7,0.8-10,1.1c0,0.4,0.1,0.8,0.1,1.2c4.7,0,9.4,0,14,0
		c0,0.5,0.1,0.9,0.1,1.4c-3.5,0.2-7,0.5-10.5,0.7c5.2,2,10.4,4.1,18,7.1c-4.4,1.2-6.3,1.7-8.5,2.3c1.6,0.8,2.6,1.3,5.8,2.9
		c-16.9,0-31.5,0-46.2,0c-0.1,0.4-0.2,0.7-0.3,1.1c0.9,0.3,1.8,0.7,3.9,1.5c-2.9,1.5-5.1,2.7-8.9,4.8c7.9-0.9,13.9-1.6,19.8-2.3
		c0.1,0.5,0.2,1,0.3,1.4c-6.5,1.6-13,3.1-19.5,4.7c0,0.5,0,0.9,0.1,1.4c5.8-0.3,11.7-0.3,17.5-1c6-0.8,11.9-2.4,17.8-3.6
		c0.2,0.8,0.4,1.6,0.6,2.4c-3.1,1-6.1,2-9.7,3.1c2.1,0.5,4,0.9,5.8,1.4c0,0.4,0,0.8,0,1.2c-4.4,0-8.8,0-13.2,0
		c0,0.4-0.1,0.7-0.1,1.1c1.5,0.5,3.1,0.9,4.6,1.4c0.2,0.8,0.4,1.6,0.6,2.4c-4.8,1.3-9.6,3.1-14.6,3.9c-3.8,0.6-7.8,0.4-11.6,0.1
		c-8.6-0.8-17,1.6-25.7-4.6c-7-4.9-17.7-4.7-23.6-6c-2.2-2.9-2.8-4-3.7-4.7c-1.8-1.4-3.8-2.6-6.7-4.4c6.5,0,12.4,0,18.2,0
		c0-0.2-0.1-0.3-0.1-0.5c-15.2,0-30.5,0-45.7,0c0,0.6-0.1,1.3-0.1,1.9c3.6,0.2,7.2,0.4,11.5,0.7c-1.9,7.1-3.8,14-5.7,20.9
		c-1.2,1.8,7.6,0.8,0.6,6.3c-1.4,1.1,0.3,6.2,0.7,9.9c-0.5-0.1-1.8-0.5-3.5-1c2.3,5.8,4.5,11.3,6.6,16.5c-7.3,3.4,2.7,9.7-0.8,14.4
		c-2.2,0.6-4.4,1.2-9.6,2.7c4.7,2.5,7.2,4,9.8,5c1.3,0.5,2.9,0.1,4.6,1.5c-3.8,1-7.6,2-12.5,3.4c2.1,1,3.8,1.5,5.1,2.4
		c3.6,2.4,10.6,0.7,10,8.4c-0.1,0.6,2.7,1.8,4.3,2.2c3.7,0.8,7.4,1.3,11.2,1.8c5.4,0.7,9-3.7,8.1-10.2c10.6,0,21.2,0,34.5,0
		c-4.6,5.5-8.4,9.4-11.5,13.9c-2.1,3-12.2,6.5-1.4,9.5c-8.9,4.2-18.2,8.5-27.5,12.9c0.3,0.8,0.7,1.7,1,2.5
		c26.2-3.3,52.4-6.6,77.3-9.8c-2.5-1.2-6.2-2.9-10-4.7c2.9-1.8,5.3-3.3,7.7-4.7c-1.8-1.9-3.5-3.9-5.4-5.7
		c-6.3-5.7-16.9-10.7-17.9-17.1c-1.1-7.4-12.7-7.9-8.7-17c0.5-1.2-7.2-5.9-12.7-10.2c8.3,0,15.8,0,23.3,0c0,0.5,0,1,0.1,1.5
		c-3.4,0-6.9,0-10.3,0c0,0.3,0,0.6,0,0.8c12.2,2,24.4,4,36.6,6c0,0.5-0.1,0.9-0.1,1.4c-2.7,0.5-5.4,1-8.1,1.5
		c-0.1,0.8-0.2,1.5-0.2,2.3c10,1.8,20,3.5,31.9,5.6c-7,0-12.3,0-17.5,0c0,0.5-0.1,1.1-0.1,1.6c2.4,0.2,4.9,0.5,7.3,0.7
		c0,0.4-0.1,0.7-0.1,1.1c-4.2,0.3-8.3,0.6-12.5,0.8c0,0.6,0.1,1.2,0.1,1.8c10.8-0.8,21.6-1.7,32.4-2.5c0,0.4,0.1,0.9,0.1,1.3
		c-3.2,1.1-6.4,2.2-10.6,3.6c3.4,0.4,5.9,0.6,9.6,1c-2.4,1-3.9,1.7-5.8,2.5c3.7,1.1,7.1,2.1,10.9,3.3c-1.8,0.6-3.4,1.1-6.2,2.1
		c7.7,2.8,14.3,5.2,20.8,7.6c0.1,0.4,0.2,0.7,0.3,1.1c-6,0-12,0-20.1,0c5.5,3.3,8.7,5.2,11.3,6.8c-3.5,1.7-7.2,3.5-12.2,5.9
		c3.9,1,6.7,1.9,9.5,2.5s5.6,1,8.3,3c-2.5,0.4-5,0.9-6.9,1.2c19.1,0,38.7,0,58.3,0c0-0.6,0-1.3,0-1.9c-4-0.2-8.1-0.4-12.4-0.7
		c4.4-2,8.6-3.9,12.4-5.7c-12.6-2.3-25.2-4.6-37.7-6.8c0.1-0.5,0.2-1.1,0.2-1.6c4.4,0.6,8.9,1.2,13.8,1.9c-1.3-2.6-2.3-4.6-4-8
		c4.3-1.2,8-2.2,11.7-3.2c0.1,0.5,0.3,1,0.4,1.5c-1.5,0.5-3,1-6.3,2.2c5.2,0.3,8.3,0.4,11.4,0.6c0,0.4,0,0.7,0,1.1
		c-3.6,0.3-7.3,0.5-10.9,0.8c0,0.3,0,0.7,0,1c2.5,0.2,5,0.5,7.5,0.7c0,0.3,0.1,0.6,0.1,0.8c-2,0.4-4,0.9-6,1.3
		c0.1,0.4,0.1,0.9,0.2,1.3c10.7-0.8,21.4-1.5,32.1-2.3c0.1,0.6,0.1,1.1,0.2,1.7c-3,0.2-6,0.4-9.6,0.7c0.7,2.8,1.5,5.6,2.7,10.2
		c17.8-0.9,35.9-1.9,54.1-2.8c0.2,0.6,0.4,1.2,0.5,1.8c-4.1,1-8.2,2.5-12.4,2.9c-5.6,0.5-11.3,0.1-17,0.1c-5.3,0-11.1-0.6-8.1,8
		c0.4,1.3-0.9,3.1-1.6,5.4c8.3,0,16,0,23.6,0c0.1,0.5,0.2,1.1,0.2,1.6c-6.3,0.5-12.6,1-18.9,1.5c0.3,0.4,0.7,0.9,1,1.3
		c-4.7,3.2-9.4,6.3-14.7,9.9c2.5,0.6,4.1,0.9,8.2,1.9c-5.1,0.5-7.7,0.8-9.4,1c1.4,2.5,4.9,6.7,4.2,7.5c-2.3,2.8-5.9,5.6-9.3,6.2
		c-6,1-12.3,0.3-20.2,0.3c9.1,4.9,19.3-3.1,25.9,6.4c-3.8,1.1-7.1,2-11.7,3.4c2.6,0.7,4,1.1,5.2,1.5c-7,9.3-13,19.1-12,31.9
		c0.9-2.2,1.8-4.4,2.9-7c2.2,1.2,4.8,2.6,7.8,4.2c-8,6.5-22.5,3.6-24.8,18c1.3,0.4,3.2,0.9,4.7,1.3c-3.4,1.4-7,2.8-8.9,3.6
		c2.3,4.2,4,7.3,6.2,11.3c-6.2,0.8-11.4,1.4-18.5,2.3c4.8,2.7,8.5,4.8,11.8,6.7c-2.7,1.3-6,3-9.8,4.9c1.4,0.6,2.4,1,3.5,1.5
		c-2.4,1.8-4.8,3.6-5.5,4.1c17.6-0.9,36.7,0,55.1-3.4c11.5-2.1,22.7-9.3,32.3-16.6c10.6-8,19.1-18.8,28.6-28.2
		c8.3-8.2,17.3-15.8,25.1-24.5c7.1-7.9,12.8-17,19.5-25.3c1.1-1.3,4.3-0.9,6.6-1.3c5.6-1,11.2-2,16.7-2.9c0.3-0.9,0.6-1.9,1-2.8
		c1.1,2.6,2.3,5.1,3.7,8.4c-3.6,0.7-6,1.1-8.4,1.5c0,0.4,0,0.8-0.1,1.2c5.1,0.9,10.3,1.8,15.2,2.6c-1.2,0.7-3.6,1.4-3.9,2.6
		c-1.8,6.7-5.4,3.5-9.3,2.4c-3.5-1-7.4-0.5-11.1-0.7c0.2,1.1,0.4,2.1,0.7,3.2c-6.1,0.7-12.6,1.5-19,2.3c0.1,0.5,0.2,1,0.3,1.5
		c7.9-0.5,15.8-1,23.7-1.5c0.7,0.7,1.4,1.4,2.1,2.1c-4.5,2.3-8.8,7.6-12.6,1.5c-3.8,2-7.1,3.8-10.5,5.5c-0.4-0.9-0.6-2.5-1.3-2.7
		c-1.4-0.4-3.5-0.8-4.4-0.1c-1.5,1.3-2.4,3.4-3.7,5.3c4.9,0.3,9.8,0,14.2,1.1c7.3,1.9,14.4,4.8,22.3,7.5c-7.1,7.4-7.1,7.4-25.4,10.3
		c5.7,0,11.4,0,17.1,0c0,1.2,0.1,2.3,0.1,3.5c-7.9,0-15.8,0.5-23.7-0.1c-7.5-0.6-13.2,1-16.6,8.8c27.8,8.7,56.7,4.5,85.1,7.1
		c-4.7,0-9.3,0-16.8,0c3.3,1.9,4.3,2.4,4.4,2.5c-2,2.9-4.1,5.9-6.8,9.7c11.4,0.7,21.8,1.4,32.3,2.1c0,0.6-0.1,1.2-0.1,1.9
		c-4.2,0.2-8.5,0.5-12.7,0.7c0,0.4,0,0.8,0,1.2c4.7,0,9.3,0,14,0c0,0.5,0.1,1,0.1,1.5c-3.4,0.3-6.7,0.7-10.1,1
		c0,0.4,0.1,0.8,0.1,1.2c8.1,0,16.2,0,26.8,0c-5.5-1.7-8.7-2.7-13.4-4.2c6-2.3,14,1.5,13.9-7.8c0-0.1,3.8-0.2,5.9-0.5
		c8.3-1.2,17.9-0.2,24.7-4c11.8-6.7,20.2-1,29.8,3.6c2.3,1.1,5.4,0.4,8.1,0.5c5.7,0.3,8.9,3.9,6.6,7.7c1.6,5.6,16.3-0.5,10.9,12
		c3.8,0,7.6,0,11.4,0c0.1,0.6,0.2,1.3,0.3,1.9c-2.1,0.9-4.2,1.8-7.1,3.1c4.1,0.3,7.2,0.5,13,0.8c-5,1.1-7.4,1.6-9.8,2.2
		c0,0.5,0,1,0,1.5c5.1,0.4,10.2,0.8,17.2,1.4c-3.1,1.3-4.3,1.9-6.6,2.9c3.3,0.4,5.5,0.6,6.5,0.7c0.8,2.8,1.7,4.9,1.9,7.1
		c0.3,2.9,9.4,3.8-0.8,9.5c16.5-6.4,16.2,12.2,26.5,13.3c-8.6,0.9-17.2,1.9-25.9,2.8c0,0.5,0,1,0,1.5c2.2,0,4.5-0.3,6.7,0.1
		c2,0.3,3.8,1.4,5.7,2.2v-0.1c-8.6,2.8-15.7,1-21-7.5c5.6,0,11.3,0,17.2,0c-0.2-1.4-0.1-2.3-0.4-2.4c-5.7-3-11.8-4.6-17.5-8.3
		c-7.3-4.6-17.8-3.9-27.1-5.6c5.1,0,10.4,0,15.7,0c0.1-0.6,0.2-1.2,0.3-1.8c-2.8-1-5.5-1.9-8.4-2.9c0.6-1.2,1.2-2.5,1.1-2.1
		c-15.1-14.9-30.8-28.3-53.9-26.6c1.8-0.5,3.7-1.1,5.5-1.6c-0.1-0.5-0.2-0.9-0.3-1.4c-29.9,2.9-59.7,5.7-89.6,8.6
		c-0.2-1-0.5-2-0.7-3c5.3-2.2,10.7-4.4,16-6.6c0.1-0.5,0.2-0.9,0.3-1.4c-15.8,0-31.6,0-47.4,0c0-0.8,0-1.6,0-2.5c4.9,0,9.9,0,14.8,0
		c0.1-0.9,0.1-1.8,0.2-2.8c-11.6,0-23.1,0-34.7,0c0-1.3,0-2.5,0-3.8c12.6,0,25.1,0,37.7,0c0-1,0-1.9-0.1-2.9
		c-8-0.5-17.2-3.7-23.7-0.8c-6.6,3-11.8,2.2-17.5,0.9c-5.1-1.1-9.9-3.4-14.3-5c-3.6,3.9-6.9,7.4-11,11.7c7.8,0,15.3,0,22.7,0
		c0.3,1,0.6,2,0.9,3c-2.4,0.9-4.9,2.8-7.2,2.6c-5.3-0.5-10.6-3.2-15.6-2.6c-5.5,0.6-10.7,3.9-16.5,6.2c3.8,9.9,13.1,3.7,20.6,6.6
		c-2.9,0.7-4.8,1.1-6.8,1.6c0.1,0.5,0.2,1,0.3,1.5c4.6-0.7,9.1-1.4,13.7-2.1c0-0.8,0.1-1.6,0.1-2.4c-4.6-1.3-9.2-2.6-13.9-4
		c0-0.4-0.1-0.8-0.1-1.2c2.9,0.2,5.8,0.3,8.6,0.7c3.2,0.5,6.3,1.2,9.7,1.9c1.9,3.5-3.4,11.2,5.2,11.8c4.9,0.3,9.9-1,14.9-1.6
		c0.2,0.9,0.4,1.9,0.7,2.8c-5.6,1.4-11.2,2.6-16.7,4.4c-4.6,1.5-8.9,3.8-13.8,5.9c2.2,1,4,1.8,5.9,2.7c-0.1,0.5-0.3,1.1-0.4,1.6
		c-1.5-0.1-3-0.2-3.4-0.2c0,3.6,0,7.3,0,11.3c8.5,0,17.7,0,26.8,0c0-0.4,0-0.9,0-1.3c-7.1-0.4-14.3-0.9-21.4-1.3
		c0-0.7,0.1-1.5,0.1-2.2c9.6,0,19.1,0,28.7,0c0-0.9,0-1.8,0-2.6c-8.5,0-16.9,0-26.5,0c2.3-1.7,3.8-2.9,6-4.5
		c-2.6-0.3-4.7-0.6-7.6-0.9c1.2-0.9,1.8-1.7,2.3-1.7c3.9,0.1,8.4-0.9,11.4,0.8c4.2,2.5,9.5,3.2,12.2-0.5c1.8-2.5,7.8-3,11.8-2.4
		c9.2,1.4,18.5,3.6,27.6,2.9c19.7-1.5,38.8,2.3,58,5c2.8,0.4,5.1,5.4,8.7,0.5c0.4-0.6,5.7,2.3,10.4,4.4c-6.2,2.8-10.5,4.8-15.7,7.2
		c6.2,1.1,11.6,2.1,16.9,3c0,0.2,0,0.3,0,0.5c-15.3,0-30.7,0-46,0c0-0.3,0-0.5-0.1-0.8c7.8-0.4,15.6-0.9,23.4-1.3c0-0.8,0-1.7,0-2.5
		c-10.6-0.8-21.2-1.7-31.8-2.5c-0.1,0.5-0.2,0.9-0.3,1.4c1.8,0.5,3.6,1,6.7,1.9c-3.4,0.5-5.5,0.8-8.3,1.2c1.5,1.6,2.6,2.9,3.8,4.2
		c-0.9,0.5-2,1.1-3.3,1.8c1.5,0.6,2.8,1,4.3,1.6c-1.7,1.2-3.1,2.1-5.9,4.1c6.8,0,11.2,0,15.7,0c0.1,0.5,0.1,1.1,0.2,1.6
		c-3.2,0.3-6.4,0.7-9.5,1c9.5,5.6,18.2,6,29.1,2c2.4-0.9,5.3-0.6,7.9-0.6c14.4,0,28.7,0,43.2-1.2c-4.7,0-9.5,0-14.2,0
		c6.4-1.8,13-7.9,19.3,0.3c1.2,1.5,5.5,0.8,8.4,0.9c6.8,0.1,13.6,0,20.5,1.7c-7.8,0-15.5,0-24.2,0c1.3,1.8,2,2.7,2.6,3.5
		c-15.4-1.2-30.8-2.5-46.2-3.7c-0.2,0.5-0.3,0.9-0.5,1.4c0.8,0.4,1.5,0.8,4,2.1c-9.1,0-16.5,0-23.9,0c0,0.5,0,1.1,0,1.6
		c2,0.4,4.1,0.7,6.1,1.1c0,0.3-0.1,0.5-0.1,0.8c-6.9,0.6-13.9,1.3-21.1,2c0.9-1.8,1.5-3.2,2.1-4.4c-17.7-1.6-35.1-3.3-52.5-4.9
		c-0.1,0.7-0.1,1.4-0.2,2.2c10.8,1.2,21.6,2.4,33.8,3.8c-6,3.5-10.7,6.1-15,8.6c2,0.2,4.9,0.5,7.8,0.8c0,0.3,0,0.7,0,1
		c-4.2,0.2-8.3,0.4-12.5,0.6c0,0.4,0,0.7-0.1,1.1c3.3,0.2,6.6,0.5,9.9,0.7c0,0.5,0,1,0,1.5c-3.4,0-6.8,0-10.7,0
		c2.2,9.3,8.3,1.7,12.2,3.2c4.9,1.9,10.6,1.9,16,2.5c5.2,0.6,10.4,1,15.6,1.2c5.3,0.2,10.6,0,15.9,1.9c-6.6,0-13.2-0.2-19.8,0.1
		c-5.2,0.2-10.5,1.5-15.7,1.4c-3.1,0-6.1-1.7-8.7-2.5c-12.4-1.1-24.7-2.1-37-3.2c-0.1,0.7-0.2,1.4-0.3,2.1
		c5.8,0.4,11.7,0.8,17.5,1.3c0,0.9,0,1.7-0.1,2.6c-5.9,0-11.8,0-19.8,0c5.6,7.9,11.3,4.5,16.4,4.5c5.5-0.1,10.9,0.6,16.7,1
		c-2.3,12.8,8.7,6.2,13.8,10.2c-5.8,1-11.1,2-16.8,3c5,4.6,9.2,1.1,14.2-0.4c5.1-1.5,11-0.3,16.6-1.7c-1.8-0.3-3.7-0.7-5.6-1.1
		c18.7-8.1,17.5-3.3,48,1.2c-12.8-0.7-25.6-1.3-38.4-2c-0.2,0.7-0.5,1.4-0.7,2.2c2.5,1.3,5.1,2.5,6.9,3.4c-4.6,1.4-9.7,3.7-15,4.4
		c-6,0.8-12.2,0.4-18.3,0.1c-3.5-0.1-6.9-1.3-10.4-1.3c-5.9,0-11.7,0.6-17.6,1c0.1,1.3,0.1,2.6,0.2,3.9c9.3-0.5,18.5-1.2,27.8-1.5
		c10.5-0.3,21-0.2,31.5-0.2c10.2,0,20.4,0,30.6,0c0.4-8,4.7-8.8,25-5.3c-2.7,0-5.4,0-8.1,0c-2.9,0-5.9,0-8.8,0c0,0.6,0,1.2-0.1,1.8
		c6.4,0,12.8-0.3,19.2,0.1c6.4,0.4,12.8,1.6,19.2,2.9c-39.7,3.1-79.5,7.1-119.7,3.3c1.7,0.6,3.4,1.2,5.7,2
		c-10.7,10.7-21.6-4.6-31.7,1.7c0.2,0.1,0.8,0.6,1.5,0.7c1.1,0.2,2.3,0.2,2.7,0.2c-0.7,1.8-1.5,3.6-2.8,6.6c0.3,0-1.5-0.2-4-0.5
		c1.4,3.9,2.7,7.6,4,11.4c-1.7,0.2-3.7,0.4-5.9,0.6c0.3,0.6,0.4,1.2,0.7,1.3c7.8,3.5,15.2,2.9,22.7-2c-2.6-1.3-4.8-2.1-6.7-3.4
		c-2-1.3-3.7-3-5.6-4.5c9.2-10.7,21.3,0.4,32.6-3.4c-2.1-0.4-3.4-0.7-4.8-0.9s-2.8-0.2-4.8-0.3c0.6-0.8,0.9-1.4,1.1-1.4
		c25.3-1.9,50.6-3.7,75.9-5.5c2.9-0.2,5.9,0,8.9,1.3c-4.5,0-9.1,0-13.6,0c-0.1,1.1-0.3,2.2-0.4,3.3c7.5,1.1,15.1,2.2,22.6,3.3
		c0.1-0.8,0.2-1.6,0.3-2.4c-3.4,0-6.8,0-10.3,0c0-0.3,0-0.6-0.1-0.9c3.5-1,7-2.3,10.6-2.7c2.8-0.3,5.8,0.4,8.6,1.2
		c3.5,1,6.8,2.6,9.9,5.4c-6.9,0.5-13.8,0.9-20.7,1.4c0,0.7,0.1,1.4,0.1,2.2c1.9,0.3,3.8,0.6,6.4,1c-20.8,0-40.8,0-60.8,0
		c-0.7-1.1-1.4-2.2-2.1-3.4c1.7-0.7,3.4-1.4,5.1-2c-0.1-0.4-0.1-0.8-0.2-1.2c-7.3,1.2-14.5,2.4-21.8,3.6c0.1,0.7,0.1,1.4,0.2,2
		c3.8,0.3,7.6,0.7,12.7,1.1c-1.7,2.4-2.7,3.7-3.3,4.7c6.1,0.7,11.8,1.4,17.6,2.1c-0.7,0.5-1.3,1-2,1.6c-9.2,0.2-18.4,0.3-27.7,0.5
		c0.1,0.9,0.1,1.8,0.2,2.7c4.9,0.9,9.7,1.9,14.6,2.6c5,0.7,10.1,1,15.1,1.5l-0.3-0.2c-1.1,1.2-2.2,2.4-4.6,5.1
		c13.8,1.3,26.4,2.5,40.5,3.9c-3.1,1.9-4.7,2.8-7.2,4.3c9.7,3.4,21.2-1,28.1,9.9c-4.1,0-7.3,0-12.8,0c3.5-1.1,4.9-1.6,8.3-2.7
		c-5.1-0.8-8.2-1.6-11.4-1.7c-10.1-0.4-20.2-0.6-30.3-0.6c-1.5,0-4.4,1.6-4.3,2.2c1.8,12.6-8.7,6.6-11.4,8c-1.2,3.8-1.9,6-2.7,8.5
		c18.2,1.9,36.3,3.9,56.3,6c-3.6,2.1-5.5,3.2-8.9,5.1c14.2,1.8,28.5-3.1,39.3,7.9L642.1,729.5z M446.3,650c8.6,0,17.3,0,26.6,0
		c-3-0.7-5.9-0.7-7.7-2C455.2,640.3,455.3,640.2,446.3,650c-0.5-1.6-1.1-3.2-1.6-4.8c-0.5-1.4-0.9-4.1-1.3-4.1
		c-1.9,0-3.9,0.6-5.7,1.3c-1.3,0.5-2.4,1.6-3.8,2.6c1.8,0.4,3.5,0.7,5.5,1.1c-1.9,1.5-3.6,2.8-4.9,3.8c2,1.5,3.9,2.9,5.5,4.1
		C442,652.5,444.2,651.3,446.3,650z M210.2,725.4c-4.6,1.2-9.3,2.4-14.5,3.8c9.2,6.1,16.6-1.2,24.6-2.8c-3.4-0.3-6.8-0.5-10.3-0.8
		c-0.7-1-1.3-2.9-2-3c-4.3-0.3-8.7-0.1-13.1-0.1c0-0.4-0.1-0.8-0.1-1.2c2.4-0.5,4.7-1,9-2c-10.6,0-19.2,0-27.8,0
		c0,0.3,0,0.6-0.1,0.9c3.4,0.3,6.9,0.5,10.3,0.8c0,0.3-0.1,0.7-0.1,1c-2.8,0.3-5.6,0.7-8.4,1c0.1,0.2,0.1,0.3,0.2,0.5
		C188.5,724.1,199.3,724.8,210.2,725.4z M489.1,948.5c1.5-1.3,3-2.6,4.7-4c-5.5-0.3-10.4-0.6-15.4-0.9c-0.1-0.3-0.3-0.5-0.4-0.8
		s0-0.8,0-0.8c11.8-1.7,23.6-3.7,35.5-4.8c3.1-0.3,6.5,2.1,9.7,3.2c0.5-0.7,1-1.4,1.5-2.1c-2.4-2.3-4.8-4.6-6.7-6.3
		c0.8-0.3,3-1.2,5.2-2c-6.1-1.8-11.9-1.7-17.7-1.8c-1.5,0-2.9-0.6-4.4-1c1.1-1.3,2.2-2.7,3.3-3.9c-0.9-0.3-2.4-0.8-4.8-1.5
		c8.8-0.9,16.5-1.7,24.1-2.5c-0.1-0.8-0.2-1.7-0.3-2.5c-7,0.8-13.9,1.5-20.9,2.4c-2.8,0.4-7.6-1.5-5.9,4.7c-5.8,0.4-11.6,0.8-17.4,1
		c-1.1,0-2.3-1.3-3.4-1.3c-9.1,0.3-18.3,0.7-27.4,1.1c4.9-0.9,9.8-1.8,14.6-2.8c0-0.4,0.1-0.8,0.1-1.2c-9.6,0-19.2,0-28.9,0
		c0-0.3,0.1-0.7,0.1-1c7.1-1,14.2-1.9,21.3-2.9c-0.1-0.5-0.1-1.1-0.2-1.6c-17.5,1.8-34.9,3.6-52.4,5.4c0.1,0.6,0.1,1.2,0.2,1.8
		c2.7,0.3,5.4,0.6,8,0.9c0,0.3,0,0.6,0,0.9c-1.9,0.3-3.9,0.6-6.6,1c3.9,1.4,7,2.6,11.2,4.2c-12.1,0-22.7,0-35.1,0
		c14.9,9.4,22.7,9.9,24.2,4.5c13.7-0.7,26.8-1.4,39.9-2c3.8,2.1,7.7,4.2,12.6,7c-16.8,0-32.5,0-48.3,0c0,0.9,0,1.7-0.1,2.6
		c23,1.6,45.8,5,69,2.2c-6.2,1.2-12.3,2.5-18.5,3.7c4.6,1,9.3,0.6,13.9,0.6C479,947.8,484,948.2,489.1,948.5
		c6.9,0.3,13.6,0.8,20.4,0.8c2,0,4.7-2.8,5.7-2.1c5.3,3.2,9.1,2,12.5-3.3c-9.7,0-19,0-28.3,0c0,0.5,0,1,0,1.6
		c2.8,0.4,5.5,0.7,8.3,1.1c-0.1,0.3-0.1,0.5-0.2,0.8C501.4,947.7,495.3,948.1,489.1,948.5z M334.5,681.1c-5.2-1.1-10.8-3.3-14,2
		c-8.2-0.8-16.4-1.5-24.6-2.3c-0.1,0.8-0.1,1.6-0.2,2.4c5.2,0,10.4,0,15.6,0c0,0.4,0,0.9,0,1.3c-4.6,0.2-9.3,0.5-13.9,0.7
		c0.1,0.7,0.1,1.4,0.2,2.1c11.7-0.8,23.4-1.6,35-2.4c3.5,1.4,7,2.7,12.4,4.8c-7.4,0-12.8,0-18.3,0c0,0.8,0,1.6,0,2.4
		c7.6,0.6,15.1,1.2,22.7,1.8c0.2-0.9,0.3-1.7,0.5-2.6c-1.3-0.7-2.6-1.4-4.7-2.5c2.7-1.4,4.4-2.4,6.5-3.5c-2.5-0.3-4.7-0.6-8.5-1.2
		c3.2-0.9,4.8-1.4,7-2c-2.2-0.7-3.8-1.1-5.8-1.7c3.5-1,6.4-1.9,9.3-2.7c-0.4-1.1-0.7-2.1-1.1-3.2
		C346.5,676.7,340.5,678.9,334.5,681.1z M514.9,1027.9c6.4-2,12.9-4.1,19.3-6.1c-0.3-0.9-0.5-1.7-0.8-2.6c-7.8,0-15.7,0.4-23.5-0.1
		c-4.9-0.3-11.4,3.3-14.1-4.6c-0.3-0.7-3.9-0.6-5.9-0.4c-4.7,0.4-9.3,1.6-13.9,1.5c-7.3-0.2-14.5-1.1-21.8-1.7
		c-0.1,0.7-0.2,1.3-0.2,2c21.8,2,43.6,3.9,65.5,5.9c-1.7,2.6-3.1,4.5-4.4,6.5c-9,0.5-18,0.9-27,1.4c0,0.7,0,1.4,0,2.1
		c13,0.7,25.9,1.4,39.2,2.2C522.8,1031.6,518.8,1029.8,514.9,1027.9z M428.3,732.4c-2.3-0.6-4.5-1.2-6.8-1.7c1.9-1.2,3.7-2.3,6-3.7
		c-7.5-1.4-14.1-2.7-20.8-3.9c0.1-0.8,0.3-1.6,0.4-2.4c4.1,0.5,8.1,1,13.5,1.7c-0.3-3.6-0.3-6.8-1.1-9.8c-0.1-0.5-3.8-0.6-5.7-0.1
		c-3.7,0.9-7.4,3.5-11,3.3c-6-0.2-12-2-18-3.2c-0.1,0.7-0.2,1.5-0.3,2.2c3.6,0.3,7.2,0.6,10.8,0.9c0,0.4,0,0.7,0,1.1
		c-3.9,0.2-7.7,0.4-11.6,0.6c-0.1,0.6-0.1,1.1-0.2,1.7c2.4,0.8,4.7,1.7,7,2.5c-1.5,1.3-2.7,2.4-3.9,3.5
		C399.4,735.9,414.7,729.7,428.3,732.4c-3.5,0.8-7,2.2-10.5,2.1c-5.1-0.1-10.2-1.2-15.3-1.8c3.7,4.7,8.1,7.7,12.5,10.5
		c4.7,3,9.4,6,13.4,8.6c-3.6,1.3-7.5,2.8-11.4,4.3c0.2,0.6,0.4,1.2,0.6,1.8c6.8,1.7,13.6,3.4,20.8,5.2c-2.3,0.5-4.4,0.9-6.5,1.4
		c0.1,0.7,0.2,1.4,0.3,2.1c6.5-0.8,13-1.5,21.9-2.6c-11.1-4.7-14.1-8.8-12.2-14c-3.3-0.9-6.5-1.9-10-2.9c1.1-0.9,1.9-1.7,4.1-3.5
		c-6.2,0-10.8,0-15.5,0c0-0.3,0-0.7,0.1-1c2.8-0.3,5.7-0.6,10.8-1.1c-7.1-1.3-11.9-2.2-16.8-3.1c0-0.4,0.1-0.8,0.1-1.1
		c5.2,0,10.4,0,16.2,0C429.8,734.9,429.2,733.6,428.3,732.4z M305.2,731.9c4.3-1.2,8.5-2.4,12.8-3.6c0.1-0.7,0.2-1.5,0.4-2.2
		c-6.3-0.5-12.6-1-21.5-1.7c4.1,3.5,6.3,5.4,8.5,7.3c0.6,3.2,1.2,6.3,1.9,9.5c-5.2,1-10.5,2-15.7,3c0,0.3,0,0.6,0.1,0.9
		c8.7,0,17.4,0,26.1,0c0.2,0.9,0.3,1.8,0.5,2.7c-2.7,1-5.3,2.4-8.1,3c-2.4,0.5-5,0.1-7.5,0.1c0,0.5,0,1,0,1.6
		c3.5,0.2,7.1,0.4,12.9,0.8c-5.4,1.8-8.5,2.9-12.7,4.3c15.7,4.2,13.9,24.2,28.7,28.4c-0.5,0.3-1.1,0.5-1.5,0.8s-0.6,0.8-1.2,1.6
		c13.2,1.1,25.5,2.2,37.9,3.2c0.1-0.8,0.1-1.6,0.2-2.4c-3.4-0.7-6.8-1.3-10.2-2c0.1-0.6,0.2-1.3,0.3-1.9c4.4-0.2,8.8-0.5,13.2-0.7
		c0-0.5,0-1,0-1.5c-3.6,0-7.1,0-9.9,0c1.1-1.6,3.1-3.1,3-4.6c-0.2-8,5.1-8,10.7-7.9c7.1,0.1,14.3,0,20.9,0c-1.4-2.7-2.4-4.7-3.6-7.1
		c-8.8,2.1-18.2,4.4-25.3,6.1c-1.1-6-0.5-11.6-2.9-13.6c-4.1-3.5-10.1-4.8-15.3-7c8.1,3.3,17.5-7.3,27.3,2.8c-4.8,0-7.8,0-10.9,0
		c0,0.3,0,0.6,0.1,0.9c7.2,1.9,14.3,3.7,21.5,5.6c-0.1,0.5-0.3,0.9-0.4,1.4c-3.7,0.2-7.5,0.4-11.2,0.7c0,0.6,0,1.3,0,1.9
		c14.3,0,28.6,0,43.7,0c-5-1.1-9.3-2.1-13.5-3.1c2.3-1,4.8-2.2,8.5-3.8c-12.2-1-22.7-1.9-33.3-2.9c0-0.5,0-1,0.1-1.5
		c3.7,0,7.4,0,11,0c0.4-0.7,0.9-1.3,1.3-2c-2.7-2.8-5.4-5.6-8-8.5c-2.5-2.9-4.8-5.9-7.2-8.8c0.6-0.7,1.1-1.5,1.7-2.2
		c-3.9,1-7.8,2.1-13.7,3.6c5.7,4.2,9.8,7.1,13.8,10c-5.2-0.3-10.5-0.3-15.7-1.2c-1.4-0.2-2.3-3.2-3.5-4.9c1-0.3,1.9-0.6,3.9-1.2
		c-3.6-1.4-6-2.4-8.4-3.3c0.8-0.2,1.7-0.4,2.5-0.6c-1.3-4.7-2.6-9.4-4.2-15c-0.1,0.1,1.8-1.1,2.2-1.4c0-1.9,0-3,0-4.1
		c0-1.9,0-3.9,0-5.8c-5.3,1.3-11.7-6.3-16.2,2.3c3.3,1.3,6.5,2.5,9.7,3.7c-14.5-3.1-27.8,2-41.2,5.7c4.4,0,8.8,0,13.1,0
		c0,0.4,0,0.9,0,1.3c-1.9,0.8-3.9,1.5-7.5,3c10.3,0,18.4,0,26.5,0c0,0.2,0,0.5,0.1,0.7c-3.2,0.2-6.4,0.4-9.6,0.5
		c0,0.6,0,1.3,0.1,1.9c4.1,0,8.2,0,14.3,0c-2.8,1.8-3.7,2.9-4.7,3C328.3,729.1,316.7,730.5,305.2,731.9z M250,403.9
		c-0.2,0.7-0.4,1.9-0.6,1.9c-2.8,0.1-5.7,0.1-8.5,0.1c0-3.5,0-6,0-10.1c-4.2,1.6-7.4,2.8-10.1,3.8c-2.8-1.4-7.7-4.6-8.2-4.1
		c-5.6,6.7-12.9,1.7-19.1,3.2c-3,0.8-7.3,0.5-8.9,2.5c-5.3,6.5-11.6,9.2-19.7,8.4c-0.3,0-0.8,0.6-1.2,0.9c0.9,0.5,1.8,1.1,2.8,1.6
		c-5.9,3.5-11.7,6.9-18.2,10.8c13.1,1.5,24.9,2.9,36.6,4.2c0,3.5,0,5.8,0,8c-11.9,1.7-23.5,3.4-35,5.1c0,0.2-0.1,0.5-0.1,0.7
		c3.6,0.3,7.1,0.6,12.8,1.1c-6.5,3.5-11.3,6-15.6,8.4c2.9,0,6.8-0.4,10.5,0.1c5.2,0.7,7.9-4.9,15-2.8c13.8,4,28.8,3.9,43.3,5.3
		c2.8,0.3,5.7,0,9.6,0c-1.5-1.7-2.4-2.6-3.4-3.7c3-0.7,5.9-1.5,8.9-2.2c0.4,0.8,0.8,1.6,1.1,2.4c-6.1,3.1-12.2,6.1-18.8,9.4
		c2.6,0.3,4.9,0.6,7.2,0.9c-5.9,4.7-12.2,8.7-19.1,10c-7.2,1.4-15,0.3-22.5,0.3c0,0.9,0,1.8,0,2.8c2.3,0.5,4.6,1,6.8,1.5
		c-13.6-4.1-20.5,5.4-29.2,14.1c8.3,0.4,15.5,0.8,25.3,1.3c-4.6,2.8-6.9,4.1-8.7,5.3c2.6,6.7,11.4-5.1,12.4,2.9
		c8.7,0.6,17.3,1.7,26,1.6c5.5-0.1,11.3-1.3,16.5-3.2c5.1-1.9,9.6-5.5,14-8.2c-0.7-0.5-2.2-1.7-5.3-4.1c8.9,1,17,6.4,22.8-2.7
		c-2.9-0.4-5.5-0.8-8.1-1.1c0-0.4,0.1-0.8,0.1-1.2c3.8,0,7.7,0,9.9,0c2.3-3.6,4-6.1,6.2-9.7c0,0.1-0.5-1.5-1.2-3.4
		c5.7,0,10.5,0,14.6,0c-3.8-1.3-8.1-2.8-12.4-4.3c0.2-0.7,0.5-1.5,0.7-2.2c11.6,0,23.2-0.1,34.9,0.1c5.1,0.1,5.1,0.3,5.1-3.7
		c-9.7,0.7-19.4,1.4-29.1,2c-0.1-0.8-0.1-1.5-0.2-2.3c4,0,8,0,12,0c0-0.4-0.1-0.8-0.1-1.2c-3.4-0.2-6.9-0.5-10.3-0.7
		c0-0.2,0-0.4,0.1-0.6c7.1-0.8,14.2-1.7,21.3-2.5c0-0.4-0.1-0.8-0.1-1.2c-3.5-1-7.1-2-11.9-3.4c3.4-0.6,5.1-1,8-1.5
		c-10.5-1.3-19.8-2.5-29.1-3.7c0.1-1.2,0.2-2.3,0.3-3.5c11.7,0,23.4,0,35.2,0c0-0.8-0.1-1.6-0.1-2.4c-8.3-1.6-18.6,2.7-25-9
		c11.7,0,22.2,0,32.7,0c0.3-0.7,0.7-1.4,1-2.1c-2-1.8-3.8-4-6.1-5.3c-2.8-1.6-6-2.6-9-3.6c-2.7-0.9-5.5-1.5-10.2-2.8
		c4.6-0.8,6.9-1.1,9.3-1.5c-6.4-0.5-13.4-3-19.3,4.3c-1.3-0.1-4-0.2-6.7-0.4c0-0.5,0.1-1.1,0.1-1.6c2-0.3,4-0.5,6.1-0.8
		c0.1-0.9,0.2-1.8,0.3-2.7c-4.7-0.9-9.4-1.8-14.6-2.7c1.4-2,2.5-3.5,3.9-5.6C267,401.8,257.2,393.2,250,403.9z M296.7,643.7
		c15.8,0,32.2,0,48.5,0c0,0.5,0,1.1,0,1.6c-10.2,0-20.3,0-30.5,0c0.1,1.2,0.2,2.5,0.2,3.7c12.3-1.1,24.6-2.6,36.9-3.1
		c13.3-0.5,26.7-0.1,40-0.1c0-0.5,0.1-0.9,0.1-1.4c-2.2-0.5-4.4-1-6.6-1.5c0-0.6,0-1.2,0-1.9c4-0.5,8-1,12.8-1.5
		c-6.7-5.1-12.5-9.6-18.3-14c3.7,0,8.3,0,12.8,0c-2.5-2.5-5.2-3.4-7.9-3.1c-8.6,0.9-17.1,2.8-25.7,3.4c-14.1,1-28.3,2-42.4,1.4
		c-5.7-0.2-10.5-1.1-14.4,3.7c-0.1,0.1-1.9-1.4-3.1-2.2c2.4-1.5,4.3-2.7,6.2-4c-0.1-0.7-0.2-1.4-0.3-2.1
		c-11.5,0.6-22.9,1.3-34.4,1.9c0,0.4,0,0.9,0,1.3c4,0,8.1,0,12.1,0c0,0.4,0,0.9,0.1,1.3c-3.6,0.3-7.3,0.6-11.2,0.9
		c6.1,4.3,17.2-2,18.5,9.3c6.1-0.3,11.7-0.6,17.3-0.9c0,0.5,0,1.1,0,1.6c-3,0.1-6,0.3-9,0.4c0.6,0.6,1.2,1.3,1.9,1.9
		C298.8,641.8,297.3,643.1,296.7,643.7z M387.8,838.6c-2.1,1.5-3.2,2.2-4.2,3c1.3,1.1,2.6,3.1,3.9,3.1c8.5,0.3,17.1,0.1,25.6,0.1
		c0-0.8,0-1.7,0.1-2.5c-2.5-0.1-5-0.3-8.6-0.5c2-1.3,3-1.9,4.1-2.6c-1.7-0.6-3.2-1-5-1.7c1.5-0.9,2.1-1.3,3.9-2.3
		c-20.6-1-39.6-2.1-58.6-2.8c-7.3-0.2-14.6,0-21.8,1.1c-13,1.9-26,4.5-39,6.7c-2.3,0.4-4.7,0.1-7,0.1c0,0.5,0,1.1,0,1.6
		c4.8,0,9.5,0,14.3,0c0.1,0.5,0.2,0.9,0.2,1.4c-2,1.1-4.1,2.2-6.3,3.5c6.6,0.8,12.9,1.5,20.5,2.4c-2.4-1.4-3.5-2.1-4.7-2.8
		c5.2-0.8,10,0.8,14.9,0.8c6.3,0,12.7-0.9,19-2c14-2.5,28.2,8.4,42.3-2.8c-14.9-1.8-29.7-3.6-44.6-5.4c0-0.5,0-0.9,0-1.4
		C353,836.6,369.7,837.6,387.8,838.6z M425.5,1054.9c0-0.6,0-1.1,0-1.7c-4.7,0-9.5,0-15.6,0c3-2.6,4.7-4.1,6.4-5.5
		c9.1,5.6,36.9,4.9,52.9-1.4c-7.1-1-13.3-1.6-20.4,0.2c-3.4,0.9-12.5,3.3-17-4c-0.8-1.3-5.3-0.2-9.2-0.2c2.4-2.2,3.8-3.5,6-5.5
		c-17.1,0.9-32.9,1.7-48.7,2.4c-15.7,0.8-31.4,1.5-47.1,2.3c0,0.2,0,0.3,0,0.5c16.2,1.3,32.4,2.7,49,4.1c-0.4,1.6-0.9,3-1.3,4.6
		c7.4,1.9,14.6-0.5,22.3,3.4C408.8,1057.4,417.8,1054.9,425.5,1054.9z M410.2,604.1c0-1.1,0.1-2.2,0.1-3.3
		c-10.2,0-20.4-0.7-30.5,0.2c-9.6,0.8-19.1,3.3-30.3,5.3c3,1.3,4.2,1.9,6.3,2.8c-7.7,1-14.5,1.8-21.3,2.7c0,0.5,0.1,1,0.1,1.5
		c6.1,0,12.2,0,18.2,0c0.3,1,0.6,1.9,1,2.9c-3.9,1.7-7.8,3.4-12.4,5.4c9.7,0.6,18.6,1.2,27.9,1.7c-1.2-0.8-2-1.4-4.2-3
		c6.6,0,11.5,0.6,16.1-0.2c4.5-0.8,8.7-3.2,13.1-4.7c1.4-0.5,3-0.8,4.3-0.4c7.8,2.1,11.2-0.9,10.8-10.8c-6,2.4-11.3,4.6-16.4,6.6
		c-0.3-2.1-0.7-4.3-1.1-6.9C398,604.1,404,604.1,410.2,604.1z M471.3,1059.2c13.1,0,25.4,0,37.9,0c7.5-6.2,18.3-3.4,28.1-4.5
		c0.1-1.1,0.2-2.1,0.2-3.2c-10.4-2.1-20.7-4.1-32.7-6.5c3.5,3.6,5.3,5.5,8.6,8.9c-28.2,0-54.8,0-81.4,0c-0.2,1-0.4,2.1-0.7,3.1
		c3.7,1.6,7.4,3.1,11.5,4.8c-1.3,1.6-3,3.5-5.1,6c10.5,0,20.7,0,30.8,0c0-0.7,0-1.4,0-2.2c-3.6,0-7.3,0-10.9,0c0-1,0-1.9,0-2.9
		c6.5,0,13,0,19.5,0c0.1-0.4,0.2-0.7,0.3-1.1C475.8,1061,474,1060.2,471.3,1059.2z M419.7,840.4c21,2.3,40.5,4.4,59.9,6.4
		c0.6-2.5,1.3-5.2,1.9-7.8c-12.6-0.9-24.8-1.7-36.9-2.6c0-0.5-0.1-1-0.1-1.5c1.9-0.9,3.8-1.9,7.2-3.5c-8.9-3.6-16.8-6.8-25-10.1
		c3.3-0.5,6.2-0.9,9-1.4c0-0.7,0.1-1.4,0.1-2.1c-8.4-1.3-16.8-2.7-24.9-4c-0.7,3.4-1.3,6.7-2,10.2c7.3,1,14.3,1.9,21.3,2.8
		c0,0.5,0,1,0,1.5c-3.7,1-7.3,2-11,3c0.1,0.4,0.3,0.8,0.4,1.2c2.4,0.3,4.8,0.7,7.2,1c0,0.6-0.1,1.2-0.1,1.8c-3.6,0-7.1,0-10.7,0
		c0,0.8-0.1,1.6-0.1,2.4c6.2,0.3,12.5,0.7,18.7,1c0,0.5,0,0.9,0,1.4C430,840.4,425.3,840.4,419.7,840.4z M466.8,964.2
		c0-0.7,0-1.3,0-2c-8.9-0.9-17.8-1.9-27.9-2.9c21.5,0,41.7,0,62.8,0c-2,0.7-3.4,1.2-4.7,1.7c0,0.5,0,1,0,1.6
		c10.1,0.5,20.3,1,29.8,1.5c-2.1-2.7-3.8-4.8-5.5-7c-2.1-2.8-3.7-4.1-8.3-3.3c-11.5,1.9-24,4.7-34.9,2c-8.7-2.2-17-1.7-25.5-2.7
		c-0.3,0-0.7,0.1-0.9-0.1c-0.4-0.3-0.7-0.7-1.1-1.1c1.2-0.4,2.3-0.9,5.2-1.9c-11.7,0-21.7,0-31.6,0c0,0.3,0,0.7,0,1
		c6.9,1.1,13.7,2.1,20.6,3.2c0.3,0.4,0.6,0.8,0.9,1.2c-7,0.9-13.9,1.8-19.7,2.5c2.1,3.6,3.6,6.1,4.6,7.9c4.6,0.6,9,1.2,16.1,2.1
		c-3.3-1.6-4.3-2-5.2-2.5c-0.1-0.1,0-0.6,0-0.9C449.8,964.2,458.3,964.2,466.8,964.2z M326,536.2c-0.1,0.6-0.1,1.1-0.2,1.7
		c3.4,0.2,6.8,0.5,10.2,0.7c0,0.5-0.1,1-0.1,1.5c-7,0-13.9,0-20.9,0c0,0.4-0.1,0.9-0.1,1.3c2.5,0.2,5,0.4,8,0.6
		c-2,1.4-3.7,2.5-5.3,3.6c0.1,0.7,0.3,1.4,0.4,2.1c6.6,0,13.3,0,19.9,0c0,0.6,0.1,1.3,0.1,1.9c-9.9,3.1-19.7,6.2-29.6,9.3
		c0.2,1.1,0.5,2.2,0.7,3.3c8.2-1.1,16.5-2,24.7-3.3c7.9-1.3,15.8-2.9,23.7-4.4c-1.3-0.3-2.6-0.5-3.9-0.8c0-0.3,0.1-0.6,0.1-0.9
		c3-0.3,6.1-0.6,9.1-0.9c0-0.3-0.1-0.6-0.1-0.8c-2.6-0.4-5.2-0.8-7.8-1.2c0-0.7,0-1.4,0-2c4.4-0.3,8.7-0.7,13.1-1
		c0-0.2-0.1-0.4-0.1-0.6c-12.3-0.7-24.6-1.4-36.9-2.1c0-0.8,0.1-1.6,0.1-2.4c5.6,0.3,11.3,1.3,16.8,0.7c5.1-0.5,9.9-2.7,14.9-4.2
		c-0.1-0.7-0.1-1.4-0.2-2.1C350.5,536.2,338.3,536.2,326,536.2z M446,1039.1c-0.1,0.6-0.2,1.2-0.3,1.8c11.7,0,23.4,0,35.1,0
		c0-0.6,0-1.2,0-1.8c-4-0.2-8.1-0.4-12.1-0.7c0.1-0.8,0.2-1.5,0.3-2.3c8.9,1.4,17.9,2.8,26.8,4.2c0-0.2,0.1-0.5,0.1-0.7
		c-1.4-0.5-2.8-1-4.2-1.5c0.1-0.5,0.2-0.9,0.2-1.4c18.4,0.9,36.8,1.7,55.2,2.6c0,0.6,0,1.2,0,1.9c-13,0-26,0-38.9,0
		c0,0.9,0.1,1.8,0.1,2.7c10-0.5,20-1.1,30-1.6c0,0.5,0.1,1,0.1,1.6c-1.8,1.1-3.7,2.2-5.5,3.3c8.8-3.5,17.7,7.3,25.1,2.4
		c-2.8-4.7-6.1-7.7-6.4-11c-0.5-5.1-2.3-6.9-7-6.8c-2,0.1-4-0.3-6-0.5c-0.3-0.8-0.5-1.7-0.8-2.5c3-1.3,6.1-2.6,9.1-3.8
		c-0.1-0.4-0.3-0.7-0.4-1.1c-6.3,1-12.7,2-20.1,3.1c10,2.9,10,2.9,9.1,9.1c-28.9,0-57.7,0-86.5,0c0,0.2-0.1,0.4-0.1,0.5
		c3,0.3,6,0.6,9,0.9c0,0.4,0,0.7,0,1.1C454,1038.8,450,1038.9,446,1039.1z M259.8,718c0-0.6,0.1-1.3,0.1-1.9
		c-6.5-0.3-13-0.6-19.5-0.9c0,0.3,0,0.6,0,1c3.5,1,7,1.9,10.5,2.9c-0.1,0.5-0.3,1.1-0.4,1.6c-7.7-0.7-15.3-1.4-24.1-2.2
		c4.9,3.4,8.6,5.9,12.9,8.9c-4.1,0.4-7.2,0.7-10.2,1c8.2,0,16.6,4.7,24.4-0.6c1.3-0.9,2.6-3.5,3.4-3.3c2.8,0.7,7.5-3.1,8.1,3.1
		c2.3-1.2,4.8-2.2,7-3.6c1.7-1.1,3.2-2.6,4.1-3.4c0.9,4.5,1.5,7.4,2.2,11.3c5.4-1.5,11.6-3.2,20-5.5c-4.2-2.7-6.9-5.5-10.1-6.3
		c-5.5-1.4-11.4-1.8-17.1-2.2c-2-0.1-4,1-6,1.7c-2.6,0.9-5.1,1.9-7.6,2.9c-0.3-0.8-0.6-1.7-0.9-2.5
		C257.7,719.3,258.8,718.6,259.8,718z M238,705c0.2,0.9,0.4,1.8,0.6,2.7c-3.1,1.1-6.3,2.1-9.4,3.2c3.5,0.6,7.5,1.5,9.7,0
		c4.7-3.3,7.4-4,11.6,1.1c1.8,2.2,7.5,1.2,11.4,1.7c0.2-0.7,0.3-1.5,0.5-2.2c-2.8-0.8-5.6-1.7-8.5-2.5c6.8-0.1,14.9-9,19.2,3.1
		c2-1.9,3.7-3.5,7.3-6.9c-15.6-1.4-28.9-2.6-42.1-3.8c0.1-0.8,0.1-1.5,0.2-2.3c7.6,0.5,15.3,1,22.9,1.4c0-0.9,0-1.9,0-2.8
		c-8.1,0-18.8-3.3-23.6,0.7c-9.7,7.9-19.6,5.7-29.6,6c-7.2,0.2-14.4-1.4-21.6-2.1c1-0.7,2-1.3,3.1-2c0.7,3,1.4,6.1,2.1,9.2
		c5.3-10.3,12.3,0.3,19-3.8c-1.8,2.6-2.5,3.6-3,4.3C218,708.2,228,706.6,238,705z M535.3,553.8c-17,2.3-32.7-5.6-47.7,5.1
		c7.5,0.4,14,0.8,20.5,1.2c0,0.3,0,0.7,0.1,1c-3.1,0.3-6.2,0.5-9.3,0.8c5.4,2.2,10.7,3.2,15.9,2.9c2.5-0.2,4.7-4.1,7.2-4.3
		c6.6-0.7,13.3-0.2,19.9-0.2c0-0.6,0.1-1.3,0.1-1.9c-2.4-0.3-4.9-0.6-7.3-0.9c0-0.3,0-0.6,0.1-0.9c5.9-0.5,11.9-0.9,17.8-1.4
		c0-0.8,0-1.5,0-2.3c-7.8-1-15.6-1.9-23.4-2.9c-0.1,0.6-0.1,1.3-0.2,1.9C530.3,552.3,531.8,552.7,535.3,553.8z M287.2,702.5
		c0.8,0.7,1.5,1.4,2.3,2.2c6.5,0,13,0,19.5,0c0.1-0.4,0.1-0.7,0.2-1.1c-5.4-0.8-10.9-1.5-16.3-2.3c0-0.9,0.1-1.7,0.1-2.6
		c7.8-0.7,15.5-1.4,20.9-1.9c2.1,2.7,3.1,5.3,4.7,5.6c5.1,1.3,10.3,1.8,15.5,2.4c1.6,0.2,4.2,0.1,4.6-0.8c3-5.5,7.3-5.3,12.5-4
		c1.1,0.3,2.9-2.1,4.7-3.5c-8.4-0.4-15.5-0.8-22.7-1.1c-13.2-0.6-26.5-1.5-39.7-1.2C291.3,694.3,289.3,699.6,287.2,702.5z
		 M600.8,861.2c0.2,0.5,0.5,1.1,0.7,1.6c6.1,0.8,12.1,1.9,18.2,2.4c2.5,0.2,5.2-0.2,7.7-0.9c9-2.5,17.8-5.6,26.8-7.7
		c4.3-1,9-0.2,13.5-0.2c0-1,0-2.1,0-3.1c-19.5,0-39.1,0-58.6,0c-0.1,0.6-0.2,1.2-0.3,1.8c6.3,0.7,12.5,1.3,18.3,2
		C618.7,858.5,609.8,859.9,600.8,861.2z M341.5,859.8c4.3,2.1,8.1,4,11.9,5.9c-1.9,2.6-3.8,5.3-6.5,9.1c5.6-2.2,10.1-5.5,14.6-5.4
		c6.4,0,13,3.6,17.6-3.9c0.9-1.4,2.2-2.8,3.6-3.5c1.6-0.7,3.7-0.5,5.5-0.7c0-0.5-0.1-1-0.1-1.5C373,859.8,357.7,859.8,341.5,859.8z
		 M481,906.2c7.1,0.6,14.2,1.1,21.4,1.7c0.3,0.9,0.5,1.7,0.8,2.6c-6.7,2.2-13.4,4.4-22.4,7.4c14.7-1,27.2-1.9,39-2.7
		c-0.2-2.5-0.4-4.5-0.6-6.6c-4.3,0-8.8,0-13.2,0c0-0.5,0-1.1,0-1.6c4.2-0.3,8.3-0.5,12.5-0.8C505.8,897.7,493.6,905.6,481,906.2z
		 M335,565.2c9.1,1.1,17.1,2,25.6,3c-2-1.6-3.6-2.9-5.7-4.6c4.5-0.3,8.1-0.5,11.7-0.8c0-0.6-0.1-1.2-0.1-1.9
		c-19.5,0.9-39.1,1.8-60.1,2.8c8.3,2.5,15.8,3.5,22,6.9c7.8,4.3,14.8,3.6,22.5,0.5C346,568.2,338,574.4,335,565.2z M291.8,401.5
		c4.1,1.4,9.5,3.1,14.1,4.6c12.3-5.8,25.4-1.9,38.1-4.2c-5.5-0.7-11-1.4-18.7-2.4c10.4-1.3,18.7-2.3,27-3.3c-2.6-1-5.1-0.8-7.6-1.1
		C325.8,392.7,308,398.1,291.8,401.5z M555.6,752.8c0,0.7,0,1.5,0.1,2.2c15.7,0,31.4,0,47.1,0c0-0.6,0.1-1.2,0.1-1.9
		c-2.1-0.2-4.2-0.5-7.4-0.8c2.4-2.5,4.1-4.3,6.6-6.9c-14.2,1.6-27.2,3.1-41.7,4.8c3.9,0.7,6.2,1.1,8.5,1.5c0,0.4-0.1,0.7-0.1,1.1
		C564.3,752.8,559.9,752.8,555.6,752.8z M310,823.9c-0.1,0.8-0.1,1.7-0.2,2.5c4.6,0,9.1,0,14.1,0c-4.2,1.6-7.5,2.8-10.9,4.1
		c0.3,0.9,0.6,1.9,0.9,2.8c11.1-1.3,22.1-2.6,33.2-3.9c0-0.4,0-0.9,0-1.3c-2.5-0.2-5-0.4-8.8-0.7c3.2-1.2,5.1-1.9,8.3-3.2
		C333,814.3,321.8,828.1,310,823.9z M332.5,1060c0-0.6,0.1-1.3,0.1-1.9c-7,0-14,0-21,0c0-0.4,0-0.8,0.1-1.2c3.1-0.1,6.2-0.3,9.4-0.4
		c-1.3-5.8-7-6.7-23.9-3.7c4.1,0.2,8.2,0.5,12.2,0.7c0,0.5-0.1,1-0.1,1.5c-5.8,0-11.7,0-17.5,0c0,0.4,0,0.9,0,1.3
		c4.7,0.2,9.5,0.4,14.2,0.7c0,0.4,0,0.8,0,1.1c-2.4,0.3-4.8,0.5-7.3,0.8c5.1,3.1,10.4,3.7,15.5,5.1c4.2,1.1,7.9,2.7,9.9-3.4
		C324.5,1059.6,329.5,1060.2,332.5,1060z M420.5,533.1c0.3,0.7,0.6,1.4,0.8,2.1c-3.9,1.4-7.8,2.8-11.7,4.2c4.8,2.4,8.9,3.3,13,3.5
		c11.1,0.5,13.7-2.7,9.9-12c-6.4,3.1-13.5-7-19.9,1.7C415.3,532.7,417.8,532.9,420.5,533.1z M347.2,665c0.1-0.6,0.2-1.2,0.3-1.8
		c3.5,0,6.9,0,10.4,0c0-0.5,0-1,0-1.6c-7.6-0.7-15.2-1.3-22.9-2c0,0.6-0.1,1.3-0.1,1.9c3.4,1.6,6.7,3.1,10.1,4.7
		c-0.3,1-0.6,1.9-0.9,2.9c-8.7,1.2-17.4,2.4-26,3.6c0.1,0.3,0.4,1.1,0.7,1.1c10.7,1.7,19.2-0.2,32.3-6.6c1.9-0.9,4.5-0.6,6.8-0.8
		c0-0.5-0.1-0.9-0.1-1.4C354.2,665,350.7,665,347.2,665z M424.3,769.5c-0.1,0.5-0.2,1.1-0.2,1.6c16,0,31.9,0,46.8,0
		c-6.4-9.9-16.6-4-25.7-3.9C438.3,767.4,431.3,768.7,424.3,769.5z M429.7,1072.8c0,1.2,0,2.4,0,3.7c4,0,8.2-0.4,12.1,0.1
		c3.3,0.5,6.5,3,9.7,2.9c4-0.1,8-2.1,12-3c3.5-0.8,7.1-1.2,10.6-1.8c-0.1-0.7-0.2-1.3-0.3-2C459.2,1072.8,444.3,1072.8,429.7,1072.8
		z M473.8,881.4c-16.7-12.5-36.3-3.1-53.8-7.8c1.3,0.5,2.6,1,4,1.5c0,0.4-0.1,0.8-0.1,1.3c-7,0-14,0-21.1,0
		c6.8,1.6,13.6,1.8,20.4,1.5c8.8-0.4,17.6-1.4,26.3-1.5c1.9,0,3.8,2.5,5.7,3.9C461.8,871.3,466.5,888.5,473.8,881.4z M427.3,594.1
		c-0.6,0.9-1.2,1.7-1.8,2.6c6.4,2.8,12.9,5.6,19.3,8.4c-0.1,0.5-0.2,1.1-0.4,1.6c-4.1,0-8.2,0-12.3,0c0,0.6,0,1.3,0,1.9
		c6.1,0.6,12.2,1.1,18.7,1.7c-0.3-1.6-0.6-2.7-0.6-3.8c0-0.8,1-1.6,0.9-2.4c-0.2-1.6-0.4-4.4-1.2-4.6
		C442.5,597.5,434.8,595.9,427.3,594.1z M472.3,653.8c-0.1-0.5-0.2-1.1-0.3-1.6c-6.2,0.7-12.4,1.3-19,2.1c2.8,4,5,7.3,7.4,10.7
		c3.5,0.2,7.5,0.4,11.3,0.5c1.2-3.1,2.3-5.9,3.5-9.1c-3.3-0.2-6-0.3-8.6-0.4c0-0.3-0.1-0.7-0.1-1
		C468.5,654.6,470.5,654.2,472.3,653.8z M464.8,675c3.9-2.7,5.9-4.1,7.9-5.5c-0.6-0.9-1.3-1.8-1.9-2.7c-4.8,2.9-9.6,5.9-14.9,9.1
		c3.4,2.3,5.5,3.6,5.5,3.7c-0.4,4.6-0.6,7.4-0.8,10.4c3,0,5.7,0,9.7,0c-1.5-3.4-2.8-6.1-4.1-9c2-1.3,4.4-2.7,7.3-4.5
		C471,676,469.3,675.8,464.8,675z M315,934.8c0.1,1.1,0.2,2.3,0.3,3.4c11.1,1.8,22.3,4.6,33.2-1.4c-3,0.7-6,1.3-9.8,2.2
		c0.8-2.2,1.3-3.6,2.3-6.6C331.5,933.3,323.3,934,315,934.8z M601.3,867c4.6,2,7.5,3.4,11.5,5.1c-4.1,0.4-6.9,0.7-9.8,1
		c0.1,0.5,0.1,1,0.2,1.5c9.2-0.9,18.4-1.8,27.7-2.7c0-0.5,0-0.9,0-1.4c-4.6,0-9.1,0-13.7,0c0-0.6,0-1.2,0.1-1.7
		c8.8,0.4,17.6,0.9,26.4,1.3c0-1.1,0-2.1,0-3.2C630.2,867,616.8,867,601.3,867z M300,1050c0-0.7,0-1.4,0-2.2
		c-6.2,0-12.5,0.4-18.7-0.1c-7-0.6-13.8-2.5-20.8-3.2c-3.3-0.3-6.8,1-10.2,1.5c0.2,1.3,0.4,2.6,0.6,3.9
		C267.3,1050,283.7,1050,300,1050z M429.3,624.4c4,2.6,6.7,4.3,9.4,6.1c-1.3,1-2.8,2.1-4.9,3.7c4.7,0,8.5,0,13.3,0
		c-2-2.4-3.4-4-4.1-4.8c2.4-2.9,4.4-5.3,7.5-9.1c-8.7,0-15.7,0-22.6,0c-0.1,0.4-0.1,0.8-0.2,1.3c3.5,0.4,7,0.9,10.5,1.3
		c0,0.3-0.1,0.7-0.1,1C435.5,624,433.2,624.2,429.3,624.4z M362.8,974.1c9.2-4.4,26.8,8.8,44.1,2.4c0-0.8,0-1.6,0-2.4
		C389.3,974.1,371.8,974.1,362.8,974.1z M320.5,1067c15.8,3.2,31.4,6.4,46.3,0C351.5,1067,336,1067,320.5,1067z M501.1,680.7
		c-3.7-1.4-7.4-2.8-11-4.3c0.3-0.7,0.6-1.4,0.9-2c3.8-0.2,7.7-0.4,11.5-0.6c0-0.3-0.1-0.6-0.1-0.8c-6.8-0.8-13.7-1.6-20.6-2.5
		C481.8,683.1,481.8,683.1,501.1,680.7z M235.8,694.8c17.1,1.2,33.2,2.2,49.2,3.3c0-0.9,0.1-1.8,0.1-2.6
		C269,691.9,252.8,691.2,235.8,694.8z M436.2,996.3c-2.3,1.1-3.6,1.8-4.9,2.4c0.1,0.5,0.2,1.1,0.4,1.6c18.7,0,37.5,0,52.9,0
		c-17.4-1.8-38-3.9-58.6-6.1c0,0.4-0.1,0.9-0.1,1.3C428.8,995.8,432,996,436.2,996.3z M388,656.6c0.1-0.6,0.1-1.1,0.2-1.7
		c-3.5-0.3-7-0.7-10.6-1c7.1-0.6,14.1-0.6,21.1-0.6c1.5,0,3-0.4,4.5-0.6c-0.2-1,0-2.4-0.5-2.9c-1.1-1-2.7-2.3-3.9-2.1
		c-9.2,0.9-18.4,2.1-27.6,3.4c-1.6,0.2-3,1.6-6.2,3.3C373.8,655.2,380.8,655.9,388,656.6z M471.3,751.8c-3.2-0.9-8.4-1-11.2-3.6
		c-6.1-5.6-9.6-3.2-12.9,1.7c3.4,1.7,6.7,3.3,9.9,4.9c-0.7,1.3-1.3,2.4-2.9,5.4C461.3,756.7,466.5,754.1,471.3,751.8z M434.5,946.7
		c-16.6-7.5-31.6,2.8-47.4,5.1C402.8,950.1,418.5,948.4,434.5,946.7z M611.8,789.3c0,0.5,0,1,0,1.4c17.1,0,34.2,0,51.3,0
		c0-0.5,0-1,0-1.4C646.1,789.3,628.9,789.3,611.8,789.3z M526.3,741.6c-0.1,0.6-0.2,1.3-0.3,1.9c6.6,1,13.1,1.9,21.9,3.2
		c-3.2,0.5-4.1,0.5-4.9,0.8c-0.5,0.1-0.8,0.7-1.2,1c0.4,0.7,0.7,1.3,1.1,2c5.3-2.3,10.6-4.6,15.9-6.8c-0.1-0.7-0.3-1.4-0.4-2.1
		C547.7,741.6,537.1,741.6,526.3,741.6z M587.4,780.5c-0.1,0.6-0.2,1.2-0.3,1.8c19.5,1.5,39.1,3,58.6,4.5c0.1-0.9,0.1-1.8,0.2-2.7
		C626.3,782.9,606.8,781.7,587.4,780.5z M240,759.8c23.8,5.8,28.5,5.6,35-2.4c-4.7,0-9.9,0-15.2,0c0.1,0.6,0.1,1.2,0.2,1.8
		c1.5,0.2,3.1,0.4,4.6,0.7c-0.1,0.7-0.2,1.4-0.3,2.1C256.2,761.2,248,760.5,240,759.8z M283.8,656c-0.3-0.9-0.7-1.8-1-2.7
		c-6.1,2.4-12.1,4.9-18.2,7.3c0.3,0.8,0.6,1.6,0.8,2.3c9.8,0,19.7,0,29.5,0c0-0.6,0-1.1,0.1-1.7c-5.6,0-11.2,0-18.7,0
		C280.2,658.5,282,657.3,283.8,656z M399.5,711.9c-10.7-3.3-18.9-5.8-27.1-8.3c-0.2,0.7-0.4,1.3-0.6,2c2,0.4,4,0.8,7,1.5
		c-6.1,1.1-11,2-15.9,2.8c0,0.6,0.1,1.3,0.1,1.9C374.3,711.9,385.7,711.9,399.5,711.9z M371.5,1067.3c0.1,0.6,0.1,1.3,0.2,1.9
		c10.4,0,20.8,0.2,31.2-0.1c2-0.1,3.8-2.1,5.8-3.2c-0.4-0.6-0.7-1.3-1.1-1.9C395.5,1065.2,383.5,1066.3,371.5,1067.3z M383,1059.1
		c0.1,0.6,0.2,1.2,0.2,1.7c12.2,0,24.4,0,36.6,0c0-0.6,0-1.2,0-1.7C407.5,1059.1,395.3,1059.1,383,1059.1z M315.2,864.5
		c4.3-0.8,7.4-1.4,10.4-1.9c-0.1-0.8-0.3-1.5-0.4-2.3c-10,0.9-20.1,1.8-30.1,2.7c0.1,0.6,0.2,1.2,0.2,1.9c9,0.8,17.9,1.5,26.9,2.3
		c0.1-0.3,0.1-0.7,0.2-1C320.3,865.7,318.3,865.2,315.2,864.5z M421.5,574.8c0.2-1.2,0.4-2.4,0.7-3.5c-7.7-7.6-17.5-3.3-26.6-4.5
		c4.6,2,8.6,4.1,12.8,5.4C412.5,573.5,417,574,421.5,574.8z M528.2,570.7c0.1-1.5,0.1-3,0.2-4.5c-14,0-28.1,0-42.1,0
		c0,0.6-0.1,1.1-0.1,1.7C500.1,568.8,514.2,569.7,528.2,570.7z M431.5,551c-11.5,0.7-21.7,1.3-31.2,1.9
		C403.5,557.9,423.8,558,431.5,551z M276.7,843.6c-0.7-5.2-16.3-9.3-29.3-6C256.8,839.6,266.3,841.5,276.7,843.6z M564.4,719.9
		c-0.1-0.6-0.1-1.2-0.2-1.8c-14.6,0.7-29.1,1.3-43.7,2c0.1,1,0.1,2,0.2,3C535.3,721.9,549.8,720.9,564.4,719.9z M249.7,1063.3
		c0,0.6,0.1,1.1,0.1,1.7c14.1-0.7,28.1-1.3,42.2-2c-0.1-1.1-0.1-2.2-0.2-3.4C277.8,1060.8,263.8,1062,249.7,1063.3z M683.1,869.3
		c0.1-0.4,0.2-0.8,0.3-1.2c-1.3-0.6-2.6-1.3-3.9-1.9c0.1-0.4,0.3-0.7,0.4-1.1c5.6,0.6,11.3,1.2,16.9,1.8c0-1.1,0-2.2,0-3.3
		c-12.1,0.6-24.2,1.1-36.3,1.7c0,0.5,0,1,0.1,1.5C668.1,867.6,675.6,868.4,683.1,869.3z M207,764.3c-4.7-7.1-11.6-6.9-24.9,1.1
		C191,765,199,764.6,207,764.3z M297.7,906.1c-0.1,1.2-0.2,2.4-0.3,3.6c11.7,0.9,23.4,1.8,35.1,2.8c0-0.7,0.1-1.3,0.1-2
		C321,909,309.3,907.6,297.7,906.1z M316.2,891.2c-7.1-10.5-15.1-4.9-22.2-5.6c-0.1,1.1-0.3,2.3-0.4,3.4
		C300.7,889.6,307.8,890.3,316.2,891.2z M395,805.6c-0.2,1.3-0.3,2.5-0.5,3.8c9.2,0,18.3,0,27.5,0c0.1-0.8,0.1-1.5,0.2-2.3
		C413,806.6,404,806.1,395,805.6z M371.7,540.8c0.2,0.6,0.5,1.3,0.7,1.9c4.7-1.7,9.4-3.3,14.1-5c-0.1-0.5-0.1-1-0.2-1.6
		c-7.3-1-14.6-2.1-24.8-3.5c3.7,2.9,5.2,4.8,7,5.3c2.3,0.7,4.9,0.2,7.3,0.2c0,0.4,0,0.7,0.1,1.1C374.5,539.8,373,540.3,371.7,540.8z
		 M156.8,956.4c14.9,8.2,14.9,8.2,26.4,4C174.2,959,165.2,957.7,156.8,956.4z M455.5,622.2c-0.2,0.7-0.3,1.5-0.5,2.2
		c2.8,0.7,5.6,1.5,9.5,2.5c-3,0.6-4.9,0.9-8,1.5c7.7,0,13.8,0,20,0c0.1-1.1,0.1-2.1,0.2-3.2C469.7,624.2,462.5,623.2,455.5,622.2z
		 M295.8,854.2c-0.1,1.2-0.1,2.4-0.2,3.6c11.1,0,22.2,0,33.3,0c0-0.5,0.1-1,0.1-1.5C317.8,855.6,306.8,854.9,295.8,854.2z
		 M340.5,1059.8c-0.2,1.1-0.3,2.1-0.5,3.2c11.2,0,22.4,0,33.6,0c0-0.2,0.1-0.5,0.1-0.7C362.5,1061.4,351.5,1060.6,340.5,1059.8z
		 M478.3,609.5c0.2-0.6,0.3-1.2,0.5-1.8c-5-1-9.9-2.4-15-2.8c-1.6-0.1-3.3,2.3-5,3.6c2.2,1,4.4,2.8,6.5,2.8
		C469.8,611.3,474,610.2,478.3,609.5z M229.5,113.5c12.2,1,24.3,2,39.2,3.2c-4.8-2.7-7.6-5.6-10.3-5.5
		C248.8,111.4,239.3,112.7,229.5,113.5z M528.8,729.9c0-1,0.1-2.1,0.1-3.1c-5.7-1.1-11.4-2.3-19.5-3.9c3.7,3,5.3,4.3,7.4,6
		c-3,0.5-5,0.9-7.1,1.2c0.1,0.5,0.2,1.1,0.3,1.6C516.2,731.2,522.4,730.6,528.8,729.9z M358.3,1052.5c-6.9,0.8-13.5,1.7-20.1,2.5
		c0,0.8,0,1.6,0.1,2.4c6.6,0.5,13.2,1,20,1.5C358.3,1056.6,358.3,1055,358.3,1052.5z M402,695.9c0.1-0.9,0.1-1.8,0.2-2.7
		c-11.1,0-22.3,0-36.1,0C379.8,694.3,390.8,695.1,402,695.9z M385.3,964.1c0.1,0.7,0.1,1.4,0.2,2.1c9.5,2.6,19,5.3,28.4,7.9
		c0.3-1.2,0.5-2.3,0.8-3.5C404.8,968.5,395,966.3,385.3,964.1z M380.3,667.5c-6.2-0.7-11.5-1.2-18.5-2c2.6,4.3,4.3,7.3,6.1,10.3
		C372,673,375.7,670.6,380.3,667.5z M503.2,628.5c-9.4-0.7-2.2-3.8-1-6.6c-5.1,3.7-14.8-1.7-15.9,8.6
		C491.8,629.9,497.6,629.2,503.2,628.5z M352.2,656.6c-0.1-0.9-0.2-1.8-0.3-2.7c-8.8,0.6-17.6,1.1-26.4,1.7c0.1,0.3,0.1,0.7,0.2,1
		C334.5,656.6,343.3,656.6,352.2,656.6z M375.8,1025.2c-11.2,0-20.7,0-30.3,0C355.2,1027.5,364.8,1030.6,375.8,1025.2z M225.2,701.4
		c0-0.6,0-1.2,0-1.8c-12.3,0-24.6,0-36.8,0c0,0.6,0,1.2,0,1.8C200.7,701.4,213,701.4,225.2,701.4z M322,661.2
		c-5.5,1.8-12.6-9.5-17.6,2.3c6.2,0.7,11.8,1.4,17.5,2.1c0.1-0.6,0.1-1.1,0.2-1.7c-3.1-0.3-6.1-0.5-9.2-0.8c0-0.3,0-0.7,0-1
		C316,661.7,319,661.5,322,661.2z M657.2,781.2c0.2-0.5,0.4-0.9,0.6-1.4c3.7-0.2,7.4-0.4,11.1-0.6c-0.1-0.7-0.2-1.5-0.3-2.2
		c-7.9,1.4-15.7,2.9-23.6,4.3c0.1,0.6,0.1,1.1,0.2,1.7c5.4,0.7,10.8,1.4,16.1,2c0.1-0.6,0.2-1.2,0.2-1.8
		C660.1,782.6,658.6,781.9,657.2,781.2z M431,547.1c-0.1-0.8-0.3-1.5-0.4-2.3c-9.6,0.5-19.2,1-28.8,1.5c0.1,1,0.1,1.9,0.2,2.9
		C411.7,548.5,421.3,547.8,431,547.1z M537.3,999.1c0-1-0.1-2-0.1-3c-9.5,0.6-19.1,1.2-28.6,1.9c0,0.4,0,0.8,0,1.2
		C518.2,999.1,527.8,999.1,537.3,999.1z M564.8,1058c-0.1-1.1-0.2-2.2-0.2-3.3c-8.6,0.8-17.3,1.5-25.9,2.3c0.1,0.8,0.1,1.5,0.2,2.3
		C547.6,1058.9,556.2,1058.5,564.8,1058z M271.5,867.5c6.8-0.2,15.4,4.7,18-6C283.5,863.5,277.5,865.5,271.5,867.5z M402.7,793
		c-8.6,0-16.6,0-24.7,0C401.3,795.4,401.3,795.4,402.7,793z M247,742c-0.1,1.1-0.1,2.3-0.2,3.4c6.3,0.6,12.5,1.2,18.8,1.8
		c0.1-1.3,0.1-2.7,0.2-4C259.5,742.8,253.3,742.4,247,742z M276.2,121.8c0,0.8-0.1,1.6-0.1,2.4c8,0.4,16.1,0.9,24.1,1.3
		C292.5,119.3,284.2,122.4,276.2,121.8z M297.3,798.8c7.6,0.1,14.3,10,22.7,2.4C312.3,800.4,304.8,799.6,297.3,798.8z M524.6,992.6
		c0.1-0.9,0.2-1.7,0.3-2.6c-9.6,0-19.2,0-29.5,0C505.6,990.9,515.1,991.8,524.6,992.6z M342.3,978c-0.1,0.9-0.3,1.8-0.4,2.6
		c11.2,0,22.4,0,34.8,0C364.5,979.7,353.3,978.8,342.3,978z"/>
	<path d="M561.4,667c0.7-0.5,1.3-1,2-1.6c0.2-1.7,0.4-3.4,0.7-5.6c10.1-0.2,20.7-0.2,30,6.7c-3.6,0.4-7.2,0.8-10.8,1.1
		c0.1,0.9,0.3,1.8,0.4,2.7c12.9-2.4,25.8-4.8,38.7-7.1c0.1,0.4,0.1,0.8,0.2,1.2c-1.2,0.4-2.5,0.9-5.8,2.1c7.4,0,12.8,0,18.1,0
		c0.1,0.5,0.2,0.9,0.3,1.4c-1.3,0.6-2.5,1.1-3.8,1.7c0,0.7,0,1.4,0.1,2c9.6,0,19.3,0,28.9,0c-0.1,0.5-0.2,0.9-0.3,1.4
		c-2.8,1.3-5.5,2.6-8.3,3.8l0.1-0.1c-0.5,0.2-1.1,0.6-1.6,0.7c-25,0.9-50,1.9-75,2.8c-0.1-1-0.2-2-0.4-3c5-0.6,10-1.3,15-1.9
		c0-0.4,0-0.8,0-1.2c-8.8,0-17.7,0-26.5,0l0.3,0.2c-3.7-0.9-7.5-1.9-11.8-2.9C555.2,669.8,558.3,668.4,561.4,667z"/>
	<path d="M389.5,341.1c10.4,5.5,10.5,8.4,13.4,19c-4.4-1.3-7.6-2.3-10.8-3.2c0.2-0.7,0.3-1.5,0.5-2.2c1.6-0.4,3.3-0.8,5.6-1.3
		c-3.3-1-5.8-2-8.5-2.5c-0.7-0.1-2.5,1.3-2.5,2.1c0,2.6,0.5,5.1,0.9,8.6c-2.9,9.6-8.7-1.7-13.1,0.1c0,4.7,0,9.1,0,14.6
		c-9.4-1.6-19.5-3.4-29.6-5.1c4.8-1,9.7-2.1,15.9-3.4c-2.5-1.4-4-2.2-5.5-3c0.4-0.5,0.7-1,1.1-1.6c2.7,0.6,5.4,1.2,8.1,1.7
		c-0.2-0.9-0.4-1.8-0.6-2.6c4.7-1.3,9.4-2.6,14.3-3.9c-9.9,0-19.8,0-31.2,0c2.7,1,4,1.5,5.3,1.9c-0.1,0.5-0.2,0.9-0.3,1.4
		c-4.9-0.8-9.9-1.7-14.8-2.5c0-0.9,0-1.7,0-2.6c12.7,0,25.3,0,39.9,0c-4.5-3.1-7.1-4.8-10.3-7c2.4-0.6,4.2-1,8.1-1.9
		c-10.8-2.6-19.6-4.7-28.9-6.9c1-0.5,1.8-1,3.5-1.9c-2.3-0.5-4-1-6.6-1.6c7.7-6.9,14,2.1,20.9,0.6c6.8-1.5,14-1.3,21.1-1.9
		c-0.3,0.9-0.7,1.7-1,2.6c1.8,1,3.6,1.9,5.4,2.9C389.8,341.4,389.5,341.1,389.5,341.1z"/>
	<path d="M739.7,628.2c5.1,1.7,10.3,3.3,15.3,5.4c0.6,0.2,0,3.1,0.2,4.7c0.2,1.2,0.8,2.4,1.1,3.3c-0.9,0.2-2.5,0.7-5.7,1.6
		c4,0.5,6.2,0.8,10.3,1.3c-2.8,1.5-4.1,2.3-6.3,3.5c7.1,2.2,11.3,5.2,6.3,12.4c-0.4,0.5,1.9,2.9,3,4.4c-3.7,0-8,0-12.3,0
		c0.3-0.4,0.6-0.8,0.8-1.2c-1.6-1-3.2-2.6-4.8-2.7c-5.9-0.3-11.9-0.1-17.8-0.1c0-0.8,0-1.7,0-2.5c6,0,12,0,18,0c0-0.4,0-0.9-0.1-1.3
		c-13.1-1.5-26.2-2.9-39.2-4.4c-0.1-0.3-0.1-0.7-0.2-1c6.7-1.3,13.5-4.1,20-3.5c5.5,0.5,10.6,4.8,16.5,7.8
		c-0.5-10.6-10.8-22.7-20.7-25.6c5.6-0.8,10.8-1.5,15.9-2.3L739.7,628.2z"/>
	<path d="M719.2,906.7c-0.9-4.3,0.8-6.2,5.2-5.5c4.3,0.6,8.7,1.7,13,1.6c3.2,0,8.8,2.5,8.5-5c0-0.6,6.9-1.4,10.6-2.1
		c10.6-2.1,21.1-4.2,32.4-6.4c-3.2-0.4-6-0.7-8.8-1c0-0.5,0-1,0-1.5c8.1,0,16.1,0,24.1,0c-0.9,6.5-0.9,6.5-13.8,8.5
		c3.3,0.4,6.5,0.7,9.8,1.1c0,0.4,0,0.8-0.1,1.3c-5.5,0-11,0.2-16.5,0c-6.3-0.2-11.2,2.2-16.8,5.1c-7,3.6-16.3,3.2-24.6,3.8
		c-7.7,0.5-15.5,0.1-23.3,0C718.8,906.5,719.2,906.7,719.2,906.7z"/>
	<path d="M720.4,686.4c13.4,0,26.8,0,40.3,0c0.2-1.3,0.3-2.5,0.5-3.8c-11.1-1.1-22.3-2.2-33.4-3.3c0.1-0.7,0.2-1.3,0.3-2
		c9.5,0.8,19,1.5,28.5,2.3c0.1-0.5,0.1-0.9,0.2-1.4c-1.8-0.4-3.6-0.7-5.5-1.1c0.1-0.6,0.1-1.2,0.2-1.8c6.2,0.7,12.4,1.3,17.4,1.9
		c0.5,6.5,0.9,11.1,1.3,16.6c-12.1,1-24.4,2.1-36.7,3.1c-0.2-0.9-0.3-1.8-0.5-2.6c2.4-0.7,4.8-1.4,9-2.6c-8.3-1.9-15-3.4-21.7-4.9
		C720.3,686.7,720.3,686.6,720.4,686.4z"/>
	<path d="M639.8,599.9c-2.3,0.7-3.5,1.1-7.1,2.2c4.6,0.4,7,0.7,9.5,0.9c0,0.4-0.1,0.7-0.1,1.1c-9.6,0-19.3,0-28.9,0
		c-0.2-0.4-0.4-0.9-0.6-1.3c2.7-1,5.5-2.1,8.2-3.1c0-0.7,0-1.3-0.1-2c-22.2,0-44.4,0-66.6,0c0-0.7,0-1.5,0-2.2
		c5.7,0,11.5,0.1,17.2,0c4.7-0.1,8.9-0.9,13.6-3c9.5-4.1,19.3-2.4,29.3,3.3C620.8,599.5,630.3,598.6,639.8,599.9z"/>
	<path d="M502.2,531.5c21.2-2.3,41.7,6.4,62.8,6.9c-5.8,0-11.6,0-17.4,0c0,0.5,0,1,0,1.6c4.9,0.4,9.9,0.7,14.8,1.1
		c0,0.9,0,1.7,0,2.6c-19.7,0-39.5,0-59.2,0c0-0.5,0-1-0.1-1.4c11.1,0,22.2,0,33.3,0c0-0.6,0-1.1,0.1-1.7c-3.6-0.3-7.3-0.5-10.9-0.8
		c0-0.3-0.1-0.6-0.1-0.9c2-0.4,4-0.8,6-1.2c0-0.3-0.1-0.7-0.1-1c-9.9-0.9-19.8-1.7-29.7-2.6C501.8,533.1,502.1,532.3,502.2,531.5z"
		/>
	<path d="M644.6,713.6c2.1-1.6,4.3-3.2,6.3-4.7c-5.8-1.6-11.9-3.3-17.1-4.8c5.6-2,11.6-5.5,17.9-6.1c6.8-0.7,13.8,1.2,20.9,3.1
		c-7.7,0.8-15.4,1.6-23.1,2.4c0,0.3,0,0.5-0.1,0.8c4.7,0,9.4,0,14.1,0c0,0.5,0,1.1,0.1,1.6c-2.4,0.3-4.8,0.5-7.2,0.8
		c0,0.2,0,0.4,0.1,0.6c8.2,1,16.4,2,24.6,3c0,0.8,0,1.6,0.1,2.5c-12,1-23.9,2-35.9,2.9C645.1,715,644.8,714.3,644.6,713.6z"/>
	<path d="M471.5,520.8c0.2,3.2,0.3,5.6,0.5,8.8c7.7,0,15.5,0,23.3,0c0,0.7-0.1,1.4-0.1,2.1c-14.8-0.8-29.6-1.5-44.4-2.3
		c0-0.6,0-1.1,0-1.7c4,0,8,0,12.1,0c0-0.5,0.1-1.1,0.1-1.6c-4.1-0.2-8.1-0.4-12.2-0.6c0-0.3,0-0.6,0-0.9c5.1-0.6,10.3-1.1,15.4-1.7
		c-0.1-0.8-0.2-1.6-0.3-2.4c-4.9,0-9.8,0-14.6,0c0-0.4,0-0.9,0-1.3c16-0.7,32-1.4,48.4-2.2C493.8,522.8,487,523.7,471.5,520.8z"/>
	<path d="M355.3,281.9c2.1,1.1,4.3,2.2,7.4,3.9c-8,0.7-14.9,1.3-21.7,1.9c-0.1-0.8-0.2-1.6-0.3-2.5c3.9-0.4,7.8-0.8,11.6-1.3
		c0-1.1,0-2.3,0-3.4c-7-0.7-13.9-1.5-20.9-2.2c-0.1-0.2-0.1-0.4-0.2-0.7c4-0.3,8-0.5,14.1-0.9c-3.8-1-5.7-1.5-7.7-2
		c2.5-1.1,4.8-2.1,7.2-3.2c-0.1-0.6-0.3-1.1-0.4-1.7c-3.9,0-7.8,0-11.7,0c0.1-1.3,0.2-2.5,0.3-3.8c7.8,0.7,15.6,1.4,21.5,1.9
		c1.3,5.3,2.2,9.2,3.2,13.1C357,281.3,356,281.6,355.3,281.9z"/>
	<path d="M370.3,321.6c1.7-0.7,3.9-2.5,5.1-2c3.3,1.4,6.3,3.7,9.7,5.9c0.8,12.2,10.3-4.9,12,4.7c-1.2,2.5,6.3,13.1-7.6,10.8
		c0,0,0.3,0.3,0.3,0.2c-0.3-2.8-0.5-5.6-0.8-8.3c-13,3.6-15.5,2.4-18.7-9.1C370.3,323.1,370.3,322.4,370.3,321.6z"/>
	<path d="M651.8,676.7c12.7-0.7,25.4-1.3,38.1-2c0.1,0.9,0.1,1.7,0.2,2.6c-4.6,0.2-9.3,0.4-13.9,0.6c0,0.4,0,0.9,0,1.3
		c15.4,0.9,30.9,1.8,46.3,2.7c0,0.4,0,0.7,0,1.1c-5.6,0-11.1,0-16.7,0c-5.4,0-11-1.3-15.3,4c-1.1,1.4-4.4,1.5-6.6,1.3
		c-7.8-0.6-15.7-1.6-23.6-3.3c7.3,0,14.5,0,21.8,0c0.1-1,0.2-1.9,0.4-2.9C672.3,680.3,662.2,678.5,651.8,676.7
		C651.9,676.7,651.8,676.7,651.8,676.7z"/>
	<path d="M635.8,814.6c5.6-0.5,11.1-1.1,18.2-1.7c-3.8-0.8-6.2-1.4-10.4-2.3c11.4-1.6,21-3,30.5-4.3c0.2,0.9,0.4,1.9,0.6,2.8
		c-1.4,0.5-2.8,1.1-5.6,2.2c12.4,2.1,24.1-8.1,34.8,2.2c-3.8,0-7.7-0.1-11.5,0C673.7,813.8,654.8,814.2,635.8,814.6
		C635.8,814.5,635.8,814.6,635.8,814.6z"/>
	<path d="M691.3,834.2c9.4-1.4,18.9-2.9,28.3-4c3.6-0.4,7.4-0.1,11.1-0.1c-0.1,1-0.1,1.9-0.2,2.9c-5.5,0-11,0-16.5,0
		c0,0.5-0.1,1-0.1,1.4c3,0.3,6,0.6,10.4,1c-2.7,1-4.1,1.5-5.4,2c0.1,0.4,0.2,0.7,0.2,1.1c5.2,0,10.5,0,16.5,0
		c-6.1,1.9-11.3,3.6-16.6,5.1c-0.8,0.2-2.3,0.5-2.6,0.1c-6.7-8.3-17.3-3.9-25.3-8.1C691.1,835.7,691.3,834.7,691.3,834.2
		L691.3,834.2z"/>
	<path d="M370.3,321.6c0,0.7,0,1.5,0,2.2c-6.8,0-13.5,0-22.5,0c3.8,2.9,6,4.5,8.5,6.4c-4.3,0-8.4,0-13.7,0c1.4-0.9,2.3-1.4,3.6-2.3
		c-1.9-0.5-3.4-0.9-5.8-1.5c4-2.1,7.3-3.9,10.9-5.8c-5.7-1-11-2-17.6-3.2C347.2,314.8,359.2,314.1,370.3,321.6z"/>
	<path d="M588.1,701.2c0.5-0.1,2.3-0.4,4.2-0.7c0-0.6,0-1.2,0-1.9c-6.3-0.3-12.6-0.6-18.9-0.8c0.1-0.5,0.1-1.1,0.2-1.6
		c7.5,0,14.9,0,22.4,0c0.1,1.3,0.2,2.8,0.2,3.8c10.2,0,19.8,0,29.5,0c0.1,0.5,0.1,0.9,0.2,1.4c-6.3,1.7-12.6,3.4-19.9,5.4
		C601.2,705.3,594.3,703.1,588.1,701.2z"/>
	<path d="M710.2,671c1.8-0.3,3.5-0.6,5.3-0.9c0-0.5-0.1-0.9-0.1-1.4c-5.3,0-10.6,0-15.9,0c0-0.6,0-1.2-0.1-1.7
		c15.9-1.5,31.8-3,47.7-4.5c0.1,1,0.2,2,0.3,3c-12.2,2.7-24.4,5.4-36.6,8.1C710.6,672.7,710.3,671.8,710.2,671z"/>
	<path d="M691.3,834.2c-6.8,1.2-13.6,2.5-21.4,3.9c6.1,0.4,11.4,0.7,16.6,1.1c0,0.8,0.1,1.6,0.1,2.4c-3.5,0.2-6.9,0.5-10.4,0.7
		l0.3,0.3c-3.8-0.6-8.7-3.1-11.4-1.6c-7.4,4.2-13.4,3.8-20.2-2.4c7.7,0,14.6,0,22.3,0c-0.8-2.2-1.3-3.6-2.1-5.7
		C674.3,833.3,682.8,833.8,691.3,834.2L691.3,834.2z"/>
	<path d="M498.3,495.1c-14.9-9.9-28.2-5.5-40.3-9.3c6,0,12-0.1,18,0c3.5,0.1,7.1,0.1,10.5,0.7c6.4,1.1,12.8,2.8,19.2,4
		c4.8,0.9,9.7,1.4,16.5,2.3C511.6,493.8,502.8,494.6,498.3,495.1z"/>
	<path d="M687.7,578.4c6.8-6.5,13.8,0,18.7-0.5c2.6,3.9,4.4,6.7,6.3,9.5c-15.2-1.1-30.3-2.3-45.4-3.4c0-0.6,0.1-1.2,0.1-1.8
		c10.5,0.6,21,1.1,31.5,1.7c0.2-0.7,0.4-1.4,0.6-2.1C695.7,580.6,691.7,579.5,687.7,578.4C687.8,578.3,687.7,578.4,687.7,578.4z"/>
	<path d="M571.3,580.1c4-2.5,5.7-3.5,7.4-4.5c0-0.6-0.1-1.3-0.1-1.9c-7.9-0.7-15.8-1.4-23.8-2.1c0-0.2,0-0.4,0-0.6
		c10.6,0,21.2,0,31.8,0c-0.6,1.4-1.2,2.7-1.6,3.8c3.8-0.2,7-0.4,10.2-0.6c0.1,1.1,0.2,2.1,0.2,3.2
		C588.3,578.1,581.2,578.9,571.3,580.1z"/>
	<path d="M529.8,528.5c12,0,24,0,36,0c0,0.6,0,1.3,0.1,1.9c-1.6,0.4-3.2,0.8-5,1.3c1.1,0.8,2.1,1.5,3,2.1c-0.2,0.5-0.3,0.9-0.5,1.4
		c-11.2-1.7-22.4-3.4-33.6-5.1C529.8,529.6,529.8,529,529.8,528.5z"/>
	<path d="M662.1,598.8c15.9,0,31.8,0,47.7,0c0,1.1,0,2.3-0.1,3.4c-15.9-0.7-31.7-1.4-47.6-2.2C662.1,599.7,662.1,599.2,662.1,598.8z
		"/>
	<path d="M612.3,681.6c10.6,0,21.1,0,28.7,0c2.9,2.8,4.1,3.9,6.8,6.6c-7.5,0.3-13.5,0.6-19.6,0.9c-0.1-0.9-0.3-1.8-0.4-2.7
		c1.8-0.9,3.5-1.8,6.7-3.3c-8.4,0-15.3,0-22.3,0C612.2,682.6,612.3,682.1,612.3,681.6z"/>
	<path d="M409.2,369.9c-7.7,0-15.9,0-24.1,0c0-0.4-0.1-0.8-0.1-1.3c4.8,0,9.7,0,14.5,0c0.1-0.6,0.2-1.1,0.4-1.7
		c-2.4-1.4-4.9-2.8-7.3-4.2c0.2-0.6,0.3-1.2,0.5-1.9c5.7,0.7,11.4,1.3,17.5,2.1C410,365.4,409.7,367.2,409.2,369.9z"/>
	<path d="M551.2,489.4c-0.8,0.4-1.5,0.9-3.2,1.9c6.6,0.4,11.8,0.7,17.1,1c-0.1,0.5-0.1,1-0.2,1.4c-11.1,0.6-22.3,1.1-33.4,1.7
		c0-0.5-0.1-1-0.1-1.5c3-0.3,6-0.6,9-0.8c0-0.4,0-0.7,0-1.1c-2.9-0.1-5.7-0.3-8.6-0.4c0-0.4-0.1-0.9-0.1-1.3
		c6.4-0.9,12.8-1.8,19.2-2.7C550.8,488.2,550.9,488.8,551.2,489.4z"/>
	<path d="M716.3,701.9c-2.1,2-4.1,4-6.6,6.4c0,0,0.6,1.3,1.6,3.2c-2.3-0.1-5.5,0.4-5.9-0.4c-4.5-9.3-12.9-6-20.1-6.5
		c-1.7-0.1-3.5,0-5.2,0c0-0.8,0-1.7,0-2.5c12.1,0,24.2,0,36.3,0L716.3,701.9z"/>
	<path d="M739.8,628c-5.3-0.4-10.6-0.8-16.6-1.3c6.6-3.9,12.9-7.5,19.1-11.1c0.4,0.6,0.7,1.3,1.1,1.9c-0.9,1.2-1.9,2.4-2.8,3.5
		c2.9,1.4,5.8,2.8,8.2,4c-2.4,0.8-5.8,2-9.2,3.3C739.7,628.2,739.8,628,739.8,628z"/>
	<path d="M642.3,729.7c-0.6-1.8-1.2-3.5-1.8-5c11.2-0.7,22.6-1.4,33.9-2.1c0.1,0.8,0.3,1.7,0.4,2.5c-10.9,1.4-21.8,2.9-32.7,4.3
		C642.1,729.5,642.3,729.7,642.3,729.7z"/>
	<path d="M606.3,626.2c0.4-1.1,0.8-3.4,1.2-3.4c12.7,0.8,25.3,1.8,38,2.8c-0.1,0.9-0.1,1.8-0.2,2.6
		C632.6,627.6,619.7,626.9,606.3,626.2z"/>
	<path d="M717.4,806.4c-15.4-1.1-30.9-2.2-46.3-3.3c0-0.7,0.1-1.3,0.1-2c15.4,0.8,30.9,1.6,46.3,2.3
		C717.6,804.4,717.6,805.4,717.4,806.4z"/>
	<path d="M525.8,464.4c-11.6,0.9-22.2,1.7-33.8,2.6C498.9,460.7,516.9,459.4,525.8,464.4z"/>
	<path d="M490.3,450.7c-0.7-0.7-1.4-1.4-2.1-2.1c12.8-1,25.6-2,38.4-3c0,1.1,0.1,2.1,0.1,3.2c-5.8,0-11.7-0.4-17.5,0.1
		c-4.2,0.4-8.2,2.1-12.4,2.7C494.8,452,492.4,451.1,490.3,450.7z"/>
	<path d="M716.8,793.4c13.8,0,27.6,0,41.4,0c0,0.9,0,1.8,0,2.6c-13.9,0-27.8,0-41.6,0C716.7,795.2,716.8,794.3,716.8,793.4z"/>
	<path d="M644.2,735.1c3-0.1,6-0.3,10.1-0.5c-2-1.3-2.8-1.8-5.3-3.3c9.7,0.7,17.7,1.3,26.4,2c-0.7,1.9-1.3,3.5-1.2,3.3
		c-10.9,0-20.5,0-30.1,0C644.1,736.1,644.1,735.6,644.2,735.1z"/>
	<path d="M772.1,808.9c-13.5,8.5-24.6-3.8-36.7-0.9c0.1-0.8,0.1-1.6,0.2-2.5C747.3,806.6,759.2,807.7,772.1,808.9z"/>
	<path d="M707.6,720.7c-1.5-0.2-5.4-0.6-9.3-1c0-1,0.1-2,0.1-3c10.9,0.9,21.8,1.8,30.5,2.6c-4.4,1.4-10.6,3.6-17,5.4
		C711.3,724.9,709.9,723,707.6,720.7z"/>
	<path d="M716.9,737.9c-10.9,0.8-21.8,1.7-32.7,2.2c-1.6,0.1-3.3-1.8-4.1-4.6c12.3,0.5,24.7,1.1,37,1.6
		C717.1,737.4,717.1,737.6,716.9,737.9z"/>
	<path d="M716.4,702c12.7-9,25.5,2.6,33.5-0.1C741.8,701.9,729.1,701.9,716.4,702C716.3,701.9,716.4,702,716.4,702z"/>
	<path d="M689.6,746.6c3.9-0.9,7.8-2,11.7-2.7c3.1-0.5,6.3-0.5,9.4-0.8C709.8,751,700.7,752.8,689.6,746.6L689.6,746.6z"/>
	<path d="M749.8,737.9c0,2.5,0,4.1,0,6.5c-8-0.8-15.8-1.5-23.6-2.2c0-0.5,0-1.1,0-1.6C734.1,739.7,741.8,738.8,749.8,737.9z"/>
	<path d="M663.8,822.2c-10.2-0.5-20.3-1.1-30.5-1.6c0-0.6,0-1.2-0.1-1.8c10.2,0,20.4,0,30.6,0C663.8,819.9,663.8,821,663.8,822.2z"
		/>
	<path d="M733.2,888.3c-11,0.5-25.1,1.2-39.3,1.9c0-0.6,0-1.2-0.1-1.9C708.1,888.3,722.3,888.3,733.2,888.3z"/>
	<path d="M380,381.4c-7.3,2-14.6,4-21.8,6c-0.3-0.7-0.5-1.4-0.8-2.2c3.8-2.1,7.7-4.2,11.5-6.2c-0.4-0.6-0.8-1.1-1.2-1.7
		c3.9,0.7,7.7,1.5,11.6,2.2C379.5,380.2,379.8,380.8,380,381.4z"/>
	<path d="M795.8,841c-8.9,10.2-17.8-0.9-26.3,0C777.9,841,786.3,841,795.8,841z"/>
	<path d="M574.3,532.9c2.2,1.4,3,2,3.9,2.5c-0.2,0.5-0.5,0.9-0.7,1.4c-1.7-1-3.3-2.1-5-3.1c1.5-0.9,3-2.5,4.5-2.5
		c12.1-0.2,24.3-0.1,36.4,1.7C600.8,532.9,588.3,532.9,574.3,532.9z"/>
	<path d="M305.3,360.1c9.3,0,19.3,0,29.2,0C326.7,366.8,308.8,364.3,305.3,360.1z"/>
	<path d="M644.3,801.1c7.6,0,15.1,0,22.7,0c-0.1,1.3-0.3,2.7-0.4,4c-7.8-0.9-15.6-1.8-23.3-2.8C643.6,802,643.9,801.6,644.3,801.1z"
		/>
	<path d="M737.8,872.2c5.4,0.7,10.8,1.4,16.3,2.1c-0.7,2.5-1.2,4.4-1.6,6.1c-5.5-1.6-10.6-3.2-15.8-4.7
		C736.9,874.5,737.3,873.3,737.8,872.2z"/>
	<path d="M700.1,897.1c-6.6,0-11.9,0-17,0C690.4,890.4,693.4,890.2,700.1,897.1z"/>
	<path d="M649.3,575.5c-10.5,0-19.4,0-30.5,0C629.8,571.5,638.7,570.4,649.3,575.5z"/>
	<path d="M705.1,821.5c-3.7,5.2-14.4,5.2-22.3,0C690.2,821.5,697.7,821.5,705.1,821.5z"/>
	<path d="M787.3,798.5c-8.5-1.7-16.6-3.3-23.9-4.8C770.9,789.4,786.8,793.2,787.3,798.5z"/>
	<path d="M559.2,467.1c-8.7,0-17.5,0-26.2,0c0-0.8,0-1.5,0-2.3c8.7,0,17.5,0,26.2,0C559.2,465.6,559.2,466.4,559.2,467.1z"/>
	<path d="M714.3,853.7c0.5-1.8,0.7-5.1,1.4-5.2c8-1.2,16.2-1.9,24.4-0.9c-8.7,2-17.3,3.9-26,5.9L714.3,853.7z"/>
	<path d="M611.6,706.5c8.7,0,15.1,0,22,0c-6.6,3.7-12.8,7.4-20.9,4.4c1.7-0.6,3.1-1.1,5.2-1.9C616.2,708.3,614.8,707.8,611.6,706.5z
		"/>
	<path d="M795.3,835.3c-8.6-1.4-17.2-2.8-25.8-4.3c0-0.6,0.1-1.1,0.1-1.7c8.7,0.8,17.3,1.5,26,2.3
		C795.4,832.8,795.3,834,795.3,835.3z"/>
	<path d="M663.3,823.9c8.2,1.3,16.4,2.7,24.6,4c-0.1,0.7-0.2,1.5-0.3,2.2c-8.2-0.9-16.5-1.8-24.7-2.8
		C663.2,826.2,663.3,825.1,663.3,823.9z"/>
	<path d="M600.1,709.5c-8-0.4-15.5-0.8-23-1.1C577.3,702.9,587.4,702.8,600.1,709.5z"/>
	<path d="M618.2,548.3c-8.8-1.6-17.6-3.3-26.4-4.9c0.1-0.7,0.2-1.4,0.3-2.1c8.9,1.4,17.9,2.8,26.8,4.2
		C618.7,546.4,618.4,547.3,618.2,548.3z"/>
	<path d="M646.2,616.9c-4.4-0.9-8.5-1.8-13.7-3c11.5-1,22-1.8,32.4-2.7c0,0.3,0.1,0.5,0.1,0.8C658.3,613.7,651.8,615.4,646.2,616.9z
		"/>
	<ellipse cx="739.9" cy="770.3" rx="26.8" ry="1"/>
	<path d="M492.4,1071.9c6.9-0.8,13.9-2.2,20.8-2.3c6.6,0,13.3,1.3,22,2.3C519.6,1077.6,505.8,1071.9,492.4,1071.9z"/>
	<path d="M362.8,1078.7c4.6-1.4,9.1-3.6,13.7-3.8c5-0.2,10.1,1.5,15.8,2.5c-10,0.9-19.4,1.7-28.9,2.6
		C363.3,1079.6,363,1079.2,362.8,1078.7z"/>
	<ellipse cx="199.5" cy="483.9" rx="21.9" ry="2"/>
	<path d="M228.8,442.1c-3.3,2.5-5.8,4.4-8.3,6.3c1.7,0.2,4.1,0.5,6.5,0.8c0,0.3,0,0.6,0,0.8c-4.6,0-9.2,0-14.8,0
		C215.3,441.9,221,441,228.8,442.1z"/>
	<path d="M322,631.6c2.4-0.2,4.8-0.5,7.2-0.7c0-0.3,0-0.6,0-0.9c-2.3-0.3-4.7-0.7-7-1c0-0.6,0.1-1.2,0.1-1.8
		c11.9,0.7,23.8,1.4,35.7,2.2c0,0.7,0.1,1.4,0.1,2.1c-12,0.7-23.9,1.4-35.9,2.1C322.2,632.8,322,632.2,322,631.6z"/>
	<path d="M447.3,929.6c-3-0.5-6-0.9-8.9-1.5c-2-0.4-4-1-6-1.6c0.1-0.7,0.3-1.5,0.4-2.2c5.5,0,10.9,0,16.4,0
		c6.5,1.6,12.9,3.1,19.4,4.7c-0.1,1-0.1,2-0.2,3C461.3,931.2,454.3,930.4,447.3,929.6z"/>
</g>
</svg>
