<?xml version="1.0"?>
<svg xmlns="http://www.w3.org/2000/svg" height="512px" viewBox="0 -69 512.00305 512" width="512px" class=""><g><path d="m494.21875 32.550781c-12.21875-20.988281-28.914062-32.550781-47.011719-32.550781h-382.414062c-15.4375 0-30.296875 8.742188-41.847657 24.613281-2.476562 3.398438-1.726562 8.164063 1.675782 10.636719 3.398437 2.472656 8.160156 1.722656 10.632812-1.675781 6.089844-8.371094 16.160156-18.347657 29.539063-18.347657 18.667969 0 35.324219 20.039063 43.75 48.746094h-43.75c-25.890625 0-46.167969 32.433594-46.167969 73.835938 0 .125.003906.25.003906.378906-2.191406-10.105469-3.402344-21.03125-3.402344-32.367188 0-17.113281 2.699219-33.8125 7.808594-48.292968 1.398438-3.964844-.679687-8.3125-4.644531-9.710938-3.964844-1.398437-8.316406.679688-9.714844 4.644532-5.675781 16.089843-8.675781 34.542968-8.675781 53.359374 0 27.558594 6.316406 53.582032 17.78125 73.273438 12.21875 20.992188 28.914062 32.550781 47.011719 32.550781h138.894531v119.457031c0 3.082032 1.851562 5.855469 4.699219 7.035157.941406.390625 1.929687.578125 2.910156.578125 1.984375 0 3.929687-.773438 5.386719-2.230469l22.023437-22.023437 9.632813 9.640624v42.023438c0 3.078125 1.855468 5.855469 4.699218 7.03125 2.847657 1.179688 6.121094.527344 8.296876-1.648438l22.027343-22.027343 22.023438 22.027343c1.457031 1.457032 3.402343 2.230469 5.386719 2.230469.980468 0 1.96875-.191406 2.910156-.582031 2.847656-1.175781 4.699218-3.953125 4.699218-7.03125v-154.480469h38.066407c4.203125 0 7.613281-3.410156 7.613281-7.613281 0-4.207031-3.410156-7.613281-7.613281-7.613281h-36.128907c4.78125-4.742188 9.199219-10.535157 13.152344-17.320313 11.464844-19.695312 17.78125-45.71875 17.78125-73.273437 0-27.558594-6.316406-53.582031-17.78125-73.273438-3.953125-6.785156-8.371094-12.578125-13.152344-17.320312h126.890626c26.867187 0 49.566406 41.484375 49.566406 90.59375 0 49.105469-22.699219 90.59375-49.566406 90.59375h-60.308594c-4.203125 0-7.613282 3.40625-7.613282 7.613281 0 4.203125 3.410157 7.613281 7.613282 7.613281h60.308594c18.097656 0 34.792968-11.558593 47.011718-32.546875 11.464844-19.695312 17.78125-45.71875 17.78125-73.273437 0-27.558594-6.316406-53.582031-17.785156-73.273438zm-450.109375 148.253907c-6.617187-11.363282-10.261719-26.632813-10.261719-42.996094 0-16.363282 3.644532-31.632813 10.261719-42.996094 3.394531-5.832031 10.59375-15.613281 20.679687-15.613281h47.289063c1.476563 8.457031 2.277344 17.40625 2.277344 26.625 0 49.105469-22.699219 90.59375-49.566407 90.59375-10.085937 0-17.285156-9.785157-20.679687-15.613281zm67.691406-1.710938c11.464844-19.691406 17.78125-45.714844 17.78125-73.273438 0-27.554687-6.316406-53.578124-17.78125-73.273437-3.949219-6.785156-8.371093-12.578125-13.152343-17.320313h131.421874c26.867188 0 49.566407 41.488282 49.566407 90.59375 0 49.109376-22.699219 90.59375-49.566407 90.59375h-131.421874c4.78125-4.738281 9.203124-10.535156 13.152343-17.320312zm132.289063 119.21875c-1.425782-1.429688-3.363282-2.230469-5.382813-2.230469s-3.957031.800781-5.382812 2.230469l-14.414063 14.410156v-101.078125h29.429688v90.917969zm59.066406 49.429688-14.410156-14.410157c-1.488282-1.488281-3.4375-2.230469-5.386719-2.230469-1.945313 0-3.894531.742188-5.382813 2.230469l-14.410156 14.410157v-136.097657h39.589844zm32.867188-241.921876c0 49.109376-22.699219 90.59375-49.566407 90.59375h-22.519531c4.78125-4.738281 9.199219-10.539062 13.144531-17.320312 11.464844-19.691406 17.78125-45.714844 17.78125-73.273438 0-27.554687-6.316406-53.578124-17.78125-73.273437-3.949219-6.78125-8.363281-12.578125-13.144531-17.320313h22.519531c26.867188 0 49.566407 41.488282 49.566407 90.59375zm0 0" data-original="#000000" class="active-path" data-old_color="#000000" fill="#FFFFFF"/></g> </svg>
