<?xml version="1.0" encoding="utf-8"?>
<!-- Generator: Adobe Illustrator 23.0.0, SVG Export Plug-In . SVG Version: 6.00 Build 0)  -->
<svg version="1.1" id="OBJECTS" xmlns="http://www.w3.org/2000/svg" xmlns:xlink="http://www.w3.org/1999/xlink" x="0px" y="0px"
	 viewBox="0 0 250 150" style="enable-background:new 0 0 250 150;" xml:space="preserve">
<style type="text/css">
	.st0{fill:#FFFFFF;}
	.st1{clip-path:url(#SVGID_2_);}
	.st2{fill:#F63000;}
	.st3{fill:#262626;}
	.st4{fill:#999999;}
	.st5{fill:#2D2D2D;}
	.st6{opacity:0.25;fill:#666666;}
	.st7{fill:#FFFFFF;stroke:#AAAAAA;stroke-width:0.25;stroke-miterlimit:10;}
	.st8{fill:#DDDDDD;}
</style>
<g>
	<g>
		<path class="st0" d="M34.1,134.7c0,2.8,2.2,5,5,5h171.8c2.8,0,5-2.2,5-5V31.4c0-2.8-2.2-5-5-5H39.1c-2.8,0-5,2.2-5,5V134.7z"/>
	</g>
	<g>
		<defs>
			<rect id="SVGID_1_" x="34.1" y="26.4" width="46.2" height="113.2"/>
		</defs>
		<clipPath id="SVGID_2_">
			<use xlink:href="#SVGID_1_"  style="overflow:visible;"/>
		</clipPath>
		<g class="st1">
			<path class="st2" d="M33.7,134.7c0,2.8,2.2,5,5,5h171.8c2.8,0,5-2.2,5-5V31.4c0-2.8-2.2-5-5-5H38.7c-2.8,0-5,2.2-5,5V134.7z"/>
		</g>
	</g>
	<g>
		<path class="st0" d="M72.1,83.1H42.4c-0.6,0-1.1-0.5-1.1-1.1V82c0-0.6,0.5-1.1,1.1-1.1h29.7c0.6,0,1.1,0.5,1.1,1.1v0.1
			C73.1,82.7,72.6,83.1,72.1,83.1z"/>
		<path class="st0" d="M72.1,90.1H42.4c-0.6,0-1.1-0.5-1.1-1.1v-0.1c0-0.6,0.5-1.1,1.1-1.1h29.7c0.6,0,1.1,0.5,1.1,1.1V89
			C73.1,89.6,72.6,90.1,72.1,90.1z"/>
		<path class="st0" d="M62.8,97H42.4c-0.6,0-1.1-0.5-1.1-1.1v-0.1c0-0.6,0.5-1.1,1.1-1.1h20.4c0.6,0,1.1,0.5,1.1,1.1v0.1
			C63.9,96.5,63.4,97,62.8,97z"/>
		<path class="st0" d="M62.8,103.9H42.4c-0.6,0-1.1-0.5-1.1-1.1v-0.1c0-0.6,0.5-1.1,1.1-1.1h20.4c0.6,0,1.1,0.5,1.1,1.1v0.1
			C63.9,103.4,63.4,103.9,62.8,103.9z"/>
		<path class="st0" d="M62.8,117.8H42.4c-0.6,0-1.1-0.5-1.1-1.1v-0.1c0-0.6,0.5-1.1,1.1-1.1h20.4c0.6,0,1.1,0.5,1.1,1.1v0.1
			C63.9,117.4,63.4,117.8,62.8,117.8z"/>
		<path class="st0" d="M72.1,110.8H42.4c-0.6,0-1.1-0.5-1.1-1.1v-0.1c0-0.6,0.5-1.1,1.1-1.1h29.7c0.6,0,1.1,0.5,1.1,1.1v0.1
			C73.1,110.4,72.6,110.8,72.1,110.8z"/>
	</g>
	<path class="st3" d="M211.8,10.3H38.2c-2.2,0-4.1,1.8-4.1,4.1v15.8h181.8V14.4C215.9,12.2,214.1,10.3,211.8,10.3z"/>
	<g>
		<path class="st0" d="M47.3,20.3c0,1.7-1.4,3.1-3.1,3.1c-1.7,0-3.1-1.4-3.1-3.1c0-1.7,1.4-3.1,3.1-3.1
			C45.9,17.2,47.3,18.6,47.3,20.3z"/>
		<path class="st4" d="M56.4,20.3c0,1.7-1.4,3.1-3.1,3.1c-1.7,0-3.1-1.4-3.1-3.1c0-1.7,1.4-3.1,3.1-3.1
			C55.1,17.2,56.4,18.6,56.4,20.3z"/>
		<path class="st0" d="M65.6,20.3c0,1.7-1.4,3.1-3.1,3.1c-1.7,0-3.1-1.4-3.1-3.1c0-1.7,1.4-3.1,3.1-3.1
			C64.2,17.2,65.6,18.6,65.6,20.3z"/>
	</g>
	<g>
		<circle class="st0" cx="57.2" cy="56.4" r="14.4"/>
		<g>
			<path class="st5" d="M61.1,52.7c0,2.1-1.7,3.8-3.8,3.8c-2.1,0-3.8-1.7-3.8-3.8c0-2.1,1.7-3.8,3.8-3.8
				C59.4,48.8,61.1,50.6,61.1,52.7z"/>
			<path class="st5" d="M48.8,62.9l1.4-2.6c0.8-1.5,2.3-2.4,4-2.4h5.6c1.5,0,2.9,0.8,3.8,2l2,3H48.8z"/>
		</g>
	</g>
	<g>
		<g>
			<path class="st2" d="M168.9,42h31.5c4.3,0,7.7,3.5,7.7,7.7v68.8c0,4.3-3.5,7.7-7.7,7.7h-31.5c-4.3,0-7.7-3.5-7.7-7.7V49.7
				C161.2,45.5,164.6,42,168.9,42z"/>
			
				<rect x="163.1" y="51.2" transform="matrix(-1 -1.224647e-16 1.224647e-16 -1 369.2832 168.2672)" class="st0" width="43.1" height="65.8"/>
			<path class="st0" d="M177.9,47L177.9,47c0-0.3,0.3-0.6,0.6-0.6h12.3c0.3,0,0.6,0.3,0.6,0.6l0,0c0,0.3-0.3,0.6-0.6,0.6h-12.3
				C178.1,47.6,177.9,47.4,177.9,47z"/>
			<circle class="st0" cx="184.6" cy="121.3" r="2.6"/>
		</g>
		<g>
			<g>
				<path class="st6" d="M202.6,113.3H167c-0.3,0-0.6-0.3-0.6-0.6V107l2.7-2.8h33.4c0.3,0,0.6,0.3,0.6,0.6v7.9
					C203.1,113,202.9,113.3,202.6,113.3z"/>
				<path class="st6" d="M168.6,107h-2.1l2.7-2.8v2.2C169.2,106.7,168.9,107,168.6,107z"/>
			</g>
			<rect x="166.2" y="59.9" class="st6" width="9.3" height="17.3"/>
			<rect x="188.4" y="88.2" class="st6" width="14.7" height="13.3"/>
			<rect x="194.1" y="59.9" class="st6" width="9.1" height="9.1"/>
			<rect x="176.7" y="55" class="st6" width="26.4" height="3.1"/>
			<rect x="176.9" y="59.9" class="st6" width="15.2" height="1.5"/>
			<rect x="176.9" y="63.7" class="st6" width="15.2" height="1.5"/>
			<rect x="176.9" y="67.5" class="st6" width="15.2" height="1.5"/>
			<rect x="176.9" y="71.3" class="st6" width="26.3" height="1.5"/>
			<rect x="176.9" y="75.1" class="st6" width="26.3" height="1.5"/>
			<path class="st6" d="M168.2,56c0,0.6-0.4,1-1,1c-0.6,0-1-0.4-1-1s0.4-1,1-1C167.7,55,168.2,55.5,168.2,56z"/>
			<path class="st6" d="M171.8,56c0,0.6-0.4,1-1,1c-0.6,0-1-0.4-1-1s0.4-1,1-1C171.3,55,171.8,55.5,171.8,56z"/>
			<path class="st6" d="M175.4,56c0,0.6-0.4,1-1,1c-0.6,0-1-0.4-1-1s0.4-1,1-1C175,55,175.4,55.5,175.4,56z"/>
			<g>
				
					<rect x="166.5" y="100" transform="matrix(-1 -1.224647e-16 1.224647e-16 -1 352.5226 201.6459)" class="st6" width="19.6" height="1.6"/>
				
					<rect x="166.5" y="96.1" transform="matrix(-1 -1.224647e-16 1.224647e-16 -1 352.5226 193.7358)" class="st6" width="19.6" height="1.6"/>
				
					<rect x="166.5" y="92.1" transform="matrix(-1 -1.224647e-16 1.224647e-16 -1 352.5226 185.8256)" class="st6" width="19.6" height="1.6"/>
				
					<rect x="166.5" y="88.2" transform="matrix(-1 -1.224647e-16 1.224647e-16 -1 352.5226 177.9154)" class="st6" width="19.6" height="1.6"/>
				
					<rect x="166.5" y="84.2" transform="matrix(-1 -1.224647e-16 1.224647e-16 -1 369.6086 170.0053)" class="st6" width="36.7" height="1.6"/>
				
					<rect x="166.5" y="80.3" transform="matrix(-1 -1.224647e-16 1.224647e-16 -1 369.6086 162.0951)" class="st6" width="36.7" height="1.6"/>
			</g>
		</g>
	</g>
	<g>
		<path class="st7" d="M153.8,80.9h-63c-1.8,0-3.2-1.4-3.2-3.2V45.2c0-1.8,1.4-3.2,3.2-3.2h63c1.8,0,3.2,1.4,3.2,3.2v32.6
			C157,79.5,155.6,80.9,153.8,80.9z"/>
		<g>
			<path class="st8" d="M137.1,69.9H96.4c-0.6,0-1.1-0.5-1.1-1.1v-0.1c0-0.6,0.5-1.1,1.1-1.1h40.7c0.6,0,1.1,0.5,1.1,1.1v0.1
				C138.2,69.4,137.7,69.9,137.1,69.9z"/>
			<path class="st8" d="M117.6,75H96.4c-0.6,0-1.1-0.5-1.1-1.1v-0.1c0-0.6,0.5-1.1,1.1-1.1h21.2c0.6,0,1.1,0.5,1.1,1.1V74
				C118.7,74.6,118.2,75,117.6,75z"/>
		</g>
		<circle class="st8" cx="101" cy="55" r="7"/>
	</g>
	<g>
		<path class="st7" d="M118.6,126.3H89.9c-1.3,0-2.3-1-2.3-2.3V93c0-1.3,1-2.3,2.3-2.3h28.7c1.3,0,2.3,1,2.3,2.3v31
			C120.9,125.2,119.9,126.3,118.6,126.3z"/>
		<g>
			<path class="st8" d="M95.2,123.7h-1.7c-0.6,0-1.1-0.5-1.1-1.1v-0.1c0-0.6,0.5-1.1,1.1-1.1h1.7c0.6,0,1.1,0.5,1.1,1.1v0.1
				C96.2,123.2,95.7,123.7,95.2,123.7z"/>
		</g>
		<g>
			<path class="st8" d="M115.2,118.9H93.4c-0.6,0-1.1-0.5-1.1-1.1v-0.1c0-0.6,0.5-1.1,1.1-1.1h21.7c0.6,0,1.1,0.5,1.1,1.1v0.1
				C116.2,118.5,115.8,118.9,115.2,118.9z"/>
		</g>
		<ellipse transform="matrix(0.2431 -0.97 0.97 0.2431 -22.4196 179.6463)" class="st5" cx="103.9" cy="104.2" rx="8.1" ry="8.1"/>
	</g>
	<g>
		<path class="st7" d="M154.7,126.3H126c-1.3,0-2.3-1-2.3-2.3V93c0-1.3,1-2.3,2.3-2.3h28.7c1.3,0,2.3,1,2.3,2.3v31
			C157,125.2,156,126.3,154.7,126.3z"/>
		<g>
			<path class="st8" d="M131.3,123.7h-1.7c-0.6,0-1.1-0.5-1.1-1.1v-0.1c0-0.6,0.5-1.1,1.1-1.1h1.7c0.6,0,1.1,0.5,1.1,1.1v0.1
				C132.3,123.2,131.8,123.7,131.3,123.7z"/>
		</g>
		<g>
			<path class="st8" d="M151.3,118.9h-21.7c-0.6,0-1.1-0.5-1.1-1.1v-0.1c0-0.6,0.5-1.1,1.1-1.1h21.7c0.6,0,1.1,0.5,1.1,1.1v0.1
				C152.3,118.5,151.9,118.9,151.3,118.9z"/>
		</g>
		<ellipse transform="matrix(0.2431 -0.97 0.97 0.2431 4.9057 214.6646)" class="st5" cx="140" cy="104.2" rx="8.1" ry="8.1"/>
	</g>
</g>
</svg>
