<svg xmlns="http://www.w3.org/2000/svg" viewBox="0 0 162.52401 161.90143"><defs><style>.cls-1{fill:#fff;}.cls-2{fill:#212e40;}</style></defs><title>Asset 2</title><g id="Layer_2" data-name="Layer 2"><g id="OBJECTS"><path class="cls-1" d="M112.434,153.3701c.3481-.0396.7517.0169.8041-.5036.0433-.4307.2104-.2748.4445-.1192.1068.0709.3197-.0178.4845-.0342-.0973-.5418.1792-.52.6044-.4808.6693.0617,1.3489.0283,1.4319-.9073.0069-.0776.1702-.1764.277-.2047,1.5477-.4111,2.6475-1.6374,4.0981-2.2412a13.89758,13.89758,0,0,0,1.7221-1.1609c.7505-.4593,1.5891-.7929,2.2833-1.3206.5774-.439,1.2879-.5827,1.8405-1.0119a30.39534,30.39534,0,0,1,4.279-3.1602,3.00193,3.00193,0,0,0,.5196-.4912c.1352-.123.2847-.2302.4243-.3485.3541-.2999.7172-.5904,1.0551-.9077.2008-.1887.3398-.5799.5426-.6066.9801-.1291,1.2327-1.162,2.0258-1.5402.3782-.1804.5496-.7595.8687-1.1086.335-.3664.7424-.6656,1.1045-1.0085a9.75119,9.75119,0,0,0,1.738-1.7389c.4315-.7017,1.2837-1.0474,1.486-1.9058a.36619.36619,0,0,1,.261-.2264c1.1572-.0082,1.2334-1.4299,2.206-1.6902.0815-.0218.1243-.3494.1119-.5299a1.36414,1.36414,0,0,1,.6165-1.0972,10.36031,10.36031,0,0,1,.9385-.6173c.1294-.0952.3123-.3019.2822-.4001-.2245-.7319.462-.9393.801-1.1686.5485-.3709.6154-.2692.7385-.7731.0269-.1102.0702-.3047.1171-.3081.5133-.0374.4291-.5773.6987-.8316.2908-.2744.3549-.7743.6101-1.1047.331-.4285.8232-.7406,1.1173-1.1875a14.78147,14.78147,0,0,0,.7755-1.6532,3.97569,3.97569,0,0,1,.3728-.4495,4.92659,4.92659,0,0,0,.9481-1.4556c.1811-.7745.8202-1.2719.9865-2.0474.0884-.4127.51-.759.7978-1.1222.2264-.2859-.0017-.8434.5619-.9302.0401-.0062.108-.1543.0862-.192-.3111-.5379.1766-.8134.4097-1.1261a2.82641,2.82641,0,0,0,.5927-1.3231c.0352-.247.2587-.4667.2965-.7141.1186-.7776.784-1.3066.788-2.1917a14.36147,14.36147,0,0,1,.6139-2.8014c.1706-.7964.5667-1.5447.7158-2.3072a21.57789,21.57789,0,0,1,1.2504-4.5296c.231-.5291-.0815-.9278.1154-1.4392a11.32756,11.32756,0,0,0,.6876-3.2197c.0384-.5302.3072-.9489.3442-1.4511.0706-.9572.1713-1.9127.2807-2.8665.1082-.9441.3152-1.8707.4146-2.823.1493-1.4315.2795-2.8522.3016-4.2926.0289-1.8873.1164-3.772.0855-5.6623-.0074-.4515-.2712-.845-.1865-1.2227.278-1.2399-.094-2.4723.0588-3.7209a11.17853,11.17853,0,0,0-.3262-2.7093c-.0646-.4845-.0852-.978-.1911-1.4528-.0755-.3386-.3263-.6427-.3782-.9808-.0571-.3721-.124-.8928.0748-1.1234.4351-.5047-.485-.4691-.2352-.7919.2474-.3197.0225-.5783-.0229-.8821-.123-.8231-.3604-1.6196-.4928-2.4414-.1939-1.2041-.5367-2.3857-.8494-3.5647-.2551-.9617-.4295-1.9359-.6634-2.8986a6.50662,6.50662,0,0,0-.6104-1.7726,2.29107,2.29107,0,0,1-.3177-.7912c-.1591-.792-.7776-1.443-.7989-2.3051a.37755.37755,0,0,0-.2224-.2651c-.4995-.1587-.2888-.7011-.5543-.9922-.1069-.1171-.0312-.4349-.1413-.509a.9615.9615,0,0,1-.4385-1.0063.71037.71037,0,0,0-.3386-.5844c-.4437-.1417-.4797-.5134-.5722-.8315-.1866-.6413-.8925-1.081-.7092-1.8716.0239-.103-.145-.2709-.2529-.3811a4.656,4.656,0,0,1-1.3198-2.3065c-.0532-.1816-.1612-.4704-.2796-.4897-.7109-.1155-.7655-.6852-.9298-1.2018-.4267-1.341-1.5228-2.2511-2.2284-3.4142a.85844.85844,0,0,0-.4715-.338c-.297-.0814-.2348-.1992-.1478-.4089a.513.513,0,0,0-.0389-.424,4.8128,4.8128,0,0,0-1.4193-1.5856,1.58724,1.58724,0,0,1-.5132-.4456c-.2872-.4134-.4351-1.023-.8182-1.2463-.5351-.3118-.6456-.8855-.9919-1.1849a15.81488,15.81488,0,0,1-1.1229-1.4249,3.31739,3.31739,0,0,0-.3925-.4043,5.04205,5.04205,0,0,1-1.2637-1.4766,1.11567,1.11567,0,0,0-.4759-.3284,1.85543,1.85543,0,0,1-1.2148-1.484.58811.58811,0,0,0-.2572-.3381c-.2795-.1459-.6023-.2095-.5649-.6509.0058-.0691-.2706-.1651-.4191-.2437a2.12,2.12,0,0,1-.5124-.2707c-.3553-.3499-.8903-.6968-.9606-1.1115-.0889-.524-1.252-.1061-.7125-.9479-.0991-.037-.218-.1292-.2942-.1019-.5356.1917-.6697-.2075-.6987-.5479-.0326-.3822-.1082-.4926-.4851-.3603-.1808.0634-.2724-.1171-.4087-.2238-.3958-.3099-.8194-.5582-.9885-1.0686-1.0939-.2323-1.3824-1.6991-2.6228-1.7162-.049-.0006-.1276-.1085-.1398-.1759-.1065-.5918-.6091-.748-1.048-.9845-.694-.3739-1.3874-.7502-2.0669-1.1495-.4698-.2761-.9089-.6042-1.3746-.8878-.4223-.2571-.982-.3909-1.2646-.7496-.3783-.4802-.9319-.4475-1.3419-.7247-.8389-.5671-1.8918-.8125-2.5377-1.676a.52249.52249,0,0,0-.4098-.1858c-.5317.085-.836-.31-1.2183-.5312-.3732-.2158-.7184-.6439-1.0902-.6606a1.73956,1.73956,0,0,1-1.293-.6816c-.3354-.455-.892-.3449-1.1554-.6851-.2764-.357-.4942-.2733-.8576-.2415-.241.0212-.5159-.3985-.7877-.6049-.0322-.0244-.1453.044-.213.0829-.1579.0908-.3313.1618-.2905-.1219.0346-.2409-.0077-.3387-.2555-.4156a15.46048,15.46048,0,0,1-3.3859-1.3062,8.97984,8.97984,0,0,0-2.0148-.6025,16.10942,16.10942,0,0,1-2.8534-.9751,5.44685,5.44685,0,0,0-1.0392-.435c-.7411-.2024-1.4994-.3415-2.2427-.5368-.8659-.2274-1.7228-.4889-2.5845-.7325-1.5004-.4241-3.0739-.3198-4.5981-.7213a26.09835,26.09835,0,0,0-4.6373-.5734,2.74241,2.74241,0,0,1-1.4442-.2497,1.05055,1.05055,0,0,0-.5817-.068,5.78733,5.78733,0,0,1-1.8984.0873c-1.2203-.3931-2.4165.0952-3.6399-.1039a18.96874,18.96874,0,0,0-2.4132-.1073,24.43921,24.43921,0,0,0-2.6823-.1293,37.999,37.999,0,0,1-5.1226.1394c-.2644-.0136-.6294-.029-.783.123-.5158.5102-1.173.2943-1.735.3536a4.87263,4.87263,0,0,0-1.8384.4026,1.75934,1.75934,0,0,1-.5557.0958c-1.0494.1481-2.0787.4042-3.1382.5159-.5951.0628-1.1172.6044-1.7916.3352-.4444.6152-1.1859.2878-1.7426.5488a.67733.67733,0,0,1-.8601-.2039c-.3356-.4055-.5014-.2179-.6536.1389a1.11307,1.11307,0,0,1-1.1328.7066,2.47273,2.47273,0,0,0-.8516.2496c-.0546.0223-.0424.209-.061.3198a1.1288,1.1288,0,0,1-.1953-.2274c-.2831-.5975-.3249-.6096-.7226-.14-.1795.2121-.3303.4506-.5245.6471-.0955.0964-.3269.2123-.3833.1695-.5134-.3892-.8707-.2426-1.1746.2647a.37987.37987,0,0,1-.2999-.0661c-.2386-.2649-.3776-.1242-.5799.0599a1.686,1.686,0,0,1-.6754.3857,7.02008,7.02008,0,0,0-2.5414,1.2548c-.08.0615-.2768-.0308-.4198-.0484-.1027-.0126-.2889-.0483-.297-.0249-.1964.5678-.7287.4774-1.1465.6531a11.18973,11.18973,0,0,1-1.9352,1.0066c-.3138.0709-.5586.6646-1.0747.6697-.1695.6905-.9017.3032-1.2632.6585a4.89147,4.89147,0,0,1-.7735.5072,6.18949,6.18949,0,0,0-1.22.8433c-.3637.398-.8677.3601-1.2827.5813-.7189.3833-1.4437.7319-2.1307,1.1897-.6363.424-1.4312.6012-1.8277,1.3639a.71217.71217,0,0,1-.4889.32,2.38123,2.38123,0,0,0-1.8572,1.118.65718.65718,0,0,1-.359.277,2.28269,2.28269,0,0,0-1.2744.7136,8.31468,8.31468,0,0,1-1.199.8348c-.3136.2311-.7188.4428-.8739.7642a7.69479,7.69479,0,0,1-1.9362,2.1875c-.143.1331-.4533.2447-.4475.3537.0361.6885-.5745.7833-.9286,1.1187-.3941.3732-1.023.5241-1.0829,1.2383-.0174.2066-.3579.3971-.5678.5742-.5261.4439-1.2456.7733-1.5588,1.3326-.8198,1.4642-2.371,2.2317-3.2402,3.6356a3.347,3.347,0,0,1-1.1704.8539c-.3598.2183-.4338.8986-.6511,1.3667a1.54759,1.54759,0,0,1-.2863.3824c-.1767.189-.3383.4485-.5596.5263-.3487.1226.023.5965-.3936.6418-.6773.0738.2111.2478-.0241.4496a5.16348,5.16348,0,0,0-.885,1.0545c-.3264.4866-.5924,1.0133-.8947,1.5166a2.24466,2.24466,0,0,1-.523.7526c-.3175.2095.2326.6521-.2402.7103a.70584.70584,0,0,0-.6097.772c.0802.6886-.7854.9564-.6188,1.6273-.7798.5016-.8228,1.3651-1.0805,2.1341a3.61405,3.61405,0,0,1-.5728.8378,2.0072,2.0072,0,0,0-.2692.3733c-.1674.4199-.2992.8539-.4629,1.2753a6.27918,6.27918,0,0,1-.4914,1.1148c-.2098.3291-.1092.8448-.5951,1.004.1239.7117-.6949,1.0532-.6786,1.7339.0049.2091-.1939.4448-.1452.6272.1583.5927-.4717.7422-.5927,1.1794-.4004,1.4472-.9543,2.8457-1.3732,4.29a6.3089,6.3089,0,0,1-.8652,2.5367c.0749,1.2189-.5459,2.2692-.8313,3.4006-.0581.2304.255.3481.0143.7015-.3874.5689-.3113,1.3611-.5527,2.0468a14.63531,14.63531,0,0,0-.2473,2.1402c-.3704,1.9939-.5705,4.0097-.8272,6.018a6.504,6.504,0,0,1-.0916,1.2393,15.79075,15.79075,0,0,0-.4124,2.9299c-.0265.2634.1614.5578.1083.8076a12.00915,12.00915,0,0,0-.1991,3.3982c.1124,1.5799-.0637,3.1788.0054,4.7642.033.7555-.3934,1.5274.1404,2.304.1721.2503-.006.8198-.159,1.187-.0994.2387-.0813.3468.0634.5005.1033.1098.2045.2215.3067.3323-.6616.4586.0607.902.0111,1.347-.0757.6775.4384,1.319.0981,2.0144-.0462.0942.0726.2692.1149.4069l.3233-.196c-.053.1362-.0701.3101-.1659.4014-.261.2484-.1868.4869-.0597.7565.0942.1997.2784.4804.2087.6101-.1919.3572-.0087.6098.1037.8967a3.486,3.486,0,0,1,.3336,1.4266,2.82644,2.82644,0,0,0,.3348.9601c.0643.1708.2129.3564.1833.508-.1389.71.6927,1.235.3569,1.9736-.0186.0408.0551.1696.1114.1915.5574.2167.4292.7095.482,1.137a4.07093,4.07093,0,0,0,.2042,1.155c.7562,1.6827,1.0751,3.5076,1.7413,5.2178a15.4171,15.4171,0,0,0,.6301,1.7144c.6179,1.1532,1.0308,2.3916,1.5728,3.5756a10.24481,10.24481,0,0,1,1.1862,2.5678c.0385.2412.48-.075.4223.3603a1.97966,1.97966,0,0,0,.2342.8718c.1602.4157.4728.7337.3972,1.2826a1.88356,1.88356,0,0,0,.4273,1.2773,5.57059,5.57059,0,0,1,1.2784,2.341,1.37433,1.37433,0,0,0,.2723.5214c.5961.6975,1.4205,1.2435,1.4704,2.2937.0031.0636.0968.1827.1274.1763.5573-.1167.5809.3042.7918.6474.1993.3245.668.4784.4975,1.0037-.0094.0287.2736.1184.3747.2236.256.2668.7203.6068.6744.8296-.0798.3876.1419.5038.293.7008.2324.3029.4916.5852.7408.8752.3021.3516.5487.8748.9264.9993.3096.1021.5083.1338.5078.4506-.0005.3232.0205.5602.435.4688.0278.6106.6794.5707.948.9157.1818.2335.1945.6974.404.793.8228.3756,1.2676,1.1977,2.04,1.6135.1363.0734.3693.2014.3589.2768-.1133.8244.4161,1.0417,1.0503,1.2164a.73169.73169,0,0,1,.4487.3719c.3347.9398,1.1628,1.3527,1.8919,1.8896a8.34552,8.34552,0,0,1,1.5632,1.3683c.415.5102,1.078.774,1.3405,1.4252.0502.1244.238.2046.3758.2806.8673.4785,1.7405.9463,2.6046,1.4306a.32941.32941,0,0,1,.1406.2684c-.0696.3707.0937.2711.2991.1807.1062-.0466.2916-.0927.3502-.0392a7.07083,7.07083,0,0,0,1.2019,1.1343c.5613.3012.8689,1.1286,1.7158.8884.0744-.0212.2016.1147.294.1903a9.71745,9.71745,0,0,0,2.843,1.985c.4646.165.9155.5558,1.4411.7498a9.13814,9.13814,0,0,1,1.2194.6825c.562.3139,1.2836.3462,1.6789.9538.9228-.2182,1.3641,1.0413,2.3098.7525.5739.7545,1.5935.6927,2.2541,1.2031.4705.3636,1.0913.0374,1.4037.4771.3288.4628.8674.4341,1.2749.6955.1774.1138.4832.0162.6791.1159.1752.0893.2469.3788.4219.4721.3691.197.8191.5108,1.1568.4331a1.22115,1.22115,0,0,1,1.0861.2371c.8532.6961,2.0834.5722,2.8742,1.3809.0742.076.3017-.014.454.0052a3.21706,3.21706,0,0,1,.9081.1615,8.70174,8.70174,0,0,0,3.5725.9703,4.12276,4.12276,0,0,1,1.2309.2029c.4486.144.8518.435,1.3028.564.4175.1195.9461-.0191,1.2955.1822a8.18931,8.18931,0,0,0,2.6059.5235,2.39042,2.39042,0,0,1,.9626.3781c.3147.2185.6637-.4928,1.1311-.206.0915.0562.3274.0003.3403.0432.3175,1.0557,1.0072.3163,1.535.3249.2654.0044.6613-.1275.7712-.0008.2685.3094.5915.2293.8677.2269.8691-.0075,1.7142.4696,2.5953.1257.6671.4332,1.3756-.0521,2.0907.1004a10.90829,10.90829,0,0,0,2.2373-.0964,15.76014,15.76014,0,0,1,3.1754.1222c.5997.1204.9349-.2802,1.4477-.289,1.0896-.0189,2.174-.3053,3.2642-.3318a7.095,7.095,0,0,0,3.0807-.436c.1007-.0493.2886.0662.4306.1196a2.60784,2.60784,0,0,1,.2931.1526c.2504-.6822.9454-.3649,1.3997-.6087.4351-.2336.9663-.7288,1.4013.0687.0282.0518.2893-.0035.4349-.0388,1.3494-.3266,2.7007-.6466,4.044-.997a9.16176,9.16176,0,0,0,1.7372-.5869,1.88059,1.88059,0,0,1,.8526-.3136,1.96323,1.96323,0,0,0,.8771-.2924c.5413-.3051.9897-.835,1.7239-.608.0521.0162.1447-.1471.2351-.1965a5.91882,5.91882,0,0,1,.6897-.3364c.3948-.1532.7965-.2894,1.199-.4215.4113-.135.7579-.5804,1.2699-.2702.0323.0196.1807-.0717.177-.0854-.1452-.5462.3527-.414.5683-.4805a2.19268,2.19268,0,0,1,.8933-.021.84317.84317,0,0,0,.9783-.4681Z"/><g id="pfIhSx.tif"><path class="cls-2" d="M161.88436,68.4537c.0694.7421.1258,1.4856.2112,2.2259a21.08444,21.08444,0,0,1,.3829,4.7519c-.1559,1.4433-.0176,2.9161-.118,4.3683-.0644.9318.0122,1.8586-.0929,2.7968-.2058,1.8377-.0178,3.6987-.2495,5.5515a7.09938,7.09938,0,0,0-.2548,2.2172c.1035.5035.3042.8607-.2433,1.1784-.0741.043-.1067.2165-.1022.3273.0689,1.6924-.5509,3.3002-.6058,4.9742-.0163.4986-.5133.8642-.2804,1.4436.1688.4198-.2826.7903-.2905,1.2758-.0083.5106-.4356,1.001-.5913,1.5265a10.21141,10.21141,0,0,1-.2625,1.4614c-.2164.4523-.1583.931-.3489,1.3859-.2995.7151-.3953,1.5128-.6233,2.2616-.2569.8439-.559,1.6744-.8531,2.5066a9.58144,9.58144,0,0,0-.3832.9589c-.1265.5415-.662.9107-.579,1.5543.0287.2227-.2435.4742-.3439.7262-.1111.2787-.1617.582-.2771.8585a6.68625,6.68625,0,0,1-.4665.9152c-.1699.2774-.5518.5322-.5468.7912.0226,1.1745-.8442,1.9062-1.2488,2.8549a8.4761,8.4761,0,0,0-.9217,2.3369.99423.99423,0,0,1-.3321.484c-.3632.3617-.7564.6961-.6593,1.2928a.26844.26844,0,0,1-.0663.2225c-.4992.33-1.0531.7006-1.0027,1.3384.0553.7008-.9333.7603-.7463,1.4554-.8849.3011-.7299,1.4751-1.5422,1.8372-.1531,1.2816-1.5028,1.8138-1.864,2.9999-.1561.5124-1.0776.5481-1.113,1.2842-.5504.0806-.5555.9433-1.2347.8623-.0677-.0081-.1885.1536-.2314.2583-.2552.6235-.3528,1.3729-1.2403,1.4641-.0183.0018-.0579.1526-.0315.1803.415.434-.0843.694-.2543.8872a16.89416,16.89416,0,0,1-2.3896,2.4246c-.7858.5919-1.0951,1.5752-1.9791,2.0611-.3766.2069-.8753.2832-1.1023.8023-.0607.1388-.3859.2398-.4363.5511-.0262.1614-.2237.3193-.378.4316-1.2554.9134-2.5193,1.8151-3.7791,2.7223a.85612.85612,0,0,0-.2656.233c-.4401.7983-1.2689,1.1747-1.892,1.7718a10.20838,10.20838,0,0,1-2.8084,1.7875c-.407.1907-.0438.5413-.3414.625a8.18274,8.18274,0,0,0-.8962.2523c-.2834.1162-.689.234-.7836.4593-.4068.9679-1.6225.7366-2.1346,1.5151-.0307.0466-.2321-.0178-.3538-.0326-.4618-.0559-.4342-.05-.5467.4445a.846.846,0,0,1-.3815.4866q-2.06475,1.1448-4.1552,2.2429a9.48767,9.48767,0,0,1-1.6515.7397c-.9464.2831-1.6214,1.144-2.6597,1.2036-1.057.9535-2.5686.8627-3.7222,1.6178a4.57227,4.57227,0,0,1-1.1418.2945c-1.0089.309-2.0121.6369-3.0171.9584-.2934.0938-.333.6905-.8102.4167-.49-.2813-.6971.2059-1.0359.3516-.3192.1373-.6899.1494-1.0231.2608a1.091,1.091,0,0,1-1.0195.0191c-.1305-.0758-.453.2339-.7055.3034-.9775.269-1.9574.5332-2.9468.7523a6.97739,6.97739,0,0,1-.9436-.0283,5.9918,5.9918,0,0,0-.7372.1829c-.1663.0342-.3458.01-.5091.0522a4.12915,4.12915,0,0,1-1.92.3067.84881.84881,0,0,0-1.0812.5238c-.0145.0532-.1697.1228-.1754.1159-.5856-.7169-1.1154.5271-1.7198.0488a.69714.69714,0,0,0-.6411.0184.98138.98138,0,0,1-1.2141.0836.46567.46567,0,0,0-.4312-.0153c-.554.4853-1.2099.2052-1.8101.2528a27.962,27.962,0,0,0-4.7431.3072,3.06285,3.06285,0,0,1-1.8425-.1211c-.452-.1958-.7655.4919-1.1838-.0194-.3183-.389-.7129-.0651-1.0687.1202-.0687.0358-.2604-.2456-.4149-.2739a5.276,5.276,0,0,0-.6696.0372c-.6614-.0302-1.3214-.0977-1.983-.1179-.371-.0113-.9292.2051-1.0797.0342-.3812-.4331-.7364-.104-1.0903-.1569a11.28652,11.28652,0,0,0-1.1213-.2678c-1.0635-.0443-2.0446-.5884-3.1412-.4644-.2949.0334-.6126-.2274-.9318-.3003-.9856-.2249-2.0065-.2162-2.9915-.5028-.5692-.1656-1.2129-.0718-1.7202-.4815-.7091.297-1.18-.4412-1.87-.4151a3.41256,3.41256,0,0,1-1.7954-.4282,20.28508,20.28508,0,0,0-2.3826-.9156,22.31443,22.31443,0,0,1-3.7598-1.5439c-.2894-.1967-.7477-.1356-1.1233-.2163a28.86981,28.86981,0,0,1-5.1512-1.6836c-1.005-.4239-1.9635-.975-2.9926-1.321a40.48926,40.48926,0,0,1-4.3885-2.156,16.26394,16.26394,0,0,1-2.3318-1.5301,6.89,6.89,0,0,0-1.9795-1.1827,1.02481,1.02481,0,0,1-.5935-.3847c-.4431-.8469-1.3921-1.03-2.0399-1.6136-.831-.7488-1.7805-1.3658-2.5451-2.2008a1.66893,1.66893,0,0,0-.5138-.2717,7.842,7.842,0,0,1-1.6307-1.1332,38.081,38.081,0,0,0-3.7304-3.328,4.7956,4.7956,0,0,1-.8157-.9313,1.44624,1.44624,0,0,0-.347-.304,6.49232,6.49232,0,0,1-.806-.4196c-.2571-.2015-.6816-.5561-.6308-.7165.1658-.5232-.3843-.3207-.494-.6023a2.2975,2.2975,0,0,0-.9516-1.2742c-1.0912-.4482-1.4239-1.6862-2.4594-2.1337-.3179-.1374-.0925-.4216-.1788-.6-.0835-.1723-.3251-.2602-.4489-.4222-.6813-.8913-1.2328-1.8732-1.9792-2.7246-.3216-.367-.3789-.9026-.8446-1.253-.3477-.2616-.4357-.8467-.6992-1.2486-.2102-.3205-.5468-.5574-.7626-.8753-.3218-.474-.543-1.0624-.8747-1.4696a4.15953,4.15953,0,0,1-.8327-1.4535.45127.45127,0,0,0-.119-.2013,5.35555,5.35555,0,0,1-1.2729-2.306c-.3529-.9336-.8778-1.8009-1.2923-2.7132-.3162-.6959-.5499-1.4296-.8734-2.1216-.175-.3744-.5357-.6692-.677-1.0502-.1474-.3977-.0631-.8803-.2054-1.2813-.1688-.4754-.5119-.8866-.7043-1.3564-.1814-.443-.2307-.9389-.4004-1.388a9.83658,9.83658,0,0,1-.6643-1.8922,23.51819,23.51819,0,0,0-.9721-2.5631c-.2868-1.0132-.4268-2.0717-.761-3.0667-.2291-.6821-.3749-1.3895-.6064-2.0475-.3072-.8731-.3331-1.7799-.599-2.6432-.0462-.1503-.0018-.4264-.0751-.4558-.8862-.3562-.34-1.2544-.697-1.8062-.058-.0897.0245-.273.0482-.4121.024-.1412.1298-.3457.0724-.4116a3.39259,3.39259,0,0,1-.5181-2.2941c-.0789-1.4952-.3673-2.9762-.2979-4.4819a5.97269,5.97269,0,0,1,.0471-1.2818c.1138-.4108-.4391-.7358-.0676-1.1519.0576-.0646-.121-.3205-.1585-.4947a2.19,2.19,0,0,1-.0591-.5884c.0096-.1548.176-.3492.1245-.4506a4.41376,4.41376,0,0,1-.1112-2.2803c.0036-.1416.0745-.3128.018-.4193a1.32184,1.32184,0,0,1,.0241-1.247c.2244-.5194.1506-.7801-.1527-1.5425-.0268-.0672-.0682-.1903-.0455-.2064.6149-.435.4552-.9256.135-1.4479-.0209-.0341.125-.1779.2017-.2631.1885-.2093.2379-.4377-.0055-.6141-.1809-.1311-.3473-.2367-.1202-.4307a.7973.7973,0,0,0,.198-.9643,2.29713,2.29713,0,0,1-.0699-.9903c.3265-1.9846.6755-3.9655,1.0351-5.9444.1738-.9564.3911-1.9049.5802-2.8586.0688-.3472.1199-.6984.1652-1.0496.0203-.1571-.05-.3488.0168-.4734.6737-1.2566.581-2.7031,1.018-4.021.4064-1.2252.6175-2.5203,1.0819-3.7197.6957-1.7968,1.2673-3.6318,1.8987-5.4482.2029-.5834.7397-1.114.7599-1.6818.0265-.7454.7414-1.2368.5576-1.9909.8077-.4626.459-1.5694,1.1688-2.102a.82438.82438,0,0,0,.1994-.5354c.0966-.9935,1.2478-1.5608,1.0659-2.6609.8493-.2866.5389-1.4449,1.3328-1.7732-.0636-.6977.4619-1.1301.7197-1.687a20.87633,20.87633,0,0,1,2.3602-3.7942,10.23232,10.23232,0,0,0,.5681-1.1106,3.59473,3.59473,0,0,1,.4868-.6237c.0749-.0814.2183-.0956.308-.1682.3679-.2976.1225-.9165.7473-1.1801.3729-.1573.5353-.8307.7745-1.2815.1509-.2846.1109-.7669.6728-.5729.0414.0143.1793-.0897.1755-.1295-.0839-.8877.7832-.9879,1.1999-1.457.0767-.0864.2782-.1686.2668-.2108-.1832-.6783.2883-.7865.7451-1.0506.3776-.2182.5724-.7379.8777-1.0991.8091-.9572,1.6095-1.9239,2.4623-2.8413a9.04424,9.04424,0,0,1,1.6836-1.4851,4.75915,4.75915,0,0,0,1.3567-1.3034A21.07211,21.07211,0,0,1,29.117,17.13a2.61762,2.61762,0,0,1,1.5295-.8613c.6044-.0831-.2462-.2161.0067-.368.3674-.2208.7003-.4983,1.0573-.7376a5.49806,5.49806,0,0,0,.7962-.4979c.3735-.3603.681-.7764,1.2817-.7656.5156.0093.5133-.88,1.1517-.6974.2741-.388,1.0196-.2889,1.006-.974.9181-.1825,1.5504-.9027,2.3693-1.2587.4705-.2046.8928-.6144,1.488-.4801a.35923.35923,0,0,0,.3057-.1597,1.099,1.099,0,0,1,1.1709-.704c.5722-.7297,1.743-.4317,2.2339-1.3012.8813.1199,1.3271-1.028,2.2724-.7793.1398.0368.3522-.1542.5154-.2631a9.60155,9.60155,0,0,1,2.9665-1.35c.9544-.2464,1.8307-.7808,2.7675-1.1148.8841-.3152,1.8094-.5125,2.703-.8035.8213-.2674,1.6231-.5944,2.4365-.8867.2195-.0788.4494-.1292.6756-.1886.4433-.1164.8973-.2011,1.3293-.35a49.99912,49.99912,0,0,1,4.987-1.1221c.852-.1996,1.7081-.3825,2.5652-.5589a2.196,2.196,0,0,1,.4179.0338,2.61187,2.61187,0,0,0,.945-.0327c.9626-.3959,1.9948-.1431,2.9414-.351a19.865,19.865,0,0,1,3.3509-.2782c1.0616-.0518,2.1237-.5265,3.2328-.1091.3845.1447.8988-.0864,1.3546-.0927.5919-.0083,1.1847.0545,1.7769.0526a7.79662,7.79662,0,0,1,1.3961-.063c.6845.128,1.3262-.1762,2.0709.0593.6745.2132,1.5173.0501,2.2543.3328.0358.0137.1043.026.1146.0105.5188-.7855,1.0881-.0116,1.6307-.0465.3507-.0225.7081.0733,1.0605.0606a1.51476,1.51476,0,0,1,.8835.1753,3.60468,3.60468,0,0,0,1.357.2291,30.0582,30.0582,0,0,1,3.5317.4764c.1072.0246.2205.1903.2941.1681,1.0748-.3236,2.0494.18,3.0371.4129.5002.1179,1.0926-.2137,1.5268.3519.3458.4505.9815.119,1.4886.424a6.01428,6.01428,0,0,0,1.9488.3859,2.16389,2.16389,0,0,1,.7855.2149c.2416.1586.3858.4578.606.6591.1739.1589.3745-.433.6494.0312.1717.2901.7069-.2124,1.0348.2698a1.22807,1.22807,0,0,0,1.0204.4483c.8694-.1895,1.5475-.1096,1.9867.7427.4562-.6259.4935.6649.9145.1998a2.172,2.172,0,0,0,1.1602.2559c.3884-.0156.785.4298,1.1973.632.1915.094.4744.0336.634.1529.1959.1465.366.6098.4437.5868.5442-.1613.8513.3258,1.2979.3994a5.48229,5.48229,0,0,1,2.857,1.4701c.2899.2684.5106.6212,1,.4913.0828-.022.2138.1531.3029.1358.3912-.0757.2401.741.7929.4572.1028-.0527.407.2869.6182.4455l1.0406.3627a2.31452,2.31452,0,0,1,.5506.1866,5.52917,5.52917,0,0,0,1.7259.9791c.1768.0411.2879.4087.4089.6371.1962.3702.3935.627.7637.1534.0274-.0351.2467.0104.3041.0791.4824.5778.4831.5616.7902.6326a1.41767,1.41767,0,0,1,.7351.3175c.8623,1.0019,2.1459,1.4205,3.0955,2.2929.101.0929.2461.1579.3075.2704.3954.7239,1.1659,1.0236,1.7418,1.5408.8696.7812,1.83,1.4607,2.7406,2.1973.3938.3186.7582.6732,1.138,1.0091,1.1345,1.0034,2.1852,2.0908,3.2242,3.191a35.37156,35.37156,0,0,1,2.9195,3.1136c.6907.9377,1.7399,1.511,2.2654,2.6383.3591.7702,1.2132,1.304,1.8218,1.9657.2894.3147.5039.6973.7844,1.0213a20.3554,20.3554,0,0,1,2.3722,3.4125c.2958.5287.8969.8786.9754,1.5602a.287.287,0,0,0,.1212.1965c.9882.5183,1.2876,1.5369,1.7796,2.4182a4.16141,4.16141,0,0,0,.4354.5585c.1249.1542.3445.2918.3681.4586.2111,1.4949,1.6267,2.4137,1.8435,3.8981.9953,1.4756,1.6006,3.1575,2.4805,4.702a27.51008,27.51008,0,0,1,1.8452,4.7804,2.39671,2.39671,0,0,1,.2475,1.6883c.7319.6164.5731,1.5371.7502,2.3258.3773,1.6803.6534,3.3834.9697,5.0774a1.61446,1.61446,0,0,0,.0798.4699c.545.9816.2739,2.1268.6418,3.1433a1.47451,1.47451,0,0,1,.0071.4748ZM112.434,153.3701c.3481-.0396.7517.0169.8041-.5036.0433-.4307.2104-.2748.4445-.1192.1068.0709.3197-.0178.4845-.0342-.0973-.5418.1792-.52.6044-.4808.6693.0617,1.3489.0283,1.4319-.9073.0069-.0776.1702-.1764.277-.2047,1.5477-.4111,2.6475-1.6374,4.0981-2.2412a13.89758,13.89758,0,0,0,1.7221-1.1609c.7505-.4593,1.5891-.7929,2.2833-1.3206.5774-.439,1.2879-.5827,1.8405-1.0119a30.39534,30.39534,0,0,1,4.279-3.1602,3.00193,3.00193,0,0,0,.5196-.4912c.1352-.123.2847-.2302.4243-.3485.3541-.2999.7172-.5904,1.0551-.9077.2008-.1887.3398-.5799.5426-.6066.9801-.1291,1.2327-1.162,2.0258-1.5402.3782-.1804.5496-.7595.8687-1.1086.335-.3664.7424-.6656,1.1045-1.0085a9.75119,9.75119,0,0,0,1.738-1.7389c.4315-.7017,1.2837-1.0474,1.486-1.9058a.36619.36619,0,0,1,.261-.2264c1.1572-.0082,1.2334-1.4299,2.206-1.6902.0815-.0218.1243-.3494.1119-.5299a1.36414,1.36414,0,0,1,.6165-1.0972,10.36031,10.36031,0,0,1,.9385-.6173c.1294-.0952.3123-.3019.2822-.4001-.2245-.7319.462-.9393.801-1.1686.5485-.3709.6154-.2692.7385-.7731.0269-.1102.0702-.3047.1171-.3081.5133-.0374.4291-.5773.6987-.8316.2908-.2744.3549-.7743.6101-1.1047.331-.4285.8232-.7406,1.1173-1.1875a14.78147,14.78147,0,0,0,.7755-1.6532,3.97569,3.97569,0,0,1,.3728-.4495,4.92659,4.92659,0,0,0,.9481-1.4556c.1811-.7745.8202-1.2719.9865-2.0474.0884-.4127.51-.759.7978-1.1222.2264-.2859-.0017-.8434.5619-.9302.0401-.0062.108-.1543.0862-.192-.3111-.5379.1766-.8134.4097-1.1261a2.82641,2.82641,0,0,0,.5927-1.3231c.0352-.247.2587-.4667.2965-.7141.1186-.7776.784-1.3066.788-2.1917a14.36147,14.36147,0,0,1,.6139-2.8014c.1706-.7964.5667-1.5447.7158-2.3072a21.57789,21.57789,0,0,1,1.2504-4.5296c.231-.5291-.0815-.9278.1154-1.4392a11.32756,11.32756,0,0,0,.6876-3.2197c.0384-.5302.3072-.9489.3442-1.4511.0706-.9572.1713-1.9127.2807-2.8665.1082-.9441.3152-1.8707.4146-2.823.1493-1.4315.2795-2.8522.3016-4.2926.0289-1.8873.1164-3.772.0855-5.6623-.0074-.4515-.2712-.845-.1865-1.2227.278-1.2399-.094-2.4723.0588-3.7209a11.17853,11.17853,0,0,0-.3262-2.7093c-.0646-.4845-.0852-.978-.1911-1.4528-.0755-.3386-.3263-.6427-.3782-.9808-.0571-.3721-.124-.8928.0748-1.1234.4351-.5047-.485-.4691-.2352-.7919.2474-.3197.0225-.5783-.0229-.8821-.123-.8231-.3604-1.6196-.4928-2.4414-.1939-1.2041-.5367-2.3857-.8494-3.5647-.2551-.9617-.4295-1.9359-.6634-2.8986a6.50662,6.50662,0,0,0-.6104-1.7726,2.29107,2.29107,0,0,1-.3177-.7912c-.1591-.792-.7776-1.443-.7989-2.3051a.37755.37755,0,0,0-.2224-.2651c-.4995-.1587-.2888-.7011-.5543-.9922-.1069-.1171-.0312-.4349-.1413-.509a.9615.9615,0,0,1-.4385-1.0063.71037.71037,0,0,0-.3386-.5844c-.4437-.1417-.4797-.5134-.5722-.8315-.1866-.6413-.8925-1.081-.7092-1.8716.0239-.103-.145-.2709-.2529-.3811a4.656,4.656,0,0,1-1.3198-2.3065c-.0532-.1816-.1612-.4704-.2796-.4897-.7109-.1155-.7655-.6852-.9298-1.2018-.4267-1.341-1.5228-2.2511-2.2284-3.4142a.85844.85844,0,0,0-.4715-.338c-.297-.0814-.2348-.1992-.1478-.4089a.513.513,0,0,0-.0389-.424,4.8128,4.8128,0,0,0-1.4193-1.5856,1.58724,1.58724,0,0,1-.5132-.4456c-.2872-.4134-.4351-1.023-.8182-1.2463-.5351-.3118-.6456-.8855-.9919-1.1849a15.81488,15.81488,0,0,1-1.1229-1.4249,3.31739,3.31739,0,0,0-.3925-.4043,5.04205,5.04205,0,0,1-1.2637-1.4766,1.11567,1.11567,0,0,0-.4759-.3284,1.85543,1.85543,0,0,1-1.2148-1.484.58811.58811,0,0,0-.2572-.3381c-.2795-.1459-.6023-.2095-.5649-.6509.0058-.0691-.2706-.1651-.4191-.2437a2.12,2.12,0,0,1-.5124-.2707c-.3553-.3499-.8903-.6968-.9606-1.1115-.0889-.524-1.252-.1061-.7125-.9479-.0991-.037-.218-.1292-.2942-.1019-.5356.1917-.6697-.2075-.6987-.5479-.0326-.3822-.1082-.4926-.4851-.3603-.1808.0634-.2724-.1171-.4087-.2238-.3958-.3099-.8194-.5582-.9885-1.0686-1.0939-.2323-1.3824-1.6991-2.6228-1.7162-.049-.0006-.1276-.1085-.1398-.1759-.1065-.5918-.6091-.748-1.048-.9845-.694-.3739-1.3874-.7502-2.0669-1.1495-.4698-.2761-.9089-.6042-1.3746-.8878-.4223-.2571-.982-.3909-1.2646-.7496-.3783-.4802-.9319-.4475-1.3419-.7247-.8389-.5671-1.8918-.8125-2.5377-1.676a.52249.52249,0,0,0-.4098-.1858c-.5317.085-.836-.31-1.2183-.5312-.3732-.2158-.7184-.6439-1.0902-.6606a1.73956,1.73956,0,0,1-1.293-.6816c-.3354-.455-.892-.3449-1.1554-.6851-.2764-.357-.4942-.2733-.8576-.2415-.241.0212-.5159-.3985-.7877-.6049-.0322-.0244-.1453.044-.213.0829-.1579.0908-.3313.1618-.2905-.1219.0346-.2409-.0077-.3387-.2555-.4156a15.46048,15.46048,0,0,1-3.3859-1.3062,8.97984,8.97984,0,0,0-2.0148-.6025,16.10942,16.10942,0,0,1-2.8534-.9751,5.44685,5.44685,0,0,0-1.0392-.435c-.7411-.2024-1.4994-.3415-2.2427-.5368-.8659-.2274-1.7228-.4889-2.5845-.7325-1.5004-.4241-3.0739-.3198-4.5981-.7213a26.09835,26.09835,0,0,0-4.6373-.5734,2.74241,2.74241,0,0,1-1.4442-.2497,1.05055,1.05055,0,0,0-.5817-.068,5.78733,5.78733,0,0,1-1.8984.0873c-1.2203-.3931-2.4165.0952-3.6399-.1039a18.96874,18.96874,0,0,0-2.4132-.1073,24.43921,24.43921,0,0,0-2.6823-.1293,37.999,37.999,0,0,1-5.1226.1394c-.2644-.0136-.6294-.029-.783.123-.5158.5102-1.173.2943-1.735.3536a4.87263,4.87263,0,0,0-1.8384.4026,1.75934,1.75934,0,0,1-.5557.0958c-1.0494.1481-2.0787.4042-3.1382.5159-.5951.0628-1.1172.6044-1.7916.3352-.4444.6152-1.1859.2878-1.7426.5488a.67733.67733,0,0,1-.8601-.2039c-.3356-.4055-.5014-.2179-.6536.1389a1.11307,1.11307,0,0,1-1.1328.7066,2.47273,2.47273,0,0,0-.8516.2496c-.0546.0223-.0424.209-.061.3198a1.1288,1.1288,0,0,1-.1953-.2274c-.2831-.5975-.3249-.6096-.7226-.14-.1795.2121-.3303.4506-.5245.6471-.0955.0964-.3269.2123-.3833.1695-.5134-.3892-.8707-.2426-1.1746.2647a.37987.37987,0,0,1-.2999-.0661c-.2386-.2649-.3776-.1242-.5799.0599a1.686,1.686,0,0,1-.6754.3857,7.02008,7.02008,0,0,0-2.5414,1.2548c-.08.0615-.2768-.0308-.4198-.0484-.1027-.0126-.2889-.0483-.297-.0249-.1964.5678-.7287.4774-1.1465.6531a11.18973,11.18973,0,0,1-1.9352,1.0066c-.3138.0709-.5586.6646-1.0747.6697-.1695.6905-.9017.3032-1.2632.6585a4.89147,4.89147,0,0,1-.7735.5072,6.18949,6.18949,0,0,0-1.22.8433c-.3637.398-.8677.3601-1.2827.5813-.7189.3833-1.4437.7319-2.1307,1.1897-.6363.424-1.4312.6012-1.8277,1.3639a.71217.71217,0,0,1-.4889.32,2.38123,2.38123,0,0,0-1.8572,1.118.65718.65718,0,0,1-.359.277,2.28269,2.28269,0,0,0-1.2744.7136,8.31468,8.31468,0,0,1-1.199.8348c-.3136.2311-.7188.4428-.8739.7642a7.69479,7.69479,0,0,1-1.9362,2.1875c-.143.1331-.4533.2447-.4475.3537.0361.6885-.5745.7833-.9286,1.1187-.3941.3732-1.023.5241-1.0829,1.2383-.0174.2066-.3579.3971-.5678.5742-.5261.4439-1.2456.7733-1.5588,1.3326-.8198,1.4642-2.371,2.2317-3.2402,3.6356a3.347,3.347,0,0,1-1.1704.8539c-.3598.2183-.4338.8986-.6511,1.3667a1.54759,1.54759,0,0,1-.2863.3824c-.1767.189-.3383.4485-.5596.5263-.3487.1226.023.5965-.3936.6418-.6773.0738.2111.2478-.0241.4496a5.16348,5.16348,0,0,0-.885,1.0545c-.3264.4866-.5924,1.0133-.8947,1.5166a2.24466,2.24466,0,0,1-.523.7526c-.3175.2095.2326.6521-.2402.7103a.70584.70584,0,0,0-.6097.772c.0802.6886-.7854.9564-.6188,1.6273-.7798.5016-.8228,1.3651-1.0805,2.1341a3.61405,3.61405,0,0,1-.5728.8378,2.0072,2.0072,0,0,0-.2692.3733c-.1674.4199-.2992.8539-.4629,1.2753a6.27918,6.27918,0,0,1-.4914,1.1148c-.2098.3291-.1092.8448-.5951,1.004.1239.7117-.6949,1.0532-.6786,1.7339.0049.2091-.1939.4448-.1452.6272.1583.5927-.4717.7422-.5927,1.1794-.4004,1.4472-.9543,2.8457-1.3732,4.29a6.3089,6.3089,0,0,1-.8652,2.5367c.0749,1.2189-.5459,2.2692-.8313,3.4006-.0581.2304.255.3481.0143.7015-.3874.5689-.3113,1.3611-.5527,2.0468a14.63531,14.63531,0,0,0-.2473,2.1402c-.3704,1.9939-.5705,4.0097-.8272,6.018a6.504,6.504,0,0,1-.0916,1.2393,15.79075,15.79075,0,0,0-.4124,2.9299c-.0265.2634.1614.5578.1083.8076a12.00915,12.00915,0,0,0-.1991,3.3982c.1124,1.5799-.0637,3.1788.0054,4.7642.033.7555-.3934,1.5274.1404,2.304.1721.2503-.006.8198-.159,1.187-.0994.2387-.0813.3468.0634.5005.1033.1098.2045.2215.3067.3323-.6616.4586.0607.902.0111,1.347-.0757.6775.4384,1.319.0981,2.0144-.0462.0942.0726.2692.1149.4069l.3233-.196c-.053.1362-.0701.3101-.1659.4014-.261.2484-.1868.4869-.0597.7565.0942.1997.2784.4804.2087.6101-.1919.3572-.0087.6098.1037.8967a3.486,3.486,0,0,1,.3336,1.4266,2.82644,2.82644,0,0,0,.3348.9601c.0643.1708.2129.3564.1833.508-.1389.71.6927,1.235.3569,1.9736-.0186.0408.0551.1696.1114.1915.5574.2167.4292.7095.482,1.137a4.07093,4.07093,0,0,0,.2042,1.155c.7562,1.6827,1.0751,3.5076,1.7413,5.2178a15.4171,15.4171,0,0,0,.6301,1.7144c.6179,1.1532,1.0308,2.3916,1.5728,3.5756a10.24481,10.24481,0,0,1,1.1862,2.5678c.0385.2412.48-.075.4223.3603a1.97966,1.97966,0,0,0,.2342.8718c.1602.4157.4728.7337.3972,1.2826a1.88356,1.88356,0,0,0,.4273,1.2773,5.57059,5.57059,0,0,1,1.2784,2.341,1.37433,1.37433,0,0,0,.2723.5214c.5961.6975,1.4205,1.2435,1.4704,2.2937.0031.0636.0968.1827.1274.1763.5573-.1167.5809.3042.7918.6474.1993.3245.668.4784.4975,1.0037-.0094.0287.2736.1184.3747.2236.256.2668.7203.6068.6744.8296-.0798.3876.1419.5038.293.7008.2324.3029.4916.5852.7408.8752.3021.3516.5487.8748.9264.9993.3096.1021.5083.1338.5078.4506-.0005.3232.0205.5602.435.4688.0278.6106.6794.5707.948.9157.1818.2335.1945.6974.404.793.8228.3756,1.2676,1.1977,2.04,1.6135.1363.0734.3693.2014.3589.2768-.1133.8244.4161,1.0417,1.0503,1.2164a.73169.73169,0,0,1,.4487.3719c.3347.9398,1.1628,1.3527,1.8919,1.8896a8.34552,8.34552,0,0,1,1.5632,1.3683c.415.5102,1.078.774,1.3405,1.4252.0502.1244.238.2046.3758.2806.8673.4785,1.7405.9463,2.6046,1.4306a.32941.32941,0,0,1,.1406.2684c-.0696.3707.0937.2711.2991.1807.1062-.0466.2916-.0927.3502-.0392a7.07083,7.07083,0,0,0,1.2019,1.1343c.5613.3012.8689,1.1286,1.7158.8884.0744-.0212.2016.1147.294.1903a9.71745,9.71745,0,0,0,2.843,1.985c.4646.165.9155.5558,1.4411.7498a9.13814,9.13814,0,0,1,1.2194.6825c.562.3139,1.2836.3462,1.6789.9538.9228-.2182,1.3641,1.0413,2.3098.7525.5739.7545,1.5935.6927,2.2541,1.2031.4705.3636,1.0913.0374,1.4037.4771.3288.4628.8674.4341,1.2749.6955.1774.1138.4832.0162.6791.1159.1752.0893.2469.3788.4219.4721.3691.197.8191.5108,1.1568.4331a1.22115,1.22115,0,0,1,1.0861.2371c.8532.6961,2.0834.5722,2.8742,1.3809.0742.076.3017-.014.454.0052a3.21706,3.21706,0,0,1,.9081.1615,8.70174,8.70174,0,0,0,3.5725.9703,4.12276,4.12276,0,0,1,1.2309.2029c.4486.144.8518.435,1.3028.564.4175.1195.9461-.0191,1.2955.1822a8.18931,8.18931,0,0,0,2.6059.5235,2.39042,2.39042,0,0,1,.9626.3781c.3147.2185.6637-.4928,1.1311-.206.0915.0562.3274.0003.3403.0432.3175,1.0557,1.0072.3163,1.535.3249.2654.0044.6613-.1275.7712-.0008.2685.3094.5915.2293.8677.2269.8691-.0075,1.7142.4696,2.5953.1257.6671.4332,1.3756-.0521,2.0907.1004a10.90829,10.90829,0,0,0,2.2373-.0964,15.76014,15.76014,0,0,1,3.1754.1222c.5997.1204.9349-.2802,1.4477-.289,1.0896-.0189,2.174-.3053,3.2642-.3318a7.095,7.095,0,0,0,3.0807-.436c.1007-.0493.2886.0662.4306.1196a2.60784,2.60784,0,0,1,.2931.1526c.2504-.6822.9454-.3649,1.3997-.6087.4351-.2336.9663-.7288,1.4013.0687.0282.0518.2893-.0035.4349-.0388,1.3494-.3266,2.7007-.6466,4.044-.997a9.16176,9.16176,0,0,0,1.7372-.5869,1.88059,1.88059,0,0,1,.8526-.3136,1.96323,1.96323,0,0,0,.8771-.2924c.5413-.3051.9897-.835,1.7239-.608.0521.0162.1447-.1471.2351-.1965a5.91882,5.91882,0,0,1,.6897-.3364c.3948-.1532.7965-.2894,1.199-.4215.4113-.135.7579-.5804,1.2699-.2702.0323.0196.1807-.0717.177-.0854-.1452-.5462.3527-.414.5683-.4805a2.19268,2.19268,0,0,1,.8933-.021.84317.84317,0,0,0,.9783-.4681Z"/><path class="cls-2" d="M112.48286,153.3361q-.2304-.04335-.4606-.0866a2.93248,2.93248,0,0,1,.4309-.271c.0764-.0325.1893.0209.2857.0355l-.3049.3561Z"/></g></g></g></svg>