<?xml version="1.0"?>
<svg xmlns="http://www.w3.org/2000/svg" xmlns:xlink="http://www.w3.org/1999/xlink" version="1.1" id="Capa_1" x="0px" y="0px" width="512px" height="512px" viewBox="0 0 151.008 151.008" style="enable-background:new 0 0 151.008 151.008;" xml:space="preserve" class=""><g><g>
	<g>
		<path d="M62.38,75.705c-9.098,0-16.5-7.402-16.5-16.502c0-9.099,7.402-16.5,16.5-16.5s16.5,7.402,16.5,16.5    C78.881,68.303,71.479,75.705,62.38,75.705z M62.38,49.703c-5.238,0-9.5,4.263-9.5,9.5c0,5.239,4.262,9.502,9.5,9.502    s9.5-4.263,9.5-9.502C71.88,53.965,67.62,49.703,62.38,49.703z" data-original="#000000" class="active-path" data-old_color="#000000" fill="#FFFFFF"/>
		<path d="M119.215,96.924c-26.229,0-48.819-9.949-50.977-12.879c-1.064-1.445-0.908-3.449,0.406-4.674    c0.798-0.742,19.819-18.088,31.462-26.029c12.204-8.325,39.482-5.242,41.256-5.242c1.935,0,3.5,1.566,3.5,3.5s-1.565,3.5-3.5,3.5    c-1.901,0-27.552-2.333-37.411,4.092c-8.217,5.354-20.484,16.193-26.679,21.781c10.916,4.662,39.229,14.484,66.489,4.99    c1.825-0.635,3.819,0.328,4.456,2.154c0.637,1.824-0.329,3.818-2.152,4.455C137.016,95.727,127.873,96.923,119.215,96.924z" data-original="#000000" class="active-path" data-old_color="#000000" fill="#FFFFFF"/>
		<path d="M66.466,98.254c-16.133-4.703-32.708-9.924-58.969,0.729c-1.793,0.729-3.833-0.135-4.559-1.927    c-0.727-1.791,0.136-3.833,1.927-4.561c28.555-11.586,47.19-5.933,63.633-0.94c2.351,0.713,49.458,17.918,77.912,5.653    c1.772-0.765,3.814,0.39,4.422,2.226c0.606,1.836-0.406,3.766-2.226,4.422C128.146,111.266,104.812,109.434,66.466,98.254z" data-original="#000000" class="active-path" data-old_color="#000000" fill="#FFFFFF"/>
		<path d="M0.271,85.143c-0.853-1.733,0.429-4.092,2.228-4.8c26.273-10.345,47.117-5.688,47.992-5.485    c1.883,0.438,3.054,2.318,2.617,4.201c-0.438,1.881-2.314,3.053-4.195,2.618l0,0c-0.194-0.044-19.707-4.325-43.849,5.181    C4.643,87.021,1.393,87.422,0.271,85.143z" data-original="#000000" class="active-path" data-old_color="#000000" fill="#FFFFFF"/>
	</g>
</g></g> </svg>
